<svg width="1440" height="480" viewBox="0 0 1440 480" fill="none" xmlns="http://www.w3.org/2000/svg">
<rect width="1440" height="480" fill="#E5E5E5"/>
<g clip-path="url(#clip0)">
<rect width="1440" height="480" fill="white"/>
<rect width="1440" height="480" fill="#5CDB94"/>
<path d="M1123.84 282.199C1124.22 282.426 1124.62 282.629 1125.04 282.809C1125.46 282.988 1125.92 283.078 1126.42 283.078C1126.72 283.078 1127.02 283.035 1127.3 282.949C1127.58 282.863 1127.83 282.73 1128.04 282.551C1128.25 282.371 1128.42 282.145 1128.54 281.871C1128.67 281.59 1128.73 281.258 1128.73 280.875C1128.73 280.617 1128.69 280.352 1128.62 280.078C1128.56 279.805 1128.45 279.512 1128.29 279.199C1128.15 278.879 1127.95 278.531 1127.7 278.156C1127.45 277.781 1127.15 277.363 1126.78 276.902L1125.27 274.992C1124.9 274.516 1124.58 274.062 1124.31 273.633C1124.05 273.203 1123.84 272.793 1123.68 272.402C1123.51 272.004 1123.39 271.625 1123.31 271.266C1123.24 270.898 1123.21 270.539 1123.21 270.188C1123.21 269.602 1123.3 269.062 1123.49 268.57C1123.68 268.07 1123.95 267.641 1124.31 267.281C1124.67 266.914 1125.1 266.629 1125.61 266.426C1126.13 266.223 1126.71 266.121 1127.36 266.121C1127.87 266.121 1128.39 266.191 1128.92 266.332C1129.44 266.465 1129.95 266.68 1130.45 266.977L1129.51 268.793C1129.24 268.629 1128.94 268.488 1128.62 268.371C1128.31 268.246 1127.96 268.184 1127.58 268.184C1126.94 268.184 1126.43 268.367 1126.04 268.734C1125.66 269.094 1125.47 269.605 1125.47 270.27C1125.47 270.449 1125.49 270.637 1125.53 270.832C1125.57 271.02 1125.63 271.227 1125.73 271.453C1125.83 271.68 1125.96 271.93 1126.13 272.203C1126.3 272.477 1126.51 272.785 1126.77 273.129L1128.96 276.012C1129.24 276.387 1129.51 276.754 1129.76 277.113C1130.01 277.465 1130.22 277.828 1130.4 278.203C1130.58 278.57 1130.72 278.961 1130.83 279.375C1130.93 279.781 1130.99 280.223 1130.99 280.699C1130.99 281.402 1130.88 282.035 1130.65 282.598C1130.42 283.152 1130.11 283.625 1129.7 284.016C1129.29 284.406 1128.81 284.707 1128.25 284.918C1127.69 285.121 1127.08 285.223 1126.42 285.223C1125.73 285.223 1125.08 285.121 1124.45 284.918C1123.83 284.715 1123.29 284.457 1122.83 284.145L1123.84 282.199ZM1137.43 285.223C1136.85 285.223 1136.29 285.09 1135.75 284.824C1135.21 284.559 1134.73 284.156 1134.31 283.617C1133.89 283.078 1133.56 282.406 1133.31 281.602C1133.06 280.797 1132.93 279.855 1132.93 278.777C1132.93 277.699 1133.06 276.758 1133.31 275.953C1133.56 275.148 1133.89 274.477 1134.31 273.938C1134.73 273.398 1135.21 272.996 1135.75 272.73C1136.29 272.465 1136.85 272.332 1137.43 272.332C1138.02 272.332 1138.58 272.465 1139.12 272.73C1139.66 272.996 1140.14 273.398 1140.55 273.938C1140.97 274.477 1141.31 275.148 1141.56 275.953C1141.81 276.758 1141.93 277.699 1141.93 278.777C1141.93 279.855 1141.81 280.797 1141.56 281.602C1141.31 282.406 1140.97 283.078 1140.55 283.617C1140.14 284.156 1139.66 284.559 1139.12 284.824C1138.58 285.09 1138.02 285.223 1137.43 285.223ZM1137.43 283.172C1137.72 283.172 1137.99 283.098 1138.27 282.949C1138.54 282.793 1138.79 282.543 1139 282.199C1139.23 281.855 1139.41 281.402 1139.54 280.84C1139.68 280.277 1139.75 279.59 1139.75 278.777C1139.75 277.965 1139.68 277.281 1139.54 276.727C1139.41 276.164 1139.23 275.711 1139 275.367C1138.79 275.016 1138.54 274.766 1138.27 274.617C1137.99 274.461 1137.72 274.383 1137.43 274.383C1137.15 274.383 1136.88 274.461 1136.6 274.617C1136.33 274.766 1136.08 275.016 1135.85 275.367C1135.63 275.711 1135.45 276.164 1135.31 276.727C1135.18 277.281 1135.11 277.965 1135.11 278.777C1135.11 279.59 1135.18 280.277 1135.31 280.84C1135.45 281.402 1135.63 281.855 1135.85 282.199C1136.08 282.543 1136.33 282.793 1136.6 282.949C1136.88 283.098 1137.15 283.172 1137.43 283.172ZM1144.64 272.332L1146.35 273.551C1146.52 273.387 1146.72 273.234 1146.93 273.094C1147.14 272.945 1147.36 272.82 1147.59 272.719C1147.83 272.609 1148.07 272.523 1148.31 272.461C1148.56 272.398 1148.81 272.367 1149.05 272.367C1149.77 272.367 1150.38 272.5 1150.89 272.766C1151.4 273.023 1151.82 273.406 1152.13 273.914C1152.29 273.703 1152.49 273.504 1152.72 273.316C1152.95 273.129 1153.2 272.965 1153.47 272.824C1153.73 272.684 1154.01 272.574 1154.3 272.496C1154.59 272.41 1154.87 272.367 1155.15 272.367C1156.4 272.367 1157.34 272.762 1157.98 273.551C1158.61 274.332 1158.93 275.461 1158.93 276.938V285H1156.84V276.961C1156.84 276.156 1156.68 275.543 1156.35 275.121C1156.03 274.699 1155.55 274.488 1154.92 274.488C1154.57 274.488 1154.2 274.57 1153.83 274.734C1153.46 274.898 1153.13 275.156 1152.82 275.508V285H1150.74V276.961C1150.74 276.156 1150.57 275.543 1150.24 275.121C1149.92 274.699 1149.45 274.488 1148.81 274.488C1148.46 274.488 1148.1 274.57 1147.74 274.734C1147.37 274.898 1147.03 275.152 1146.73 275.496V285H1144.64V272.332ZM1166.33 285.223C1165.66 285.223 1165.04 285.078 1164.47 284.789C1163.91 284.492 1163.42 284.066 1162.99 283.512C1162.58 282.949 1162.25 282.266 1162.02 281.461C1161.79 280.648 1161.67 279.727 1161.67 278.695C1161.67 277.641 1161.79 276.715 1162.03 275.918C1162.27 275.121 1162.6 274.457 1163 273.926C1163.42 273.395 1163.89 272.996 1164.42 272.73C1164.96 272.465 1165.52 272.332 1166.1 272.332C1166.77 272.332 1167.36 272.508 1167.87 272.859C1168.38 273.203 1168.78 273.695 1169.08 274.336C1169.37 274.977 1169.56 275.75 1169.63 276.656C1169.7 277.555 1169.63 278.559 1169.44 279.668L1163.84 279.656C1163.9 280.328 1164.02 280.895 1164.2 281.355C1164.39 281.809 1164.61 282.176 1164.86 282.457C1165.11 282.738 1165.39 282.941 1165.69 283.066C1165.99 283.184 1166.28 283.242 1166.58 283.242C1166.76 283.242 1166.94 283.223 1167.12 283.184C1167.31 283.145 1167.48 283.094 1167.65 283.031C1167.82 282.969 1167.97 282.898 1168.11 282.82C1168.25 282.742 1168.37 282.668 1168.47 282.598L1169.26 284.379C1169.09 284.488 1168.89 284.594 1168.67 284.695C1168.44 284.797 1168.2 284.887 1167.94 284.965C1167.69 285.043 1167.42 285.105 1167.14 285.152C1166.87 285.199 1166.6 285.223 1166.33 285.223ZM1167.52 277.699C1167.56 277.043 1167.54 276.504 1167.47 276.082C1167.41 275.652 1167.31 275.312 1167.17 275.062C1167.03 274.805 1166.87 274.629 1166.67 274.535C1166.48 274.434 1166.27 274.383 1166.05 274.383C1165.49 274.383 1165 274.664 1164.6 275.227C1164.2 275.781 1163.95 276.605 1163.85 277.699H1167.52ZM1178.63 289.148H1176.54V272.32L1178.16 273.117C1178.45 272.867 1178.78 272.676 1179.14 272.543C1179.5 272.402 1179.89 272.332 1180.3 272.332C1180.9 272.332 1181.47 272.457 1182.01 272.707C1182.56 272.957 1183.04 273.344 1183.44 273.867C1183.85 274.391 1184.17 275.059 1184.4 275.871C1184.65 276.684 1184.77 277.652 1184.77 278.777C1184.77 279.902 1184.65 280.871 1184.4 281.684C1184.17 282.496 1183.85 283.164 1183.44 283.688C1183.04 284.211 1182.56 284.598 1182.01 284.848C1181.47 285.098 1180.9 285.223 1180.3 285.223C1180 285.223 1179.7 285.184 1179.42 285.105C1179.14 285.027 1178.88 284.918 1178.63 284.777V289.148ZM1178.63 282.668C1178.83 282.855 1179.06 283 1179.32 283.102C1179.58 283.203 1179.86 283.254 1180.16 283.254C1180.48 283.254 1180.79 283.184 1181.09 283.043C1181.38 282.902 1181.65 282.664 1181.87 282.328C1182.11 281.984 1182.29 281.527 1182.43 280.957C1182.58 280.379 1182.65 279.652 1182.65 278.777C1182.65 277.902 1182.58 277.18 1182.43 276.609C1182.29 276.031 1182.11 275.574 1181.87 275.238C1181.65 274.895 1181.38 274.652 1181.09 274.512C1180.79 274.371 1180.48 274.301 1180.16 274.301C1179.56 274.301 1179.05 274.5 1178.63 274.898V282.668ZM1187.15 281.109C1187.15 279.844 1187.59 278.848 1188.48 278.121C1189.38 277.395 1190.7 276.988 1192.44 276.902V276.656C1192.44 275.922 1192.27 275.348 1191.92 274.934C1191.57 274.52 1191.1 274.312 1190.5 274.312C1190.18 274.312 1189.86 274.371 1189.52 274.488C1189.2 274.598 1188.87 274.746 1188.54 274.934L1187.74 273.059C1188.24 272.809 1188.75 272.625 1189.29 272.508C1189.83 272.391 1190.32 272.332 1190.75 272.332C1191.32 272.332 1191.83 272.43 1192.29 272.625C1192.75 272.82 1193.15 273.102 1193.47 273.469C1193.8 273.828 1194.06 274.27 1194.24 274.793C1194.42 275.316 1194.5 275.91 1194.5 276.574V285.223L1192.97 284.473C1192.67 284.707 1192.34 284.891 1191.97 285.023C1191.61 285.156 1191.22 285.223 1190.8 285.223C1190.27 285.223 1189.78 285.117 1189.33 284.906C1188.88 284.688 1188.49 284.395 1188.17 284.027C1187.84 283.66 1187.59 283.227 1187.42 282.727C1187.24 282.227 1187.15 281.688 1187.15 281.109ZM1189.27 281.145C1189.27 281.434 1189.31 281.703 1189.4 281.953C1189.48 282.195 1189.6 282.41 1189.76 282.598C1189.92 282.777 1190.1 282.918 1190.32 283.02C1190.54 283.121 1190.78 283.172 1191.05 283.172C1191.32 283.172 1191.58 283.121 1191.83 283.02C1192.08 282.918 1192.29 282.789 1192.44 282.633V278.777C1191.94 278.77 1191.5 278.82 1191.11 278.93C1190.72 279.031 1190.38 279.188 1190.11 279.398C1189.84 279.602 1189.63 279.852 1189.48 280.148C1189.34 280.438 1189.27 280.77 1189.27 281.145ZM1200.02 287.578C1200.54 287.367 1200.99 287.145 1201.36 286.91C1201.74 286.684 1202.07 286.441 1202.33 286.184C1202.6 285.926 1202.81 285.652 1202.97 285.363C1203.13 285.074 1203.25 284.766 1203.33 284.438C1202.88 284.656 1202.37 284.766 1201.79 284.766C1201.22 284.766 1200.66 284.645 1200.13 284.402C1199.61 284.16 1199.14 283.785 1198.74 283.277C1198.34 282.77 1198.02 282.125 1197.77 281.344C1197.53 280.555 1197.41 279.617 1197.41 278.531C1197.41 277.445 1197.53 276.512 1197.77 275.73C1198.02 274.941 1198.34 274.293 1198.74 273.785C1199.14 273.277 1199.61 272.902 1200.13 272.66C1200.66 272.418 1201.22 272.297 1201.79 272.297C1202.66 272.297 1203.4 272.555 1204.01 273.07L1205.56 272.32V283.09C1205.56 283.793 1205.47 284.445 1205.3 285.047C1205.13 285.656 1204.87 286.219 1204.5 286.734C1204.14 287.25 1203.68 287.719 1203.11 288.141C1202.54 288.562 1201.85 288.938 1201.04 289.266L1200.02 287.578ZM1202.02 282.797C1202.29 282.797 1202.55 282.754 1202.79 282.668C1203.04 282.574 1203.27 282.445 1203.47 282.281V274.793C1203.05 274.441 1202.56 274.266 1202.02 274.266C1201.7 274.266 1201.39 274.332 1201.09 274.465C1200.79 274.598 1200.53 274.828 1200.29 275.156C1200.07 275.484 1199.88 275.922 1199.74 276.469C1199.6 277.016 1199.53 277.703 1199.53 278.531C1199.53 279.359 1199.6 280.047 1199.74 280.594C1199.88 281.141 1200.07 281.578 1200.29 281.906C1200.53 282.234 1200.79 282.465 1201.09 282.598C1201.39 282.73 1201.7 282.797 1202.02 282.797ZM1212.97 285.223C1212.3 285.223 1211.68 285.078 1211.11 284.789C1210.55 284.492 1210.06 284.066 1209.63 283.512C1209.22 282.949 1208.9 282.266 1208.66 281.461C1208.43 280.648 1208.31 279.727 1208.31 278.695C1208.31 277.641 1208.43 276.715 1208.67 275.918C1208.92 275.121 1209.24 274.457 1209.65 273.926C1210.06 273.395 1210.53 272.996 1211.06 272.73C1211.6 272.465 1212.16 272.332 1212.74 272.332C1213.41 272.332 1214 272.508 1214.51 272.859C1215.02 273.203 1215.42 273.695 1215.72 274.336C1216.01 274.977 1216.2 275.75 1216.27 276.656C1216.34 277.555 1216.27 278.559 1216.08 279.668L1210.48 279.656C1210.54 280.328 1210.66 280.895 1210.84 281.355C1211.03 281.809 1211.25 282.176 1211.5 282.457C1211.75 282.738 1212.03 282.941 1212.33 283.066C1212.63 283.184 1212.92 283.242 1213.22 283.242C1213.4 283.242 1213.58 283.223 1213.76 283.184C1213.95 283.145 1214.12 283.094 1214.29 283.031C1214.46 282.969 1214.61 282.898 1214.75 282.82C1214.9 282.742 1215.01 282.668 1215.11 282.598L1215.9 284.379C1215.73 284.488 1215.53 284.594 1215.31 284.695C1215.08 284.797 1214.84 284.887 1214.58 284.965C1214.33 285.043 1214.06 285.105 1213.78 285.152C1213.51 285.199 1213.24 285.223 1212.97 285.223ZM1214.16 277.699C1214.2 277.043 1214.18 276.504 1214.11 276.082C1214.05 275.652 1213.95 275.312 1213.81 275.062C1213.67 274.805 1213.51 274.629 1213.31 274.535C1213.12 274.434 1212.91 274.383 1212.69 274.383C1212.13 274.383 1211.65 274.664 1211.24 275.227C1210.84 275.781 1210.59 276.605 1210.49 277.699H1214.16ZM1219.31 282.539C1219.62 282.742 1219.95 282.906 1220.32 283.031C1220.69 283.148 1221.06 283.207 1221.42 283.207C1221.89 283.207 1222.27 283.082 1222.56 282.832C1222.86 282.582 1223 282.246 1223 281.824C1223 281.605 1222.96 281.406 1222.88 281.227C1222.79 281.039 1222.68 280.859 1222.54 280.688C1222.4 280.516 1222.23 280.352 1222.04 280.195C1221.86 280.039 1221.68 279.883 1221.48 279.727L1220.68 279.094C1220.02 278.578 1219.53 278.035 1219.21 277.465C1218.89 276.887 1218.73 276.266 1218.73 275.602C1218.73 275.164 1218.81 274.75 1218.99 274.359C1219.16 273.961 1219.4 273.613 1219.71 273.316C1220.02 273.012 1220.4 272.773 1220.83 272.602C1221.26 272.422 1221.74 272.332 1222.27 272.332C1222.72 272.332 1223.16 272.383 1223.58 272.484C1224 272.578 1224.43 272.738 1224.88 272.965L1224.01 274.91C1223.72 274.699 1223.43 274.547 1223.12 274.453C1222.83 274.359 1222.52 274.312 1222.22 274.312C1222 274.312 1221.81 274.348 1221.63 274.418C1221.46 274.48 1221.32 274.57 1221.2 274.688C1221.08 274.797 1220.99 274.926 1220.93 275.074C1220.87 275.215 1220.84 275.367 1220.84 275.531C1220.84 275.797 1220.92 276.059 1221.09 276.316C1221.27 276.574 1221.57 276.879 1222 277.23L1222.91 277.98C1223.32 278.316 1223.66 278.641 1223.94 278.953C1224.23 279.258 1224.46 279.562 1224.63 279.867C1224.81 280.172 1224.94 280.484 1225.02 280.805C1225.11 281.125 1225.15 281.461 1225.15 281.812C1225.15 282.297 1225.05 282.746 1224.86 283.16C1224.67 283.574 1224.41 283.934 1224.07 284.238C1223.74 284.543 1223.34 284.781 1222.88 284.953C1222.42 285.125 1221.92 285.211 1221.38 285.211C1220.79 285.211 1220.26 285.133 1219.79 284.977C1219.33 284.82 1218.9 284.621 1218.5 284.379L1219.31 282.539ZM1232.51 274.523H1231.58V272.555H1232.51V268.406H1234.59V272.555H1236.59V274.523H1234.59V280.078C1234.59 280.547 1234.63 280.957 1234.7 281.309C1234.78 281.66 1234.9 281.961 1235.08 282.211C1235.25 282.453 1235.47 282.648 1235.74 282.797C1236.02 282.945 1236.35 283.055 1236.75 283.125V285.211C1235.33 285.148 1234.27 284.699 1233.56 283.863C1232.86 283.02 1232.51 281.75 1232.51 280.055V274.523ZM1243.37 285.223C1242.79 285.223 1242.22 285.09 1241.68 284.824C1241.15 284.559 1240.67 284.156 1240.24 283.617C1239.83 283.078 1239.5 282.406 1239.25 281.602C1239 280.797 1238.87 279.855 1238.87 278.777C1238.87 277.699 1239 276.758 1239.25 275.953C1239.5 275.148 1239.83 274.477 1240.24 273.938C1240.67 273.398 1241.15 272.996 1241.68 272.73C1242.22 272.465 1242.79 272.332 1243.37 272.332C1243.96 272.332 1244.52 272.465 1245.06 272.73C1245.6 272.996 1246.08 273.398 1246.49 273.938C1246.91 274.477 1247.25 275.148 1247.5 275.953C1247.75 276.758 1247.87 277.699 1247.87 278.777C1247.87 279.855 1247.75 280.797 1247.5 281.602C1247.25 282.406 1246.91 283.078 1246.49 283.617C1246.08 284.156 1245.6 284.559 1245.06 284.824C1244.52 285.09 1243.96 285.223 1243.37 285.223ZM1243.37 283.172C1243.65 283.172 1243.93 283.098 1244.2 282.949C1244.48 282.793 1244.72 282.543 1244.94 282.199C1245.17 281.855 1245.35 281.402 1245.48 280.84C1245.62 280.277 1245.69 279.59 1245.69 278.777C1245.69 277.965 1245.62 277.281 1245.48 276.727C1245.35 276.164 1245.17 275.711 1244.94 275.367C1244.72 275.016 1244.48 274.766 1244.2 274.617C1243.93 274.461 1243.65 274.383 1243.37 274.383C1243.09 274.383 1242.81 274.461 1242.54 274.617C1242.27 274.766 1242.02 275.016 1241.79 275.367C1241.57 275.711 1241.39 276.164 1241.25 276.727C1241.12 277.281 1241.05 277.965 1241.05 278.777C1241.05 279.59 1241.12 280.277 1241.25 280.84C1241.39 281.402 1241.57 281.855 1241.79 282.199C1242.02 282.543 1242.27 282.793 1242.54 282.949C1242.81 283.098 1243.09 283.172 1243.37 283.172ZM1125.68 319.148H1123.59V302.32L1125.21 303.117C1125.51 302.867 1125.84 302.676 1126.2 302.543C1126.56 302.402 1126.94 302.332 1127.36 302.332C1127.96 302.332 1128.53 302.457 1129.07 302.707C1129.61 302.957 1130.09 303.344 1130.5 303.867C1130.9 304.391 1131.22 305.059 1131.46 305.871C1131.7 306.684 1131.82 307.652 1131.82 308.777C1131.82 309.902 1131.7 310.871 1131.46 311.684C1131.22 312.496 1130.9 313.164 1130.5 313.688C1130.09 314.211 1129.61 314.598 1129.07 314.848C1128.53 315.098 1127.96 315.223 1127.36 315.223C1127.05 315.223 1126.76 315.184 1126.48 315.105C1126.2 315.027 1125.93 314.918 1125.68 314.777V319.148ZM1125.68 312.668C1125.88 312.855 1126.11 313 1126.37 313.102C1126.64 313.203 1126.92 313.254 1127.22 313.254C1127.54 313.254 1127.84 313.184 1128.14 313.043C1128.44 312.902 1128.7 312.664 1128.93 312.328C1129.16 311.984 1129.35 311.527 1129.49 310.957C1129.63 310.379 1129.7 309.652 1129.7 308.777C1129.7 307.902 1129.63 307.18 1129.49 306.609C1129.35 306.031 1129.16 305.574 1128.93 305.238C1128.7 304.895 1128.44 304.652 1128.14 304.512C1127.84 304.371 1127.54 304.301 1127.22 304.301C1126.61 304.301 1126.1 304.5 1125.68 304.898V312.668ZM1134.68 302.332L1136.45 303.562C1136.93 303.188 1137.45 302.895 1138.01 302.684C1138.56 302.465 1139.14 302.355 1139.73 302.355V304.535C1139.11 304.535 1138.55 304.602 1138.07 304.734C1137.59 304.867 1137.18 305.121 1136.83 305.496V315H1134.68V302.332ZM1141.61 311.109C1141.61 309.844 1142.05 308.848 1142.94 308.121C1143.84 307.395 1145.16 306.988 1146.9 306.902V306.656C1146.9 305.922 1146.73 305.348 1146.38 304.934C1146.03 304.52 1145.56 304.312 1144.96 304.312C1144.65 304.312 1144.32 304.371 1143.99 304.488C1143.66 304.598 1143.33 304.746 1143 304.934L1142.2 303.059C1142.7 302.809 1143.21 302.625 1143.75 302.508C1144.29 302.391 1144.78 302.332 1145.22 302.332C1145.78 302.332 1146.29 302.43 1146.75 302.625C1147.21 302.82 1147.61 303.102 1147.93 303.469C1148.26 303.828 1148.52 304.27 1148.7 304.793C1148.88 305.316 1148.97 305.91 1148.97 306.574V315.223L1147.43 314.473C1147.13 314.707 1146.8 314.891 1146.43 315.023C1146.08 315.156 1145.68 315.223 1145.26 315.223C1144.73 315.223 1144.24 315.117 1143.79 314.906C1143.34 314.688 1142.95 314.395 1142.63 314.027C1142.31 313.66 1142.06 313.227 1141.88 312.727C1141.7 312.227 1141.61 311.688 1141.61 311.109ZM1143.73 311.145C1143.73 311.434 1143.77 311.703 1143.86 311.953C1143.94 312.195 1144.06 312.41 1144.22 312.598C1144.38 312.777 1144.56 312.918 1144.78 313.02C1145 313.121 1145.24 313.172 1145.51 313.172C1145.78 313.172 1146.04 313.121 1146.29 313.02C1146.54 312.918 1146.75 312.789 1146.9 312.633V308.777C1146.4 308.77 1145.96 308.82 1145.57 308.93C1145.18 309.031 1144.84 309.188 1144.57 309.398C1144.3 309.602 1144.09 309.852 1143.94 310.148C1143.8 310.438 1143.73 310.77 1143.73 311.145ZM1156.31 315.223C1155.67 315.223 1155.06 315.09 1154.51 314.824C1153.95 314.559 1153.47 314.156 1153.06 313.617C1152.65 313.078 1152.33 312.406 1152.09 311.602C1151.87 310.797 1151.75 309.855 1151.75 308.777C1151.75 307.699 1151.87 306.758 1152.09 305.953C1152.33 305.148 1152.65 304.477 1153.06 303.938C1153.47 303.398 1153.95 302.996 1154.51 302.73C1155.06 302.465 1155.67 302.332 1156.31 302.332C1156.79 302.332 1157.25 302.406 1157.68 302.555C1158.13 302.703 1158.52 302.879 1158.87 303.082L1157.99 304.898C1157.76 304.766 1157.5 304.648 1157.2 304.547C1156.92 304.438 1156.62 304.383 1156.31 304.383C1156.01 304.383 1155.71 304.461 1155.42 304.617C1155.13 304.773 1154.87 305.027 1154.64 305.379C1154.41 305.73 1154.23 306.188 1154.09 306.75C1153.95 307.305 1153.89 307.98 1153.89 308.777C1153.89 309.574 1153.95 310.254 1154.09 310.816C1154.23 311.371 1154.41 311.824 1154.64 312.176C1154.87 312.527 1155.13 312.781 1155.42 312.938C1155.71 313.094 1156.01 313.172 1156.31 313.172C1156.62 313.172 1156.92 313.121 1157.2 313.02C1157.5 312.91 1157.76 312.789 1157.99 312.656L1158.87 314.473C1158.52 314.676 1158.13 314.852 1157.68 315C1157.25 315.148 1156.79 315.223 1156.31 315.223ZM1161.7 304.523H1160.78V302.555H1161.7V298.406H1163.79V302.555H1165.78V304.523H1163.79V310.078C1163.79 310.547 1163.83 310.957 1163.9 311.309C1163.97 311.66 1164.1 311.961 1164.27 312.211C1164.44 312.453 1164.67 312.648 1164.94 312.797C1165.21 312.945 1165.55 313.055 1165.95 313.125V315.211C1164.52 315.148 1163.46 314.699 1162.76 313.863C1162.06 313.02 1161.7 311.75 1161.7 310.055V304.523ZM1170.15 300.422C1169.93 300.422 1169.72 300.383 1169.53 300.305C1169.34 300.227 1169.18 300.121 1169.05 299.988C1168.92 299.855 1168.82 299.703 1168.75 299.531C1168.68 299.352 1168.64 299.164 1168.64 298.969C1168.64 298.773 1168.68 298.59 1168.75 298.418C1168.82 298.238 1168.92 298.082 1169.05 297.949C1169.18 297.816 1169.34 297.711 1169.53 297.633C1169.72 297.555 1169.93 297.516 1170.15 297.516C1170.38 297.516 1170.59 297.555 1170.77 297.633C1170.96 297.711 1171.12 297.816 1171.25 297.949C1171.39 298.082 1171.49 298.238 1171.56 298.418C1171.63 298.59 1171.67 298.773 1171.67 298.969C1171.67 299.164 1171.63 299.352 1171.56 299.531C1171.49 299.703 1171.39 299.855 1171.25 299.988C1171.12 300.121 1170.96 300.227 1170.77 300.305C1170.59 300.383 1170.38 300.422 1170.15 300.422ZM1169.04 302.555H1171.13V315H1169.04V302.555ZM1178.86 315.223C1178.21 315.223 1177.61 315.09 1177.06 314.824C1176.5 314.559 1176.02 314.156 1175.6 313.617C1175.2 313.078 1174.88 312.406 1174.64 311.602C1174.42 310.797 1174.3 309.855 1174.3 308.777C1174.3 307.699 1174.42 306.758 1174.64 305.953C1174.88 305.148 1175.2 304.477 1175.6 303.938C1176.02 303.398 1176.5 302.996 1177.06 302.73C1177.61 302.465 1178.21 302.332 1178.86 302.332C1179.34 302.332 1179.79 302.406 1180.23 302.555C1180.68 302.703 1181.07 302.879 1181.42 303.082L1180.54 304.898C1180.31 304.766 1180.05 304.648 1179.75 304.547C1179.46 304.438 1179.17 304.383 1178.86 304.383C1178.56 304.383 1178.26 304.461 1177.97 304.617C1177.68 304.773 1177.42 305.027 1177.18 305.379C1176.96 305.73 1176.77 306.188 1176.63 306.75C1176.5 307.305 1176.43 307.98 1176.43 308.777C1176.43 309.574 1176.5 310.254 1176.63 310.816C1176.77 311.371 1176.96 311.824 1177.18 312.176C1177.42 312.527 1177.68 312.781 1177.97 312.938C1178.26 313.094 1178.56 313.172 1178.86 313.172C1179.17 313.172 1179.46 313.121 1179.75 313.02C1180.05 312.91 1180.31 312.789 1180.54 312.656L1181.42 314.473C1181.07 314.676 1180.68 314.852 1180.23 315C1179.79 315.148 1179.34 315.223 1178.86 315.223ZM1187.9 315.223C1187.22 315.223 1186.6 315.078 1186.03 314.789C1185.47 314.492 1184.98 314.066 1184.56 313.512C1184.14 312.949 1183.82 312.266 1183.58 311.461C1183.35 310.648 1183.23 309.727 1183.23 308.695C1183.23 307.641 1183.35 306.715 1183.59 305.918C1183.84 305.121 1184.16 304.457 1184.57 303.926C1184.98 303.395 1185.45 302.996 1185.99 302.73C1186.52 302.465 1187.08 302.332 1187.66 302.332C1188.33 302.332 1188.92 302.508 1189.43 302.859C1189.94 303.203 1190.34 303.695 1190.64 304.336C1190.93 304.977 1191.12 305.75 1191.19 306.656C1191.26 307.555 1191.2 308.559 1191 309.668L1185.4 309.656C1185.46 310.328 1185.58 310.895 1185.76 311.355C1185.95 311.809 1186.17 312.176 1186.42 312.457C1186.68 312.738 1186.95 312.941 1187.25 313.066C1187.55 313.184 1187.84 313.242 1188.14 313.242C1188.32 313.242 1188.5 313.223 1188.68 313.184C1188.87 313.145 1189.04 313.094 1189.21 313.031C1189.38 312.969 1189.54 312.898 1189.68 312.82C1189.82 312.742 1189.93 312.668 1190.03 312.598L1190.83 314.379C1190.65 314.488 1190.45 314.594 1190.23 314.695C1190 314.797 1189.76 314.887 1189.5 314.965C1189.25 315.043 1188.99 315.105 1188.7 315.152C1188.43 315.199 1188.16 315.223 1187.9 315.223ZM1189.08 307.699C1189.12 307.043 1189.1 306.504 1189.03 306.082C1188.97 305.652 1188.87 305.312 1188.73 305.062C1188.59 304.805 1188.43 304.629 1188.24 304.535C1188.04 304.434 1187.83 304.383 1187.61 304.383C1187.05 304.383 1186.57 304.664 1186.16 305.227C1185.76 305.781 1185.51 306.605 1185.41 307.699H1189.08ZM1198.1 302.332L1199.81 303.551C1199.99 303.387 1200.18 303.234 1200.39 303.094C1200.6 302.945 1200.82 302.82 1201.06 302.719C1201.29 302.609 1201.53 302.523 1201.77 302.461C1202.02 302.398 1202.27 302.367 1202.51 302.367C1203.23 302.367 1203.84 302.5 1204.35 302.766C1204.86 303.023 1205.28 303.406 1205.59 303.914C1205.75 303.703 1205.95 303.504 1206.18 303.316C1206.41 303.129 1206.66 302.965 1206.93 302.824C1207.19 302.684 1207.47 302.574 1207.76 302.496C1208.05 302.41 1208.33 302.367 1208.61 302.367C1209.86 302.367 1210.81 302.762 1211.44 303.551C1212.07 304.332 1212.39 305.461 1212.39 306.938V315H1210.3V306.961C1210.3 306.156 1210.14 305.543 1209.81 305.121C1209.49 304.699 1209.01 304.488 1208.38 304.488C1208.03 304.488 1207.67 304.57 1207.29 304.734C1206.92 304.898 1206.59 305.156 1206.28 305.508V315H1204.2V306.961C1204.2 306.156 1204.03 305.543 1203.7 305.121C1203.38 304.699 1202.91 304.488 1202.27 304.488C1201.92 304.488 1201.56 304.57 1201.2 304.734C1200.83 304.898 1200.49 305.152 1200.19 305.496V315H1198.1V302.332ZM1216.18 317.461C1216.49 317.227 1216.75 316.996 1216.98 316.77C1217.21 316.543 1217.4 316.312 1217.56 316.078C1217.71 315.844 1217.84 315.594 1217.93 315.328C1218.02 315.07 1218.09 314.785 1218.12 314.473L1214.49 302.555H1216.71L1218.47 308.883L1219.04 311.52L1219.62 308.895L1221.24 302.555H1223.46L1220.42 313.711C1220.27 314.242 1220.13 314.715 1219.99 315.129C1219.86 315.551 1219.72 315.926 1219.58 316.254C1219.44 316.59 1219.29 316.887 1219.14 317.145C1218.99 317.41 1218.82 317.652 1218.62 317.871C1218.43 318.098 1218.22 318.312 1217.99 318.516C1217.76 318.727 1217.5 318.938 1217.2 319.148L1216.18 317.461ZM1228.41 302.555H1230.63L1232.08 307.969L1232.57 310.055L1233.25 307.969L1234.48 304.664L1235.78 307.969L1236.5 310.055L1236.96 307.992L1238.32 302.555H1240.55L1236.89 315.715L1235.31 311.766L1234.48 309.457L1233.65 311.754L1232.06 315.715L1228.41 302.555ZM1246.68 315.223C1246 315.223 1245.38 315.078 1244.81 314.789C1244.25 314.492 1243.76 314.066 1243.34 313.512C1242.92 312.949 1242.6 312.266 1242.36 311.461C1242.13 310.648 1242.01 309.727 1242.01 308.695C1242.01 307.641 1242.13 306.715 1242.38 305.918C1242.62 305.121 1242.94 304.457 1243.35 303.926C1243.76 303.395 1244.24 302.996 1244.77 302.73C1245.31 302.465 1245.86 302.332 1246.44 302.332C1247.11 302.332 1247.7 302.508 1248.21 302.859C1248.72 303.203 1249.12 303.695 1249.42 304.336C1249.72 304.977 1249.9 305.75 1249.97 306.656C1250.04 307.555 1249.98 308.559 1249.78 309.668L1244.18 309.656C1244.24 310.328 1244.36 310.895 1244.54 311.355C1244.73 311.809 1244.95 312.176 1245.2 312.457C1245.46 312.738 1245.74 312.941 1246.03 313.066C1246.33 313.184 1246.63 313.242 1246.92 313.242C1247.1 313.242 1247.28 313.223 1247.46 313.184C1247.65 313.145 1247.83 313.094 1247.99 313.031C1248.16 312.969 1248.32 312.898 1248.46 312.82C1248.6 312.742 1248.72 312.668 1248.81 312.598L1249.61 314.379C1249.43 314.488 1249.24 314.594 1249.01 314.695C1248.78 314.797 1248.54 314.887 1248.28 314.965C1248.03 315.043 1247.77 315.105 1247.49 315.152C1247.21 315.199 1246.94 315.223 1246.68 315.223ZM1247.86 307.699C1247.9 307.043 1247.88 306.504 1247.81 306.082C1247.75 305.652 1247.65 305.312 1247.51 305.062C1247.38 304.805 1247.21 304.629 1247.02 304.535C1246.82 304.434 1246.61 304.383 1246.4 304.383C1245.83 304.383 1245.35 304.664 1244.94 305.227C1244.54 305.781 1244.29 306.605 1244.19 307.699H1247.86ZM1252.76 296.332H1254.84V302.789C1255.09 302.641 1255.36 302.527 1255.64 302.449C1255.92 302.371 1256.22 302.332 1256.52 302.332C1257.12 302.332 1257.69 302.457 1258.23 302.707C1258.78 302.957 1259.25 303.344 1259.66 303.867C1260.07 304.391 1260.39 305.059 1260.62 305.871C1260.86 306.684 1260.99 307.652 1260.99 308.777C1260.99 309.902 1260.86 310.871 1260.62 311.684C1260.39 312.496 1260.07 313.164 1259.66 313.688C1259.25 314.211 1258.78 314.598 1258.23 314.848C1257.69 315.098 1257.12 315.223 1256.52 315.223C1255.58 315.223 1254.78 314.887 1254.13 314.215L1252.76 315.199V296.332ZM1254.84 312.668C1255.05 312.855 1255.28 313 1255.54 313.102C1255.8 313.203 1256.08 313.254 1256.38 313.254C1256.7 313.254 1257.01 313.184 1257.31 313.043C1257.6 312.902 1257.86 312.664 1258.09 312.328C1258.33 311.984 1258.51 311.527 1258.65 310.957C1258.79 310.379 1258.86 309.652 1258.86 308.777C1258.86 307.902 1258.79 307.18 1258.65 306.609C1258.51 306.031 1258.33 305.574 1258.09 305.238C1257.86 304.895 1257.6 304.652 1257.31 304.512C1257.01 304.371 1256.7 304.301 1256.38 304.301C1255.78 304.301 1255.27 304.5 1254.84 304.898V312.668ZM1123.85 342.539C1124.16 342.742 1124.49 342.906 1124.86 343.031C1125.23 343.148 1125.59 343.207 1125.96 343.207C1126.43 343.207 1126.81 343.082 1127.1 342.832C1127.4 342.582 1127.54 342.246 1127.54 341.824C1127.54 341.605 1127.5 341.406 1127.42 341.227C1127.33 341.039 1127.22 340.859 1127.08 340.688C1126.93 340.516 1126.77 340.352 1126.58 340.195C1126.4 340.039 1126.22 339.883 1126.02 339.727L1125.22 339.094C1124.56 338.578 1124.07 338.035 1123.75 337.465C1123.43 336.887 1123.27 336.266 1123.27 335.602C1123.27 335.164 1123.35 334.75 1123.52 334.359C1123.7 333.961 1123.94 333.613 1124.25 333.316C1124.56 333.012 1124.93 332.773 1125.36 332.602C1125.8 332.422 1126.28 332.332 1126.81 332.332C1127.26 332.332 1127.7 332.383 1128.12 332.484C1128.54 332.578 1128.97 332.738 1129.42 332.965L1128.55 334.91C1128.26 334.699 1127.97 334.547 1127.66 334.453C1127.36 334.359 1127.06 334.312 1126.76 334.312C1126.54 334.312 1126.34 334.348 1126.17 334.418C1126 334.48 1125.86 334.57 1125.74 334.688C1125.62 334.797 1125.53 334.926 1125.47 335.074C1125.41 335.215 1125.38 335.367 1125.38 335.531C1125.38 335.797 1125.46 336.059 1125.63 336.316C1125.81 336.574 1126.11 336.879 1126.54 337.23L1127.45 337.98C1127.86 338.316 1128.2 338.641 1128.48 338.953C1128.77 339.258 1129 339.562 1129.17 339.867C1129.35 340.172 1129.48 340.484 1129.56 340.805C1129.65 341.125 1129.69 341.461 1129.69 341.812C1129.69 342.297 1129.59 342.746 1129.4 343.16C1129.21 343.574 1128.95 343.934 1128.61 344.238C1128.27 344.543 1127.88 344.781 1127.42 344.953C1126.95 345.125 1126.45 345.211 1125.92 345.211C1125.33 345.211 1124.8 345.133 1124.33 344.977C1123.87 344.82 1123.44 344.621 1123.04 344.379L1123.85 342.539ZM1132.55 326.332H1134.63V338.309H1134.65L1138.1 332.555H1140.33L1136.64 338.613L1140.95 345H1138.37L1134.63 339.352V345H1132.55V326.332ZM1144.7 330.422C1144.47 330.422 1144.27 330.383 1144.08 330.305C1143.89 330.227 1143.73 330.121 1143.6 329.988C1143.47 329.855 1143.36 329.703 1143.29 329.531C1143.22 329.352 1143.19 329.164 1143.19 328.969C1143.19 328.773 1143.22 328.59 1143.29 328.418C1143.36 328.238 1143.47 328.082 1143.6 327.949C1143.73 327.816 1143.89 327.711 1144.08 327.633C1144.27 327.555 1144.47 327.516 1144.7 327.516C1144.93 327.516 1145.13 327.555 1145.32 327.633C1145.51 327.711 1145.67 327.816 1145.8 327.949C1145.93 328.082 1146.04 328.238 1146.11 328.418C1146.18 328.59 1146.21 328.773 1146.21 328.969C1146.21 329.164 1146.18 329.352 1146.11 329.531C1146.04 329.703 1145.93 329.855 1145.8 329.988C1145.67 330.121 1145.51 330.227 1145.32 330.305C1145.13 330.383 1144.93 330.422 1144.7 330.422ZM1143.59 332.555H1145.67V345H1143.59V332.555ZM1149.49 326.332H1151.58V345H1149.49V326.332ZM1155 326.332H1157.09V345H1155V326.332ZM1160.77 342.539C1161.07 342.742 1161.41 342.906 1161.77 343.031C1162.14 343.148 1162.51 343.207 1162.88 343.207C1163.34 343.207 1163.72 343.082 1164.01 342.832C1164.31 342.582 1164.46 342.246 1164.46 341.824C1164.46 341.605 1164.42 341.406 1164.33 341.227C1164.24 341.039 1164.13 340.859 1163.99 340.688C1163.85 340.516 1163.68 340.352 1163.5 340.195C1163.32 340.039 1163.13 339.883 1162.93 339.727L1162.14 339.094C1161.47 338.578 1160.98 338.035 1160.66 337.465C1160.34 336.887 1160.18 336.266 1160.18 335.602C1160.18 335.164 1160.27 334.75 1160.44 334.359C1160.61 333.961 1160.85 333.613 1161.17 333.316C1161.48 333.012 1161.85 332.773 1162.28 332.602C1162.72 332.422 1163.2 332.332 1163.72 332.332C1164.17 332.332 1164.61 332.383 1165.03 332.484C1165.45 332.578 1165.89 332.738 1166.33 332.965L1165.47 334.91C1165.18 334.699 1164.88 334.547 1164.58 334.453C1164.28 334.359 1163.98 334.312 1163.67 334.312C1163.45 334.312 1163.26 334.348 1163.09 334.418C1162.92 334.48 1162.77 334.57 1162.65 334.688C1162.54 334.797 1162.45 334.926 1162.38 335.074C1162.32 335.215 1162.29 335.367 1162.29 335.531C1162.29 335.797 1162.38 336.059 1162.55 336.316C1162.72 336.574 1163.02 336.879 1163.45 337.23L1164.36 337.98C1164.77 338.316 1165.11 338.641 1165.4 338.953C1165.68 339.258 1165.92 339.562 1166.09 339.867C1166.27 340.172 1166.4 340.484 1166.47 340.805C1166.56 341.125 1166.6 341.461 1166.6 341.812C1166.6 342.297 1166.5 342.746 1166.31 343.16C1166.12 343.574 1165.86 343.934 1165.52 344.238C1165.19 344.543 1164.79 344.781 1164.33 344.953C1163.87 345.125 1163.37 345.211 1162.83 345.211C1162.24 345.211 1161.72 345.133 1161.25 344.977C1160.79 344.82 1160.36 344.621 1159.96 344.379L1160.77 342.539ZM1179.34 337.805C1179.09 337.805 1178.86 337.762 1178.66 337.676C1178.47 337.59 1178.3 337.477 1178.16 337.336C1178.02 337.195 1177.91 337.031 1177.83 336.844C1177.75 336.656 1177.71 336.457 1177.71 336.246C1177.71 336.035 1177.75 335.836 1177.83 335.648C1177.91 335.461 1178.02 335.297 1178.16 335.156C1178.3 335.008 1178.47 334.891 1178.66 334.805C1178.86 334.719 1179.09 334.676 1179.34 334.676C1179.58 334.676 1179.81 334.719 1180.01 334.805C1180.21 334.891 1180.38 335.008 1180.52 335.156C1180.67 335.297 1180.77 335.461 1180.85 335.648C1180.93 335.836 1180.97 336.035 1180.97 336.246C1180.97 336.457 1180.93 336.656 1180.85 336.844C1180.77 337.031 1180.67 337.195 1180.52 337.336C1180.38 337.477 1180.21 337.59 1180.01 337.676C1179.81 337.762 1179.58 337.805 1179.34 337.805ZM1177.71 343.652C1177.71 343.441 1177.75 343.242 1177.83 343.055C1177.91 342.867 1178.02 342.703 1178.16 342.562C1178.3 342.414 1178.47 342.297 1178.66 342.211C1178.86 342.125 1179.09 342.082 1179.34 342.082C1179.58 342.082 1179.81 342.125 1180.01 342.211C1180.21 342.297 1180.38 342.414 1180.52 342.562C1180.67 342.703 1180.77 342.867 1180.85 343.055C1180.93 343.242 1180.97 343.441 1180.97 343.652C1180.97 343.863 1180.93 344.062 1180.85 344.25C1180.77 344.438 1180.67 344.602 1180.52 344.742C1180.38 344.883 1180.21 344.996 1180.01 345.082C1179.81 345.168 1179.58 345.211 1179.34 345.211C1179.09 345.211 1178.86 345.168 1178.66 345.082C1178.47 344.996 1178.3 344.883 1178.16 344.742C1178.02 344.602 1177.91 344.438 1177.83 344.25C1177.75 344.062 1177.71 343.863 1177.71 343.652ZM1184.83 344.25C1186.06 343.148 1187 341.887 1187.66 340.465C1188.32 339.035 1188.65 337.438 1188.65 335.672C1188.65 333.906 1188.32 332.312 1187.66 330.891C1187 329.461 1186.06 328.195 1184.83 327.094V324.656C1185.67 325.25 1186.44 325.93 1187.15 326.695C1187.86 327.453 1188.47 328.297 1188.99 329.227C1189.5 330.148 1189.9 331.148 1190.18 332.227C1190.47 333.305 1190.61 334.453 1190.61 335.672C1190.61 336.891 1190.47 338.039 1190.18 339.117C1189.9 340.195 1189.5 341.199 1188.99 342.129C1188.47 343.051 1187.86 343.895 1187.15 344.66C1186.44 345.418 1185.67 346.094 1184.83 346.688V344.25Z" fill="#05396B"/>
<line y1="-2.5" x2="1440" y2="-2.5" transform="matrix(1 0.000561762 -0.000565683 1 0 125)" stroke="#389583" stroke-width="5"/>
<path d="M1122.1 193.996L1127.23 197.652C1127.75 197.16 1128.32 196.703 1128.95 196.281C1129.59 195.836 1130.25 195.461 1130.96 195.156C1131.66 194.828 1132.38 194.57 1133.1 194.383C1133.85 194.195 1134.59 194.102 1135.32 194.102C1137.47 194.102 1139.31 194.5 1140.84 195.297C1142.38 196.07 1143.62 197.219 1144.56 198.742C1145.05 198.109 1145.64 197.512 1146.32 196.949C1147.02 196.387 1147.77 195.895 1148.57 195.473C1149.37 195.051 1150.2 194.723 1151.07 194.488C1151.93 194.23 1152.79 194.102 1153.63 194.102C1157.38 194.102 1160.21 195.285 1162.11 197.652C1164 199.996 1164.95 203.383 1164.95 207.812V232H1158.7V207.883C1158.7 205.469 1158.2 203.629 1157.22 202.363C1156.26 201.098 1154.83 200.465 1152.93 200.465C1151.88 200.465 1150.79 200.711 1149.66 201.203C1148.56 201.695 1147.55 202.469 1146.64 203.523V232H1140.38V207.883C1140.38 205.469 1139.89 203.629 1138.9 202.363C1137.94 201.098 1136.51 200.465 1134.61 200.465C1133.56 200.465 1132.48 200.711 1131.38 201.203C1130.28 201.695 1129.27 202.457 1128.36 203.488V232H1122.1V193.996ZM1173.67 220.328C1173.67 216.531 1175.01 213.543 1177.68 211.363C1180.38 209.184 1184.34 207.965 1189.56 207.707V206.969C1189.56 204.766 1189.04 203.043 1187.98 201.801C1186.95 200.559 1185.53 199.938 1183.73 199.938C1182.79 199.938 1181.82 200.113 1180.81 200.465C1179.82 200.793 1178.84 201.238 1177.86 201.801L1175.46 196.176C1176.94 195.426 1178.49 194.875 1180.11 194.523C1181.72 194.172 1183.19 193.996 1184.5 193.996C1186.19 193.996 1187.72 194.289 1189.11 194.875C1190.49 195.461 1191.67 196.305 1192.66 197.406C1193.64 198.484 1194.4 199.809 1194.94 201.379C1195.48 202.949 1195.75 204.73 1195.75 206.723V232.668L1191.14 230.418C1190.25 231.121 1189.26 231.672 1188.16 232.07C1187.08 232.469 1185.91 232.668 1184.64 232.668C1183.05 232.668 1181.57 232.352 1180.21 231.719C1178.88 231.062 1177.71 230.184 1176.73 229.082C1175.77 227.98 1175.02 226.68 1174.48 225.18C1173.94 223.68 1173.67 222.062 1173.67 220.328ZM1180.04 220.434C1180.04 221.301 1180.16 222.109 1180.42 222.859C1180.68 223.586 1181.04 224.23 1181.51 224.793C1181.98 225.332 1182.54 225.754 1183.2 226.059C1183.86 226.363 1184.58 226.516 1185.38 226.516C1186.2 226.516 1186.98 226.363 1187.73 226.059C1188.48 225.754 1189.09 225.367 1189.56 224.898V213.332C1188.06 213.309 1186.73 213.461 1185.55 213.789C1184.38 214.094 1183.39 214.562 1182.57 215.195C1181.75 215.805 1181.11 216.555 1180.67 217.445C1180.25 218.312 1180.04 219.309 1180.04 220.434ZM1212.31 239.734C1213.86 239.102 1215.19 238.434 1216.32 237.73C1217.46 237.051 1218.44 236.324 1219.23 235.551C1220.03 234.777 1220.66 233.957 1221.13 233.09C1221.62 232.223 1221.99 231.297 1222.22 230.312C1220.89 230.969 1219.35 231.297 1217.62 231.297C1215.88 231.297 1214.22 230.934 1212.62 230.207C1211.05 229.48 1209.66 228.355 1208.44 226.832C1207.25 225.309 1206.29 223.375 1205.56 221.031C1204.83 218.664 1204.47 215.852 1204.47 212.594C1204.47 209.336 1204.83 206.535 1205.56 204.191C1206.29 201.824 1207.25 199.879 1208.44 198.355C1209.66 196.832 1211.05 195.707 1212.62 194.98C1214.22 194.254 1215.88 193.891 1217.62 193.891C1220.22 193.891 1222.43 194.664 1224.26 196.211L1228.9 193.961V226.27C1228.9 228.379 1228.64 230.336 1228.13 232.141C1227.64 233.969 1226.84 235.656 1225.74 237.203C1224.66 238.75 1223.27 240.156 1221.55 241.422C1219.84 242.688 1217.78 243.812 1215.37 244.797L1212.31 239.734ZM1218.29 225.391C1219.11 225.391 1219.88 225.262 1220.61 225.004C1221.36 224.723 1222.04 224.336 1222.64 223.844V201.379C1221.38 200.324 1219.93 199.797 1218.29 199.797C1217.32 199.797 1216.4 199.996 1215.51 200.395C1214.62 200.793 1213.82 201.484 1213.12 202.469C1212.44 203.453 1211.89 204.766 1211.46 206.406C1211.04 208.047 1210.83 210.109 1210.83 212.594C1210.83 215.078 1211.04 217.141 1211.46 218.781C1211.89 220.422 1212.44 221.734 1213.12 222.719C1213.82 223.703 1214.62 224.395 1215.51 224.793C1216.4 225.191 1217.32 225.391 1218.29 225.391ZM1237.66 220.328C1237.66 216.531 1238.99 213.543 1241.66 211.363C1244.36 209.184 1248.32 207.965 1253.55 207.707V206.969C1253.55 204.766 1253.02 203.043 1251.96 201.801C1250.93 200.559 1249.52 199.938 1247.71 199.938C1246.77 199.938 1245.8 200.113 1244.79 200.465C1243.81 200.793 1242.82 201.238 1241.84 201.801L1239.45 196.176C1240.93 195.426 1242.47 194.875 1244.09 194.523C1245.71 194.172 1247.17 193.996 1248.48 193.996C1250.17 193.996 1251.71 194.289 1253.09 194.875C1254.47 195.461 1255.66 196.305 1256.64 197.406C1257.62 198.484 1258.39 199.809 1258.93 201.379C1259.46 202.949 1259.73 204.73 1259.73 206.723V232.668L1255.13 230.418C1254.24 231.121 1253.24 231.672 1252.14 232.07C1251.06 232.469 1249.89 232.668 1248.62 232.668C1247.03 232.668 1245.55 232.352 1244.2 231.719C1242.86 231.062 1241.7 230.184 1240.71 229.082C1239.75 227.98 1239 226.68 1238.46 225.18C1237.93 223.68 1237.66 222.062 1237.66 220.328ZM1244.02 220.434C1244.02 221.301 1244.15 222.109 1244.41 222.859C1244.66 223.586 1245.03 224.23 1245.5 224.793C1245.96 225.332 1246.53 225.754 1247.18 226.059C1247.84 226.363 1248.57 226.516 1249.36 226.516C1250.18 226.516 1250.97 226.363 1251.72 226.059C1252.47 225.754 1253.08 225.367 1253.55 224.898V213.332C1252.05 213.309 1250.71 213.461 1249.54 213.789C1248.37 214.094 1247.37 214.562 1246.55 215.195C1245.73 215.805 1245.1 216.555 1244.65 217.445C1244.23 218.312 1244.02 219.309 1244.02 220.434ZM1270.04 175.996H1276.29V232H1270.04V175.996ZM1290.74 188.266C1290.06 188.266 1289.44 188.148 1288.88 187.914C1288.32 187.68 1287.84 187.363 1287.44 186.965C1287.04 186.566 1286.73 186.109 1286.52 185.594C1286.31 185.055 1286.21 184.492 1286.21 183.906C1286.21 183.32 1286.31 182.77 1286.52 182.254C1286.73 181.715 1287.04 181.246 1287.44 180.848C1287.84 180.449 1288.32 180.133 1288.88 179.898C1289.44 179.664 1290.06 179.547 1290.74 179.547C1291.42 179.547 1292.04 179.664 1292.61 179.898C1293.17 180.133 1293.65 180.449 1294.05 180.848C1294.45 181.246 1294.75 181.715 1294.96 182.254C1295.17 182.77 1295.28 183.32 1295.28 183.906C1295.28 184.492 1295.17 185.055 1294.96 185.594C1294.75 186.109 1294.45 186.566 1294.05 186.965C1293.65 187.363 1293.17 187.68 1292.61 187.914C1292.04 188.148 1291.42 188.266 1290.74 188.266ZM1287.4 194.664H1293.66V232H1287.4V194.664ZM1303.68 220.328C1303.68 216.531 1305.02 213.543 1307.69 211.363C1310.38 209.184 1314.34 207.965 1319.57 207.707V206.969C1319.57 204.766 1319.04 203.043 1317.99 201.801C1316.96 200.559 1315.54 199.938 1313.73 199.938C1312.8 199.938 1311.82 200.113 1310.82 200.465C1309.83 200.793 1308.85 201.238 1307.86 201.801L1305.47 196.176C1306.95 195.426 1308.5 194.875 1310.11 194.523C1311.73 194.172 1313.2 193.996 1314.51 193.996C1316.2 193.996 1317.73 194.289 1319.11 194.875C1320.5 195.461 1321.68 196.305 1322.66 197.406C1323.65 198.484 1324.41 199.809 1324.95 201.379C1325.49 202.949 1325.76 204.73 1325.76 206.723V232.668L1321.15 230.418C1320.26 231.121 1319.27 231.672 1318.16 232.07C1317.09 232.469 1315.91 232.668 1314.65 232.668C1313.05 232.668 1311.58 232.352 1310.22 231.719C1308.88 231.062 1307.72 230.184 1306.74 229.082C1305.78 227.98 1305.03 226.68 1304.49 225.18C1303.95 223.68 1303.68 222.062 1303.68 220.328ZM1310.04 220.434C1310.04 221.301 1310.17 222.109 1310.43 222.859C1310.69 223.586 1311.05 224.23 1311.52 224.793C1311.99 225.332 1312.55 225.754 1313.21 226.059C1313.86 226.363 1314.59 226.516 1315.39 226.516C1316.21 226.516 1316.99 226.363 1317.74 226.059C1318.49 225.754 1319.1 225.367 1319.57 224.898V213.332C1318.07 213.309 1316.73 213.461 1315.56 213.789C1314.39 214.094 1313.39 214.562 1312.57 215.195C1311.75 215.805 1311.12 216.555 1310.68 217.445C1310.25 218.312 1310.04 219.309 1310.04 220.434ZM1340.24 188.266C1339.56 188.266 1338.94 188.148 1338.38 187.914C1337.82 187.68 1337.34 187.363 1336.94 186.965C1336.54 186.566 1336.23 186.109 1336.02 185.594C1335.81 185.055 1335.71 184.492 1335.71 183.906C1335.71 183.32 1335.81 182.77 1336.02 182.254C1336.23 181.715 1336.54 181.246 1336.94 180.848C1337.34 180.449 1337.82 180.133 1338.38 179.898C1338.94 179.664 1339.56 179.547 1340.24 179.547C1340.92 179.547 1341.54 179.664 1342.11 179.898C1342.67 180.133 1343.15 180.449 1343.55 180.848C1343.95 181.246 1344.25 181.715 1344.46 182.254C1344.67 182.77 1344.78 183.32 1344.78 183.906C1344.78 184.492 1344.67 185.055 1344.46 185.594C1344.25 186.109 1343.95 186.566 1343.55 186.965C1343.15 187.363 1342.67 187.68 1342.11 187.914C1341.54 188.148 1340.92 188.266 1340.24 188.266ZM1336.9 194.664H1343.16V232H1336.9V194.664ZM1355.39 224.617C1356.31 225.227 1357.32 225.719 1358.42 226.094C1359.52 226.445 1360.62 226.621 1361.72 226.621C1363.13 226.621 1364.27 226.246 1365.13 225.496C1366.02 224.746 1366.47 223.738 1366.47 222.473C1366.47 221.816 1366.34 221.219 1366.08 220.68C1365.82 220.117 1365.48 219.578 1365.06 219.062C1364.64 218.547 1364.15 218.055 1363.59 217.586C1363.05 217.117 1362.48 216.648 1361.9 216.18L1359.51 214.281C1357.52 212.734 1356.04 211.105 1355.08 209.395C1354.12 207.66 1353.64 205.797 1353.64 203.805C1353.64 202.492 1353.89 201.25 1354.41 200.078C1354.93 198.883 1355.65 197.84 1356.59 196.949C1357.53 196.035 1358.64 195.32 1359.93 194.805C1361.24 194.266 1362.68 193.996 1364.25 193.996C1365.61 193.996 1366.93 194.148 1368.19 194.453C1369.46 194.734 1370.76 195.215 1372.09 195.895L1369.49 201.73C1368.62 201.098 1367.73 200.641 1366.82 200.359C1365.93 200.078 1365.03 199.938 1364.11 199.938C1363.46 199.938 1362.87 200.043 1362.36 200.254C1361.84 200.441 1361.41 200.711 1361.05 201.062C1360.7 201.391 1360.43 201.777 1360.25 202.223C1360.06 202.645 1359.96 203.102 1359.96 203.594C1359.96 204.391 1360.22 205.176 1360.74 205.949C1361.25 206.723 1362.16 207.637 1363.45 208.691L1366.19 210.941C1367.41 211.949 1368.44 212.922 1369.28 213.859C1370.15 214.773 1370.84 215.688 1371.36 216.602C1371.89 217.516 1372.28 218.453 1372.52 219.414C1372.77 220.375 1372.9 221.383 1372.9 222.438C1372.9 223.891 1372.61 225.238 1372.02 226.48C1371.46 227.723 1370.68 228.801 1369.67 229.715C1368.66 230.629 1367.46 231.344 1366.08 231.859C1364.7 232.375 1363.2 232.633 1361.58 232.633C1359.82 232.633 1358.24 232.398 1356.84 231.93C1355.45 231.461 1354.16 230.863 1352.97 230.137L1355.39 224.617Z" fill="#05396B"/>
<line x1="151.5" x2="151.5" y2="480" stroke="#389583" stroke-width="5"/>
<path d="M457.864 421.304H449.952V429.183H457.864V421.304Z" fill="#05396B"/>
<path d="M429.708 360.358L422.742 364.094L450.434 415.308L457.4 411.573L429.708 360.358Z" fill="#05396B"/>
<path d="M328.476 305.906L334.069 300.336L311.493 277.854V265.358L328.476 282.27L334.069 276.699L310.334 253.063L310.306 253.091C308.842 251.553 306.403 251.488 304.858 252.946C304.816 252.985 304.776 253.026 304.736 253.067L281 276.703L286.594 282.274L303.581 265.358V277.854L281.004 300.336L286.598 305.906L303.581 288.994V301.49L281.004 323.972L286.598 329.543L303.581 312.631V325.127L281.004 347.609L286.598 353.179L303.581 336.267V429.183H311.493V336.267L328.476 353.179L334.069 347.609L311.493 325.127V312.631L328.476 329.543L334.069 323.972L311.493 301.49V288.994L328.476 305.906Z" fill="#05396B"/>
<path d="M514.406 321.664L520 316.094L497.423 293.611V281.116L514.406 298.027L520 292.457L496.264 268.821L496.236 268.848C494.772 267.31 492.333 267.245 490.789 268.703C490.747 268.743 490.707 268.783 490.666 268.825L466.931 292.461L472.524 298.031L489.511 281.116V293.611L466.935 316.094L472.528 321.664L489.511 304.752V317.248L466.935 339.73L472.528 345.301L489.511 328.389V366.152L481.204 348.712C480.553 347.339 479.168 346.461 477.643 346.455H426.216V316.57L443.199 333.482L448.793 327.912L426.216 305.43V292.934L443.199 309.846L448.793 304.275L426.216 281.793V269.297L443.199 286.209L448.793 280.639L426.216 258.157V245.661L443.199 262.573L448.793 257.002L425.057 233.366L425.029 233.393C423.565 231.856 421.126 231.791 419.582 233.249C419.54 233.288 419.499 233.328 419.459 233.37L395.723 257.006L401.317 262.577L418.304 245.661V258.157L395.727 280.639L401.321 286.209L418.304 269.297V281.793L395.727 304.275L401.321 309.846L418.304 292.934V305.43L395.727 327.912L401.321 333.482L418.304 316.57V346.455H362.92C361.804 346.461 360.744 346.943 360.009 347.778C359.775 348.011 359.576 348.277 359.419 348.566L319.86 423.415C318.846 425.343 319.593 427.723 321.528 428.733C322.094 429.028 322.723 429.182 323.361 429.183H442.04V421.304H404.854L369.471 354.334H475.139L506.997 421.304H465.776V429.183H513.247C515.432 429.174 517.196 427.404 517.188 425.228C517.186 424.65 517.056 424.08 516.808 423.557L497.423 382.78V328.389L514.406 345.301L520 339.73L497.423 317.248V304.752L514.406 321.664ZM358.964 421.304H329.912L358.964 366.337V421.304ZM395.929 421.304H366.876V366.337L395.929 421.304Z" fill="#05396B"/>
<path d="M356.986 192.817C354.802 192.818 353.031 194.582 353.031 196.758C353.031 197.802 353.448 198.803 354.189 199.542C358.275 203.198 360.915 208.187 361.635 213.61C362.384 220.26 357.578 226.257 350.9 227.004C349.997 227.105 349.086 227.105 348.184 227.004L348.196 226.992C342.751 226.275 337.741 223.646 334.069 219.578C332.524 218.04 330.019 218.04 328.475 219.579C327.733 220.318 327.317 221.319 327.317 222.363C327.317 238.681 340.6 251.909 356.986 251.909C373.372 251.909 386.656 238.681 386.656 222.363C386.656 206.045 373.372 192.817 356.986 192.817ZM376.58 231.807C371.342 242.577 358.329 247.079 347.514 241.864C343.111 239.74 339.555 236.201 337.421 231.818C340.571 233.508 344.037 234.533 347.603 234.831C353.568 235.372 359.47 233.271 363.74 229.088C370.421 221.932 371.539 211.236 366.481 202.863C377.296 208.079 381.817 221.037 376.58 231.807Z" fill="#05396B"/>
</g>
<defs>
<clipPath id="clip0">
<rect width="1440" height="480" fill="white"/>
</clipPath>
</defs>
</svg>
