<svg width="1440" height="480" viewBox="0 0 1440 480" fill="none" xmlns="http://www.w3.org/2000/svg">
<rect width="1440" height="480" fill="#E5E5E5"/>
<g clip-path="url(#clip0)">
<rect width="1440" height="480" fill="white"/>
<rect width="1440" height="480" fill="#5CDB94"/>
<path d="M1246.31 305.499C1246.79 305.782 1247.29 306.036 1247.81 306.261C1248.33 306.485 1248.91 306.598 1249.53 306.598C1249.91 306.598 1250.28 306.544 1250.63 306.437C1250.98 306.329 1251.29 306.163 1251.56 305.938C1251.82 305.714 1252.03 305.431 1252.18 305.089C1252.34 304.737 1252.42 304.322 1252.42 303.844C1252.42 303.521 1252.38 303.189 1252.29 302.848C1252.21 302.506 1252.07 302.14 1251.88 301.749C1251.69 301.349 1251.44 300.914 1251.13 300.445C1250.83 299.977 1250.45 299.454 1249.99 298.878L1248.1 296.49C1247.63 295.895 1247.23 295.328 1246.9 294.791C1246.57 294.254 1246.31 293.741 1246.11 293.253C1245.9 292.755 1245.75 292.281 1245.65 291.832C1245.56 291.373 1245.52 290.924 1245.52 290.484C1245.52 289.752 1245.64 289.078 1245.87 288.463C1246.11 287.838 1246.45 287.301 1246.9 286.852C1247.35 286.393 1247.89 286.036 1248.52 285.782C1249.17 285.528 1249.89 285.401 1250.71 285.401C1251.35 285.401 1252 285.489 1252.65 285.665C1253.31 285.831 1253.95 286.1 1254.57 286.471L1253.4 288.741C1253.06 288.536 1252.69 288.36 1252.29 288.214C1251.9 288.058 1251.46 287.979 1250.98 287.979C1250.18 287.979 1249.54 288.209 1249.06 288.668C1248.59 289.117 1248.35 289.757 1248.35 290.587C1248.35 290.812 1248.37 291.046 1248.42 291.29C1248.47 291.524 1248.55 291.783 1248.67 292.066C1248.8 292.35 1248.96 292.662 1249.17 293.004C1249.38 293.346 1249.65 293.731 1249.97 294.161L1252.71 297.765C1253.06 298.233 1253.4 298.692 1253.71 299.142C1254.02 299.581 1254.29 300.035 1254.51 300.504C1254.74 300.963 1254.91 301.451 1255.04 301.969C1255.18 302.477 1255.25 303.028 1255.25 303.624C1255.25 304.503 1255.1 305.294 1254.82 305.997C1254.54 306.69 1254.14 307.281 1253.64 307.77C1253.13 308.258 1252.52 308.634 1251.82 308.897C1251.13 309.151 1250.36 309.278 1249.53 309.278C1248.67 309.278 1247.85 309.151 1247.07 308.897C1246.29 308.644 1245.62 308.321 1245.05 307.931L1246.31 305.499ZM1263.3 309.278C1262.57 309.278 1261.87 309.112 1261.19 308.78C1260.52 308.448 1259.92 307.945 1259.39 307.271C1258.87 306.598 1258.46 305.758 1258.15 304.752C1257.83 303.746 1257.68 302.569 1257.68 301.222C1257.68 299.874 1257.83 298.697 1258.15 297.691C1258.46 296.686 1258.87 295.846 1259.39 295.172C1259.92 294.498 1260.52 293.995 1261.19 293.663C1261.87 293.331 1262.57 293.165 1263.3 293.165C1264.04 293.165 1264.74 293.331 1265.41 293.663C1266.09 293.995 1266.68 294.498 1267.2 295.172C1267.73 295.846 1268.15 296.686 1268.46 297.691C1268.77 298.697 1268.93 299.874 1268.93 301.222C1268.93 302.569 1268.77 303.746 1268.46 304.752C1268.15 305.758 1267.73 306.598 1267.2 307.271C1266.68 307.945 1266.09 308.448 1265.41 308.78C1264.74 309.112 1264.04 309.278 1263.3 309.278ZM1263.3 306.715C1263.65 306.715 1264 306.622 1264.34 306.437C1264.68 306.241 1264.99 305.929 1265.27 305.499C1265.55 305.069 1265.77 304.503 1265.94 303.8C1266.12 303.097 1266.2 302.237 1266.2 301.222C1266.2 300.206 1266.12 299.352 1265.94 298.658C1265.77 297.955 1265.55 297.389 1265.27 296.959C1264.99 296.52 1264.68 296.207 1264.34 296.021C1264 295.826 1263.65 295.729 1263.3 295.729C1262.95 295.729 1262.6 295.826 1262.26 296.021C1261.92 296.207 1261.61 296.52 1261.33 296.959C1261.05 297.389 1260.83 297.955 1260.65 298.658C1260.49 299.352 1260.4 300.206 1260.4 301.222C1260.4 302.237 1260.49 303.097 1260.65 303.8C1260.83 304.503 1261.05 305.069 1261.33 305.499C1261.61 305.929 1261.92 306.241 1262.26 306.437C1262.6 306.622 1262.95 306.715 1263.3 306.715ZM1272.31 293.165L1274.45 294.688C1274.67 294.483 1274.9 294.293 1275.17 294.117C1275.43 293.932 1275.71 293.775 1276 293.648C1276.3 293.512 1276.59 293.404 1276.9 293.326C1277.21 293.248 1277.52 293.209 1277.82 293.209C1278.72 293.209 1279.48 293.375 1280.12 293.707C1280.76 294.029 1281.28 294.508 1281.67 295.143C1281.88 294.879 1282.12 294.63 1282.4 294.396C1282.7 294.161 1283.01 293.956 1283.34 293.78C1283.67 293.604 1284.02 293.468 1284.38 293.37C1284.74 293.263 1285.1 293.209 1285.45 293.209C1287.01 293.209 1288.19 293.702 1288.98 294.688C1289.77 295.665 1290.17 297.076 1290.17 298.922V309H1287.56V298.951C1287.56 297.945 1287.36 297.179 1286.95 296.651C1286.55 296.124 1285.95 295.86 1285.16 295.86C1284.72 295.86 1284.27 295.963 1283.8 296.168C1283.34 296.373 1282.92 296.695 1282.54 297.135V309H1279.93V298.951C1279.93 297.945 1279.72 297.179 1279.31 296.651C1278.91 296.124 1278.32 295.86 1277.53 295.86C1277.09 295.86 1276.64 295.963 1276.18 296.168C1275.72 296.373 1275.3 296.69 1274.92 297.12V309H1272.31V293.165ZM1299.43 309.278C1298.59 309.278 1297.81 309.098 1297.1 308.736C1296.39 308.365 1295.78 307.833 1295.25 307.14C1294.73 306.437 1294.33 305.582 1294.04 304.576C1293.74 303.561 1293.6 302.408 1293.6 301.119C1293.6 299.801 1293.75 298.644 1294.05 297.647C1294.35 296.651 1294.76 295.821 1295.27 295.157C1295.78 294.493 1296.37 293.995 1297.04 293.663C1297.71 293.331 1298.41 293.165 1299.13 293.165C1299.97 293.165 1300.71 293.385 1301.35 293.824C1301.98 294.254 1302.48 294.869 1302.85 295.67C1303.22 296.471 1303.45 297.438 1303.54 298.57C1303.63 299.693 1303.55 300.948 1303.31 302.335L1296.31 302.32C1296.38 303.16 1296.54 303.868 1296.76 304.444C1296.99 305.011 1297.27 305.47 1297.58 305.821C1297.9 306.173 1298.25 306.427 1298.62 306.583C1298.99 306.729 1299.36 306.803 1299.73 306.803C1299.96 306.803 1300.18 306.778 1300.41 306.729C1300.64 306.681 1300.86 306.617 1301.07 306.539C1301.28 306.461 1301.48 306.373 1301.65 306.275C1301.83 306.178 1301.97 306.085 1302.09 305.997L1303.09 308.224C1302.87 308.36 1302.62 308.492 1302.34 308.619C1302.06 308.746 1301.76 308.858 1301.43 308.956C1301.12 309.054 1300.79 309.132 1300.44 309.19C1300.1 309.249 1299.76 309.278 1299.43 309.278ZM1300.91 299.874C1300.95 299.054 1300.93 298.38 1300.85 297.853C1300.77 297.315 1300.64 296.891 1300.47 296.578C1300.3 296.256 1300.1 296.036 1299.85 295.919C1299.61 295.792 1299.35 295.729 1299.07 295.729C1298.37 295.729 1297.77 296.08 1297.26 296.783C1296.76 297.477 1296.45 298.507 1296.32 299.874H1300.91ZM1314.79 314.186H1312.18V293.15L1314.21 294.146C1314.58 293.834 1314.99 293.595 1315.44 293.429C1315.89 293.253 1316.37 293.165 1316.89 293.165C1317.64 293.165 1318.35 293.321 1319.03 293.634C1319.71 293.946 1320.31 294.43 1320.81 295.084C1321.32 295.738 1321.72 296.573 1322.01 297.589C1322.32 298.604 1322.47 299.815 1322.47 301.222C1322.47 302.628 1322.32 303.839 1322.01 304.854C1321.72 305.87 1321.32 306.705 1320.81 307.359C1320.31 308.014 1319.71 308.497 1319.03 308.81C1318.35 309.122 1317.64 309.278 1316.89 309.278C1316.51 309.278 1316.14 309.229 1315.79 309.132C1315.44 309.034 1315.1 308.897 1314.79 308.722V314.186ZM1314.79 306.085C1315.05 306.319 1315.33 306.5 1315.66 306.627C1315.99 306.754 1316.34 306.817 1316.71 306.817C1317.11 306.817 1317.5 306.729 1317.87 306.554C1318.24 306.378 1318.57 306.08 1318.85 305.66C1319.14 305.23 1319.38 304.659 1319.55 303.946C1319.73 303.224 1319.82 302.315 1319.82 301.222C1319.82 300.128 1319.73 299.225 1319.55 298.512C1319.38 297.789 1319.14 297.218 1318.85 296.798C1318.57 296.368 1318.24 296.065 1317.87 295.89C1317.5 295.714 1317.11 295.626 1316.71 295.626C1315.96 295.626 1315.32 295.875 1314.79 296.373V306.085ZM1325.44 304.137C1325.44 302.555 1326 301.31 1327.11 300.401C1328.23 299.493 1329.89 298.985 1332.06 298.878V298.57C1332.06 297.652 1331.84 296.935 1331.4 296.417C1330.97 295.899 1330.38 295.641 1329.63 295.641C1329.24 295.641 1328.84 295.714 1328.42 295.86C1328.01 295.997 1327.6 296.183 1327.18 296.417L1326.19 294.073C1326.8 293.761 1327.45 293.531 1328.12 293.385C1328.8 293.238 1329.41 293.165 1329.95 293.165C1330.66 293.165 1331.3 293.287 1331.87 293.531C1332.45 293.775 1332.94 294.127 1333.35 294.586C1333.76 295.035 1334.08 295.587 1334.3 296.241C1334.53 296.896 1334.64 297.638 1334.64 298.468V309.278L1332.72 308.341C1332.35 308.634 1331.94 308.863 1331.48 309.029C1331.03 309.195 1330.54 309.278 1330.01 309.278C1329.35 309.278 1328.73 309.146 1328.17 308.883C1327.61 308.609 1327.13 308.243 1326.72 307.784C1326.32 307.325 1326 306.783 1325.78 306.158C1325.55 305.533 1325.44 304.859 1325.44 304.137ZM1328.09 304.181C1328.09 304.542 1328.15 304.879 1328.25 305.191C1328.36 305.494 1328.51 305.763 1328.71 305.997C1328.9 306.222 1329.14 306.397 1329.41 306.524C1329.68 306.651 1329.99 306.715 1330.32 306.715C1330.66 306.715 1330.99 306.651 1331.3 306.524C1331.61 306.397 1331.87 306.236 1332.06 306.041V301.222C1331.44 301.212 1330.88 301.275 1330.39 301.412C1329.9 301.539 1329.49 301.734 1329.15 301.998C1328.81 302.252 1328.54 302.564 1328.36 302.936C1328.18 303.297 1328.09 303.712 1328.09 304.181ZM1341.54 312.223C1342.18 311.959 1342.74 311.681 1343.21 311.388C1343.69 311.104 1344.09 310.802 1344.43 310.479C1344.76 310.157 1345.02 309.815 1345.22 309.454C1345.42 309.093 1345.57 308.707 1345.67 308.297C1345.11 308.57 1344.47 308.707 1343.75 308.707C1343.03 308.707 1342.34 308.556 1341.67 308.253C1341.02 307.95 1340.44 307.481 1339.93 306.847C1339.43 306.212 1339.03 305.406 1338.73 304.43C1338.43 303.443 1338.27 302.271 1338.27 300.914C1338.27 299.557 1338.43 298.39 1338.73 297.413C1339.03 296.427 1339.43 295.616 1339.93 294.981C1340.44 294.347 1341.02 293.878 1341.67 293.575C1342.34 293.272 1343.03 293.121 1343.75 293.121C1344.84 293.121 1345.76 293.443 1346.52 294.088L1348.45 293.15V306.612C1348.45 307.491 1348.35 308.307 1348.13 309.059C1347.93 309.82 1347.6 310.523 1347.14 311.168C1346.69 311.812 1346.11 312.398 1345.39 312.926C1344.68 313.453 1343.82 313.922 1342.81 314.332L1341.54 312.223ZM1344.03 306.246C1344.37 306.246 1344.69 306.192 1345 306.085C1345.31 305.968 1345.59 305.807 1345.85 305.602V296.241C1345.32 295.802 1344.71 295.582 1344.03 295.582C1343.63 295.582 1343.24 295.665 1342.87 295.831C1342.5 295.997 1342.17 296.285 1341.88 296.695C1341.59 297.105 1341.36 297.652 1341.19 298.336C1341.01 299.02 1340.93 299.879 1340.93 300.914C1340.93 301.949 1341.01 302.809 1341.19 303.492C1341.36 304.176 1341.59 304.723 1341.88 305.133C1342.17 305.543 1342.5 305.831 1342.87 305.997C1343.24 306.163 1343.63 306.246 1344.03 306.246ZM1357.73 309.278C1356.89 309.278 1356.11 309.098 1355.4 308.736C1354.69 308.365 1354.08 307.833 1353.55 307.14C1353.03 306.437 1352.63 305.582 1352.34 304.576C1352.04 303.561 1351.9 302.408 1351.9 301.119C1351.9 299.801 1352.05 298.644 1352.35 297.647C1352.65 296.651 1353.06 295.821 1353.57 295.157C1354.08 294.493 1354.68 293.995 1355.34 293.663C1356.01 293.331 1356.71 293.165 1357.43 293.165C1358.27 293.165 1359.01 293.385 1359.65 293.824C1360.28 294.254 1360.78 294.869 1361.15 295.67C1361.53 296.471 1361.76 297.438 1361.84 298.57C1361.93 299.693 1361.85 300.948 1361.61 302.335L1354.61 302.32C1354.68 303.16 1354.84 303.868 1355.06 304.444C1355.3 305.011 1355.57 305.47 1355.88 305.821C1356.2 306.173 1356.55 306.427 1356.92 306.583C1357.29 306.729 1357.66 306.803 1358.03 306.803C1358.26 306.803 1358.48 306.778 1358.71 306.729C1358.94 306.681 1359.16 306.617 1359.37 306.539C1359.58 306.461 1359.78 306.373 1359.95 306.275C1360.13 306.178 1360.28 306.085 1360.39 305.997L1361.39 308.224C1361.17 308.36 1360.93 308.492 1360.64 308.619C1360.36 308.746 1360.06 308.858 1359.73 308.956C1359.42 309.054 1359.09 309.132 1358.74 309.19C1358.4 309.249 1358.06 309.278 1357.73 309.278ZM1359.21 299.874C1359.26 299.054 1359.24 298.38 1359.15 297.853C1359.07 297.315 1358.94 296.891 1358.77 296.578C1358.6 296.256 1358.4 296.036 1358.15 295.919C1357.91 295.792 1357.65 295.729 1357.38 295.729C1356.67 295.729 1356.07 296.08 1355.56 296.783C1355.06 297.477 1354.75 298.507 1354.62 299.874H1359.21ZM1365.65 305.924C1366.03 306.178 1366.45 306.383 1366.91 306.539C1367.37 306.686 1367.83 306.759 1368.29 306.759C1368.87 306.759 1369.35 306.603 1369.71 306.29C1370.08 305.978 1370.27 305.558 1370.27 305.03C1370.27 304.757 1370.21 304.508 1370.1 304.283C1370 304.049 1369.86 303.824 1369.68 303.609C1369.5 303.395 1369.3 303.189 1369.06 302.994C1368.84 302.799 1368.61 302.604 1368.36 302.408L1367.37 301.617C1366.54 300.973 1365.92 300.294 1365.52 299.581C1365.12 298.858 1364.92 298.082 1364.92 297.252C1364.92 296.705 1365.03 296.188 1365.24 295.699C1365.46 295.201 1365.76 294.767 1366.15 294.396C1366.54 294.015 1367 293.717 1367.54 293.502C1368.09 293.277 1368.69 293.165 1369.34 293.165C1369.91 293.165 1370.46 293.229 1370.98 293.355C1371.51 293.473 1372.05 293.673 1372.61 293.956L1371.53 296.388C1371.16 296.124 1370.79 295.934 1370.41 295.816C1370.04 295.699 1369.67 295.641 1369.28 295.641C1369.01 295.641 1368.77 295.685 1368.55 295.772C1368.34 295.851 1368.16 295.963 1368.01 296.109C1367.86 296.246 1367.75 296.407 1367.67 296.593C1367.6 296.769 1367.56 296.959 1367.56 297.164C1367.56 297.496 1367.66 297.823 1367.88 298.146C1368.09 298.468 1368.47 298.849 1369.01 299.288L1370.15 300.226C1370.66 300.646 1371.09 301.051 1371.44 301.441C1371.8 301.822 1372.09 302.203 1372.3 302.584C1372.53 302.965 1372.69 303.355 1372.79 303.756C1372.89 304.156 1372.95 304.576 1372.95 305.016C1372.95 305.621 1372.82 306.183 1372.58 306.7C1372.35 307.218 1372.02 307.667 1371.6 308.048C1371.18 308.429 1370.68 308.727 1370.1 308.941C1369.53 309.156 1368.9 309.264 1368.23 309.264C1367.5 309.264 1366.84 309.166 1366.25 308.971C1365.68 308.775 1365.14 308.526 1364.64 308.224L1365.65 305.924ZM1382.15 295.904H1380.99V293.443H1382.15V288.258H1384.75V293.443H1387.24V295.904H1384.75V302.848C1384.75 303.434 1384.8 303.946 1384.89 304.386C1384.98 304.825 1385.14 305.201 1385.35 305.514C1385.57 305.816 1385.85 306.061 1386.19 306.246C1386.53 306.432 1386.95 306.568 1387.45 306.656V309.264C1385.67 309.186 1384.34 308.624 1383.46 307.579C1382.59 306.524 1382.15 304.938 1382.15 302.818V295.904ZM1395.72 309.278C1394.99 309.278 1394.29 309.112 1393.62 308.78C1392.94 308.448 1392.34 307.945 1391.81 307.271C1391.3 306.598 1390.88 305.758 1390.57 304.752C1390.26 303.746 1390.1 302.569 1390.1 301.222C1390.1 299.874 1390.26 298.697 1390.57 297.691C1390.88 296.686 1391.3 295.846 1391.81 295.172C1392.34 294.498 1392.94 293.995 1393.62 293.663C1394.29 293.331 1394.99 293.165 1395.72 293.165C1396.46 293.165 1397.16 293.331 1397.83 293.663C1398.51 293.995 1399.1 294.498 1399.62 295.172C1400.15 295.846 1400.57 296.686 1400.88 297.691C1401.19 298.697 1401.35 299.874 1401.35 301.222C1401.35 302.569 1401.19 303.746 1400.88 304.752C1400.57 305.758 1400.15 306.598 1399.62 307.271C1399.1 307.945 1398.51 308.448 1397.83 308.78C1397.16 309.112 1396.46 309.278 1395.72 309.278ZM1395.72 306.715C1396.08 306.715 1396.42 306.622 1396.77 306.437C1397.11 306.241 1397.41 305.929 1397.69 305.499C1397.97 305.069 1398.2 304.503 1398.36 303.8C1398.54 303.097 1398.63 302.237 1398.63 301.222C1398.63 300.206 1398.54 299.352 1398.36 298.658C1398.2 297.955 1397.97 297.389 1397.69 296.959C1397.41 296.52 1397.11 296.207 1396.77 296.021C1396.42 295.826 1396.08 295.729 1395.72 295.729C1395.37 295.729 1395.03 295.826 1394.68 296.021C1394.34 296.207 1394.03 296.52 1393.75 296.959C1393.47 297.389 1393.25 297.955 1393.07 298.658C1392.91 299.352 1392.82 300.206 1392.82 301.222C1392.82 302.237 1392.91 303.097 1393.07 303.8C1393.25 304.503 1393.47 305.069 1393.75 305.499C1394.03 305.929 1394.34 306.241 1394.68 306.437C1395.03 306.622 1395.37 306.715 1395.72 306.715ZM1232.03 351.186H1229.42V330.15L1231.44 331.146C1231.81 330.834 1232.22 330.595 1232.67 330.429C1233.12 330.253 1233.61 330.165 1234.12 330.165C1234.88 330.165 1235.59 330.321 1236.26 330.634C1236.95 330.946 1237.54 331.43 1238.05 332.084C1238.56 332.738 1238.96 333.573 1239.25 334.589C1239.55 335.604 1239.7 336.815 1239.7 338.222C1239.7 339.628 1239.55 340.839 1239.25 341.854C1238.96 342.87 1238.56 343.705 1238.05 344.359C1237.54 345.014 1236.95 345.497 1236.26 345.81C1235.59 346.122 1234.88 346.278 1234.12 346.278C1233.74 346.278 1233.38 346.229 1233.02 346.132C1232.67 346.034 1232.34 345.897 1232.03 345.722V351.186ZM1232.03 343.085C1232.28 343.319 1232.57 343.5 1232.89 343.627C1233.22 343.754 1233.58 343.817 1233.95 343.817C1234.35 343.817 1234.73 343.729 1235.1 343.554C1235.48 343.378 1235.8 343.08 1236.09 342.66C1236.38 342.23 1236.61 341.659 1236.79 340.946C1236.97 340.224 1237.05 339.315 1237.05 338.222C1237.05 337.128 1236.97 336.225 1236.79 335.512C1236.61 334.789 1236.38 334.218 1236.09 333.798C1235.8 333.368 1235.48 333.065 1235.1 332.89C1234.73 332.714 1234.35 332.626 1233.95 332.626C1233.2 332.626 1232.56 332.875 1232.03 333.373V343.085ZM1243.28 330.165L1245.49 331.703C1246.1 331.234 1246.75 330.868 1247.44 330.604C1248.13 330.331 1248.85 330.194 1249.59 330.194V332.919C1248.81 332.919 1248.12 333.002 1247.51 333.168C1246.92 333.334 1246.4 333.651 1245.96 334.12V346H1243.28V330.165ZM1251.94 341.137C1251.94 339.555 1252.49 338.31 1253.61 337.401C1254.73 336.493 1256.38 335.985 1258.56 335.878V335.57C1258.56 334.652 1258.34 333.935 1257.9 333.417C1257.47 332.899 1256.88 332.641 1256.13 332.641C1255.73 332.641 1255.33 332.714 1254.91 332.86C1254.5 332.997 1254.09 333.183 1253.68 333.417L1252.68 331.073C1253.3 330.761 1253.94 330.531 1254.62 330.385C1255.29 330.238 1255.9 330.165 1256.45 330.165C1257.15 330.165 1257.79 330.287 1258.37 330.531C1258.94 330.775 1259.44 331.127 1259.85 331.586C1260.26 332.035 1260.57 332.587 1260.8 333.241C1261.02 333.896 1261.14 334.638 1261.14 335.468V346.278L1259.22 345.341C1258.85 345.634 1258.43 345.863 1257.97 346.029C1257.52 346.195 1257.03 346.278 1256.51 346.278C1255.84 346.278 1255.23 346.146 1254.66 345.883C1254.1 345.609 1253.62 345.243 1253.21 344.784C1252.81 344.325 1252.5 343.783 1252.27 343.158C1252.05 342.533 1251.94 341.859 1251.94 341.137ZM1254.59 341.181C1254.59 341.542 1254.64 341.879 1254.75 342.191C1254.86 342.494 1255.01 342.763 1255.2 342.997C1255.4 343.222 1255.63 343.397 1255.91 343.524C1256.18 343.651 1256.48 343.715 1256.81 343.715C1257.16 343.715 1257.48 343.651 1257.8 343.524C1258.11 343.397 1258.36 343.236 1258.56 343.041V338.222C1257.93 338.212 1257.38 338.275 1256.89 338.412C1256.4 338.539 1255.98 338.734 1255.64 338.998C1255.3 339.252 1255.04 339.564 1254.85 339.936C1254.68 340.297 1254.59 340.712 1254.59 341.181ZM1270.32 346.278C1269.51 346.278 1268.76 346.112 1268.06 345.78C1267.37 345.448 1266.77 344.945 1266.25 344.271C1265.74 343.598 1265.34 342.758 1265.05 341.752C1264.76 340.746 1264.62 339.569 1264.62 338.222C1264.62 336.874 1264.76 335.697 1265.05 334.691C1265.34 333.686 1265.74 332.846 1266.25 332.172C1266.77 331.498 1267.37 330.995 1268.06 330.663C1268.76 330.331 1269.51 330.165 1270.32 330.165C1270.92 330.165 1271.49 330.258 1272.03 330.443C1272.59 330.629 1273.08 330.849 1273.51 331.103L1272.41 333.373C1272.13 333.207 1271.8 333.061 1271.43 332.934C1271.07 332.797 1270.7 332.729 1270.32 332.729C1269.94 332.729 1269.57 332.826 1269.21 333.021C1268.85 333.217 1268.52 333.534 1268.22 333.974C1267.94 334.413 1267.71 334.984 1267.54 335.688C1267.37 336.381 1267.29 337.226 1267.29 338.222C1267.29 339.218 1267.37 340.067 1267.54 340.771C1267.71 341.464 1267.94 342.03 1268.22 342.47C1268.52 342.909 1268.85 343.227 1269.21 343.422C1269.57 343.617 1269.94 343.715 1270.32 343.715C1270.7 343.715 1271.07 343.651 1271.43 343.524C1271.8 343.388 1272.13 343.236 1272.41 343.07L1273.51 345.341C1273.08 345.595 1272.59 345.814 1272.03 346C1271.49 346.186 1270.92 346.278 1270.32 346.278ZM1277.06 332.904H1275.9V330.443H1277.06V325.258H1279.67V330.443H1282.16V332.904H1279.67V339.848C1279.67 340.434 1279.71 340.946 1279.8 341.386C1279.89 341.825 1280.05 342.201 1280.27 342.514C1280.48 342.816 1280.76 343.061 1281.1 343.246C1281.44 343.432 1281.86 343.568 1282.36 343.656V346.264C1280.58 346.186 1279.26 345.624 1278.38 344.579C1277.5 343.524 1277.06 341.938 1277.06 339.818V332.904ZM1287.62 327.777C1287.34 327.777 1287.08 327.729 1286.84 327.631C1286.61 327.533 1286.41 327.401 1286.24 327.235C1286.08 327.069 1285.95 326.879 1285.86 326.664C1285.77 326.439 1285.73 326.205 1285.73 325.961C1285.73 325.717 1285.77 325.487 1285.86 325.272C1285.95 325.048 1286.08 324.853 1286.24 324.687C1286.41 324.521 1286.61 324.389 1286.84 324.291C1287.08 324.193 1287.34 324.145 1287.62 324.145C1287.9 324.145 1288.16 324.193 1288.4 324.291C1288.63 324.389 1288.83 324.521 1289 324.687C1289.16 324.853 1289.29 325.048 1289.38 325.272C1289.47 325.487 1289.51 325.717 1289.51 325.961C1289.51 326.205 1289.47 326.439 1289.38 326.664C1289.29 326.879 1289.16 327.069 1289 327.235C1288.83 327.401 1288.63 327.533 1288.4 327.631C1288.16 327.729 1287.9 327.777 1287.62 327.777ZM1286.23 330.443H1288.84V346H1286.23V330.443ZM1298.5 346.278C1297.69 346.278 1296.94 346.112 1296.25 345.78C1295.55 345.448 1294.95 344.945 1294.43 344.271C1293.92 343.598 1293.52 342.758 1293.23 341.752C1292.95 340.746 1292.81 339.569 1292.81 338.222C1292.81 336.874 1292.95 335.697 1293.23 334.691C1293.52 333.686 1293.92 332.846 1294.43 332.172C1294.95 331.498 1295.55 330.995 1296.25 330.663C1296.94 330.331 1297.69 330.165 1298.5 330.165C1299.1 330.165 1299.67 330.258 1300.22 330.443C1300.77 330.629 1301.27 330.849 1301.7 331.103L1300.6 333.373C1300.31 333.207 1299.99 333.061 1299.62 332.934C1299.26 332.797 1298.88 332.729 1298.5 332.729C1298.12 332.729 1297.75 332.826 1297.39 333.021C1297.03 333.217 1296.7 333.534 1296.41 333.974C1296.13 334.413 1295.9 334.984 1295.72 335.688C1295.55 336.381 1295.47 337.226 1295.47 338.222C1295.47 339.218 1295.55 340.067 1295.72 340.771C1295.9 341.464 1296.13 342.03 1296.41 342.47C1296.7 342.909 1297.03 343.227 1297.39 343.422C1297.75 343.617 1298.12 343.715 1298.5 343.715C1298.88 343.715 1299.26 343.651 1299.62 343.524C1299.99 343.388 1300.31 343.236 1300.6 343.07L1301.7 345.341C1301.27 345.595 1300.77 345.814 1300.22 346C1299.67 346.186 1299.1 346.278 1298.5 346.278ZM1309.8 346.278C1308.96 346.278 1308.18 346.098 1307.47 345.736C1306.77 345.365 1306.15 344.833 1305.62 344.14C1305.1 343.437 1304.7 342.582 1304.41 341.576C1304.11 340.561 1303.97 339.408 1303.97 338.119C1303.97 336.801 1304.12 335.644 1304.42 334.647C1304.72 333.651 1305.13 332.821 1305.64 332.157C1306.15 331.493 1306.75 330.995 1307.41 330.663C1308.08 330.331 1308.78 330.165 1309.5 330.165C1310.34 330.165 1311.08 330.385 1311.72 330.824C1312.35 331.254 1312.85 331.869 1313.22 332.67C1313.6 333.471 1313.83 334.438 1313.91 335.57C1314 336.693 1313.92 337.948 1313.68 339.335L1306.68 339.32C1306.76 340.16 1306.91 340.868 1307.13 341.444C1307.37 342.011 1307.64 342.47 1307.95 342.821C1308.27 343.173 1308.62 343.427 1308.99 343.583C1309.36 343.729 1309.73 343.803 1310.1 343.803C1310.33 343.803 1310.55 343.778 1310.78 343.729C1311.01 343.681 1311.23 343.617 1311.44 343.539C1311.65 343.461 1311.85 343.373 1312.02 343.275C1312.2 343.178 1312.35 343.085 1312.46 342.997L1313.46 345.224C1313.24 345.36 1313 345.492 1312.71 345.619C1312.43 345.746 1312.13 345.858 1311.8 345.956C1311.49 346.054 1311.16 346.132 1310.81 346.19C1310.47 346.249 1310.13 346.278 1309.8 346.278ZM1311.28 336.874C1311.33 336.054 1311.31 335.38 1311.22 334.853C1311.14 334.315 1311.01 333.891 1310.84 333.578C1310.67 333.256 1310.47 333.036 1310.22 332.919C1309.98 332.792 1309.72 332.729 1309.45 332.729C1308.74 332.729 1308.14 333.08 1307.63 333.783C1307.13 334.477 1306.82 335.507 1306.69 336.874H1311.28ZM1322.56 330.165L1324.69 331.688C1324.91 331.483 1325.15 331.293 1325.41 331.117C1325.68 330.932 1325.95 330.775 1326.25 330.648C1326.54 330.512 1326.84 330.404 1327.14 330.326C1327.45 330.248 1327.76 330.209 1328.06 330.209C1328.96 330.209 1329.73 330.375 1330.36 330.707C1331.01 331.029 1331.53 331.508 1331.92 332.143C1332.12 331.879 1332.37 331.63 1332.65 331.396C1332.94 331.161 1333.25 330.956 1333.59 330.78C1333.92 330.604 1334.27 330.468 1334.63 330.37C1334.99 330.263 1335.34 330.209 1335.7 330.209C1337.26 330.209 1338.43 330.702 1339.23 331.688C1340.02 332.665 1340.41 334.076 1340.41 335.922V346H1337.81V335.951C1337.81 334.945 1337.6 334.179 1337.19 333.651C1336.79 333.124 1336.19 332.86 1335.4 332.86C1334.96 332.86 1334.51 332.963 1334.04 333.168C1333.58 333.373 1333.16 333.695 1332.78 334.135V346H1330.17V335.951C1330.17 334.945 1329.97 334.179 1329.56 333.651C1329.16 333.124 1328.56 332.86 1327.77 332.86C1327.33 332.86 1326.88 332.963 1326.42 333.168C1325.96 333.373 1325.54 333.69 1325.16 334.12V346H1322.56V330.165ZM1345.16 349.076C1345.54 348.783 1345.87 348.495 1346.15 348.212C1346.44 347.929 1346.68 347.641 1346.87 347.348C1347.07 347.055 1347.22 346.742 1347.34 346.41C1347.46 346.088 1347.54 345.731 1347.58 345.341L1343.03 330.443H1345.82L1348.02 338.354L1348.73 341.649L1349.45 338.368L1351.47 330.443H1354.26L1350.45 344.389C1350.26 345.053 1350.09 345.644 1349.92 346.161C1349.75 346.688 1349.58 347.157 1349.41 347.567C1349.23 347.987 1349.05 348.358 1348.85 348.681C1348.66 349.013 1348.45 349.315 1348.21 349.589C1347.97 349.872 1347.71 350.141 1347.41 350.395C1347.13 350.658 1346.8 350.922 1346.43 351.186L1345.16 349.076ZM1360.44 330.443H1363.22L1365.02 337.211L1365.64 339.818L1366.49 337.211L1368.02 333.08L1369.65 337.211L1370.56 339.818L1371.13 337.24L1372.83 330.443H1375.61L1371.04 346.894L1369.06 341.957L1368.02 339.071L1366.98 341.942L1365.01 346.894L1360.44 330.443ZM1383.27 346.278C1382.43 346.278 1381.66 346.098 1380.94 345.736C1380.24 345.365 1379.63 344.833 1379.1 344.14C1378.58 343.437 1378.18 342.582 1377.88 341.576C1377.59 340.561 1377.44 339.408 1377.44 338.119C1377.44 336.801 1377.6 335.644 1377.9 334.647C1378.2 333.651 1378.61 332.821 1379.11 332.157C1379.63 331.493 1380.22 330.995 1380.89 330.663C1381.56 330.331 1382.26 330.165 1382.98 330.165C1383.82 330.165 1384.56 330.385 1385.19 330.824C1385.83 331.254 1386.33 331.869 1386.7 332.67C1387.07 333.471 1387.3 334.438 1387.39 335.57C1387.48 336.693 1387.4 337.948 1387.16 339.335L1380.15 339.32C1380.23 340.16 1380.38 340.868 1380.61 341.444C1380.84 342.011 1381.12 342.47 1381.43 342.821C1381.75 343.173 1382.1 343.427 1382.47 343.583C1382.84 343.729 1383.21 343.803 1383.58 343.803C1383.81 343.803 1384.03 343.778 1384.26 343.729C1384.49 343.681 1384.71 343.617 1384.91 343.539C1385.13 343.461 1385.32 343.373 1385.5 343.275C1385.68 343.178 1385.82 343.085 1385.94 342.997L1386.94 345.224C1386.72 345.36 1386.47 345.492 1386.19 345.619C1385.91 345.746 1385.6 345.858 1385.28 345.956C1384.97 346.054 1384.64 346.132 1384.28 346.19C1383.94 346.249 1383.61 346.278 1383.27 346.278ZM1384.75 336.874C1384.8 336.054 1384.78 335.38 1384.69 334.853C1384.62 334.315 1384.49 333.891 1384.31 333.578C1384.15 333.256 1383.94 333.036 1383.7 332.919C1383.45 332.792 1383.2 332.729 1382.92 332.729C1382.22 332.729 1381.61 333.08 1381.11 333.783C1380.61 334.477 1380.3 335.507 1380.17 336.874H1384.75ZM1390.88 322.665H1393.48V330.736C1393.8 330.551 1394.13 330.409 1394.48 330.312C1394.83 330.214 1395.2 330.165 1395.58 330.165C1396.33 330.165 1397.04 330.321 1397.72 330.634C1398.4 330.946 1399 331.43 1399.5 332.084C1400.01 332.738 1400.41 333.573 1400.71 334.589C1401.01 335.604 1401.16 336.815 1401.16 338.222C1401.16 339.628 1401.01 340.839 1400.71 341.854C1400.41 342.87 1400.01 343.705 1399.5 344.359C1399 345.014 1398.4 345.497 1397.72 345.81C1397.04 346.122 1396.33 346.278 1395.58 346.278C1394.4 346.278 1393.4 345.858 1392.59 345.019L1390.88 346.249V322.665ZM1393.48 343.085C1393.74 343.319 1394.03 343.5 1394.35 343.627C1394.68 343.754 1395.03 343.817 1395.4 343.817C1395.8 343.817 1396.19 343.729 1396.56 343.554C1396.93 343.378 1397.26 343.08 1397.54 342.66C1397.83 342.23 1398.07 341.659 1398.24 340.946C1398.42 340.224 1398.51 339.315 1398.51 338.222C1398.51 337.128 1398.42 336.225 1398.24 335.512C1398.07 334.789 1397.83 334.218 1397.54 333.798C1397.26 333.368 1396.93 333.065 1396.56 332.89C1396.19 332.714 1395.8 332.626 1395.4 332.626C1394.65 332.626 1394.01 332.875 1393.48 333.373V343.085ZM1243.1 383.278C1242.35 383.278 1241.63 383.122 1240.95 382.81C1240.28 382.497 1239.68 382.014 1239.18 381.359C1238.67 380.705 1238.26 379.87 1237.96 378.854C1237.67 377.839 1237.52 376.628 1237.52 375.222C1237.52 373.815 1237.67 372.604 1237.96 371.589C1238.26 370.573 1238.67 369.738 1239.18 369.084C1239.68 368.43 1240.28 367.946 1240.95 367.634C1241.63 367.321 1242.35 367.165 1243.1 367.165C1243.48 367.165 1243.85 367.214 1244.2 367.312C1244.55 367.409 1244.89 367.551 1245.2 367.736V359.665H1247.81V383.337L1246.03 382.077C1245.64 382.468 1245.2 382.766 1244.7 382.971C1244.2 383.176 1243.67 383.278 1243.1 383.278ZM1243.28 380.817C1243.65 380.817 1244 380.754 1244.32 380.627C1244.64 380.5 1244.93 380.319 1245.2 380.085V370.373C1244.65 369.875 1244.01 369.626 1243.28 369.626C1242.88 369.626 1242.49 369.714 1242.12 369.89C1241.75 370.065 1241.42 370.368 1241.13 370.798C1240.84 371.218 1240.61 371.789 1240.44 372.512C1240.26 373.225 1240.17 374.128 1240.17 375.222C1240.17 376.315 1240.26 377.224 1240.44 377.946C1240.61 378.659 1240.84 379.23 1241.13 379.66C1241.42 380.08 1241.75 380.378 1242.12 380.554C1242.49 380.729 1242.88 380.817 1243.28 380.817ZM1257.06 383.278C1256.22 383.278 1255.45 383.098 1254.73 382.736C1254.03 382.365 1253.42 381.833 1252.89 381.14C1252.37 380.437 1251.97 379.582 1251.67 378.576C1251.38 377.561 1251.23 376.408 1251.23 375.119C1251.23 373.801 1251.38 372.644 1251.69 371.647C1251.99 370.651 1252.39 369.821 1252.9 369.157C1253.42 368.493 1254.01 367.995 1254.68 367.663C1255.35 367.331 1256.05 367.165 1256.77 367.165C1257.61 367.165 1258.35 367.385 1258.98 367.824C1259.62 368.254 1260.12 368.869 1260.49 369.67C1260.86 370.471 1261.09 371.438 1261.18 372.57C1261.27 373.693 1261.19 374.948 1260.94 376.335L1253.94 376.32C1254.02 377.16 1254.17 377.868 1254.4 378.444C1254.63 379.011 1254.9 379.47 1255.22 379.821C1255.54 380.173 1255.89 380.427 1256.26 380.583C1256.63 380.729 1257 380.803 1257.37 380.803C1257.6 380.803 1257.82 380.778 1258.04 380.729C1258.28 380.681 1258.5 380.617 1258.7 380.539C1258.92 380.461 1259.11 380.373 1259.29 380.275C1259.47 380.178 1259.61 380.085 1259.73 379.997L1260.72 382.224C1260.51 382.36 1260.26 382.492 1259.98 382.619C1259.69 382.746 1259.39 382.858 1259.07 382.956C1258.76 383.054 1258.43 383.132 1258.07 383.19C1257.73 383.249 1257.39 383.278 1257.06 383.278ZM1258.54 373.874C1258.59 373.054 1258.57 372.38 1258.48 371.853C1258.41 371.315 1258.28 370.891 1258.1 370.578C1257.94 370.256 1257.73 370.036 1257.49 369.919C1257.24 369.792 1256.98 369.729 1256.71 369.729C1256.01 369.729 1255.4 370.08 1254.89 370.783C1254.4 371.477 1254.08 372.507 1253.96 373.874H1258.54ZM1264.99 379.924C1265.37 380.178 1265.79 380.383 1266.25 380.539C1266.71 380.686 1267.17 380.759 1267.62 380.759C1268.21 380.759 1268.68 380.603 1269.05 380.29C1269.42 379.978 1269.6 379.558 1269.6 379.03C1269.6 378.757 1269.55 378.508 1269.44 378.283C1269.33 378.049 1269.19 377.824 1269.02 377.609C1268.84 377.395 1268.64 377.189 1268.4 376.994C1268.18 376.799 1267.94 376.604 1267.7 376.408L1266.7 375.617C1265.87 374.973 1265.26 374.294 1264.86 373.581C1264.46 372.858 1264.26 372.082 1264.26 371.252C1264.26 370.705 1264.36 370.188 1264.58 369.699C1264.79 369.201 1265.1 368.767 1265.49 368.396C1265.88 368.015 1266.34 367.717 1266.88 367.502C1267.42 367.277 1268.02 367.165 1268.68 367.165C1269.25 367.165 1269.79 367.229 1270.32 367.355C1270.85 367.473 1271.39 367.673 1271.95 367.956L1270.86 370.388C1270.5 370.124 1270.13 369.934 1269.75 369.816C1269.38 369.699 1269 369.641 1268.62 369.641C1268.35 369.641 1268.1 369.685 1267.89 369.772C1267.67 369.851 1267.49 369.963 1267.35 370.109C1267.2 370.246 1267.09 370.407 1267.01 370.593C1266.93 370.769 1266.89 370.959 1266.89 371.164C1266.89 371.496 1267 371.823 1267.21 372.146C1267.43 372.468 1267.81 372.849 1268.34 373.288L1269.48 374.226C1269.99 374.646 1270.42 375.051 1270.77 375.441C1271.14 375.822 1271.42 376.203 1271.64 376.584C1271.86 376.965 1272.02 377.355 1272.12 377.756C1272.23 378.156 1272.28 378.576 1272.28 379.016C1272.28 379.621 1272.16 380.183 1271.92 380.7C1271.68 381.218 1271.35 381.667 1270.93 382.048C1270.52 382.429 1270.02 382.727 1269.44 382.941C1268.86 383.156 1268.24 383.264 1267.57 383.264C1266.83 383.264 1266.17 383.166 1265.59 382.971C1265.01 382.775 1264.47 382.526 1263.98 382.224L1264.99 379.924ZM1277.6 364.777C1277.32 364.777 1277.06 364.729 1276.82 364.631C1276.59 364.533 1276.39 364.401 1276.22 364.235C1276.06 364.069 1275.93 363.879 1275.84 363.664C1275.75 363.439 1275.71 363.205 1275.71 362.961C1275.71 362.717 1275.75 362.487 1275.84 362.272C1275.93 362.048 1276.06 361.853 1276.22 361.687C1276.39 361.521 1276.59 361.389 1276.82 361.291C1277.06 361.193 1277.32 361.145 1277.6 361.145C1277.88 361.145 1278.14 361.193 1278.38 361.291C1278.61 361.389 1278.81 361.521 1278.98 361.687C1279.14 361.853 1279.27 362.048 1279.36 362.272C1279.45 362.487 1279.49 362.717 1279.49 362.961C1279.49 363.205 1279.45 363.439 1279.36 363.664C1279.27 363.879 1279.14 364.069 1278.98 364.235C1278.81 364.401 1278.61 364.533 1278.38 364.631C1278.14 364.729 1277.88 364.777 1277.6 364.777ZM1276.21 367.443H1278.82V383H1276.21V367.443ZM1286.2 386.223C1286.84 385.959 1287.4 385.681 1287.87 385.388C1288.35 385.104 1288.75 384.802 1289.08 384.479C1289.42 384.157 1289.68 383.815 1289.88 383.454C1290.08 383.093 1290.23 382.707 1290.33 382.297C1289.77 382.57 1289.13 382.707 1288.41 382.707C1287.69 382.707 1286.99 382.556 1286.33 382.253C1285.68 381.95 1285.1 381.481 1284.59 380.847C1284.09 380.212 1283.69 379.406 1283.39 378.43C1283.08 377.443 1282.93 376.271 1282.93 374.914C1282.93 373.557 1283.08 372.39 1283.39 371.413C1283.69 370.427 1284.09 369.616 1284.59 368.981C1285.1 368.347 1285.68 367.878 1286.33 367.575C1286.99 367.272 1287.69 367.121 1288.41 367.121C1289.49 367.121 1290.42 367.443 1291.18 368.088L1293.11 367.15V380.612C1293.11 381.491 1293.01 382.307 1292.79 383.059C1292.59 383.82 1292.25 384.523 1291.79 385.168C1291.35 385.812 1290.76 386.398 1290.05 386.926C1289.34 387.453 1288.48 387.922 1287.47 388.332L1286.2 386.223ZM1288.69 380.246C1289.03 380.246 1289.35 380.192 1289.66 380.085C1289.97 379.968 1290.25 379.807 1290.51 379.602V370.241C1289.98 369.802 1289.37 369.582 1288.69 369.582C1288.29 369.582 1287.9 369.665 1287.53 369.831C1287.16 369.997 1286.83 370.285 1286.54 370.695C1286.25 371.105 1286.02 371.652 1285.85 372.336C1285.67 373.02 1285.58 373.879 1285.58 374.914C1285.58 375.949 1285.67 376.809 1285.85 377.492C1286.02 378.176 1286.25 378.723 1286.54 379.133C1286.83 379.543 1287.16 379.831 1287.53 379.997C1287.9 380.163 1288.29 380.246 1288.69 380.246ZM1297.36 367.165L1299.56 368.732C1299.77 368.518 1300.02 368.317 1300.29 368.132C1300.56 367.946 1300.85 367.785 1301.15 367.648C1301.46 367.512 1301.77 367.404 1302.08 367.326C1302.39 367.248 1302.7 367.209 1303.02 367.209C1304.58 367.209 1305.75 367.702 1306.55 368.688C1307.34 369.665 1307.73 371.076 1307.73 372.922V383H1305.12V372.951C1305.12 371.945 1304.92 371.179 1304.51 370.651C1304.11 370.124 1303.51 369.86 1302.72 369.86C1302.25 369.86 1301.77 369.978 1301.29 370.212C1300.81 370.437 1300.37 370.793 1299.97 371.281V383H1297.36V367.165ZM1317.46 379.924C1317.84 380.178 1318.26 380.383 1318.72 380.539C1319.18 380.686 1319.64 380.759 1320.1 380.759C1320.68 380.759 1321.15 380.603 1321.52 380.29C1321.89 379.978 1322.07 379.558 1322.07 379.03C1322.07 378.757 1322.02 378.508 1321.91 378.283C1321.8 378.049 1321.66 377.824 1321.49 377.609C1321.31 377.395 1321.11 377.189 1320.87 376.994C1320.65 376.799 1320.41 376.604 1320.17 376.408L1319.17 375.617C1318.34 374.973 1317.73 374.294 1317.33 373.581C1316.93 372.858 1316.73 372.082 1316.73 371.252C1316.73 370.705 1316.83 370.188 1317.05 369.699C1317.26 369.201 1317.57 368.767 1317.96 368.396C1318.35 368.015 1318.81 367.717 1319.35 367.502C1319.89 367.277 1320.5 367.165 1321.15 367.165C1321.72 367.165 1322.26 367.229 1322.79 367.355C1323.32 367.473 1323.86 367.673 1324.42 367.956L1323.33 370.388C1322.97 370.124 1322.6 369.934 1322.22 369.816C1321.85 369.699 1321.47 369.641 1321.09 369.641C1320.82 369.641 1320.57 369.685 1320.36 369.772C1320.14 369.851 1319.96 369.963 1319.82 370.109C1319.67 370.246 1319.56 370.407 1319.48 370.593C1319.4 370.769 1319.36 370.959 1319.36 371.164C1319.36 371.496 1319.47 371.823 1319.68 372.146C1319.9 372.468 1320.28 372.849 1320.81 373.288L1321.96 374.226C1322.46 374.646 1322.89 375.051 1323.24 375.441C1323.61 375.822 1323.89 376.203 1324.11 376.584C1324.33 376.965 1324.49 377.355 1324.59 377.756C1324.7 378.156 1324.75 378.576 1324.75 379.016C1324.75 379.621 1324.63 380.183 1324.39 380.7C1324.15 381.218 1323.83 381.667 1323.41 382.048C1322.99 382.429 1322.49 382.727 1321.91 382.941C1321.34 383.156 1320.71 383.264 1320.04 383.264C1319.3 383.264 1318.64 383.166 1318.06 382.971C1317.48 382.775 1316.95 382.526 1316.45 382.224L1317.46 379.924ZM1328.33 359.665H1330.93V374.636H1330.95L1335.27 367.443H1338.05L1333.44 375.017L1338.83 383H1335.61L1330.93 375.939V383H1328.33V359.665ZM1343.52 364.777C1343.23 364.777 1342.98 364.729 1342.74 364.631C1342.51 364.533 1342.31 364.401 1342.14 364.235C1341.97 364.069 1341.85 363.879 1341.76 363.664C1341.67 363.439 1341.63 363.205 1341.63 362.961C1341.63 362.717 1341.67 362.487 1341.76 362.272C1341.85 362.048 1341.97 361.853 1342.14 361.687C1342.31 361.521 1342.51 361.389 1342.74 361.291C1342.98 361.193 1343.23 361.145 1343.52 361.145C1343.8 361.145 1344.06 361.193 1344.29 361.291C1344.53 361.389 1344.73 361.521 1344.89 361.687C1345.06 361.853 1345.19 362.048 1345.28 362.272C1345.36 362.487 1345.41 362.717 1345.41 362.961C1345.41 363.205 1345.36 363.439 1345.28 363.664C1345.19 363.879 1345.06 364.069 1344.89 364.235C1344.73 364.401 1344.53 364.533 1344.29 364.631C1344.06 364.729 1343.8 364.777 1343.52 364.777ZM1342.13 367.443H1344.73V383H1342.13V367.443ZM1349.51 359.665H1352.12V383H1349.51V359.665ZM1356.39 359.665H1359V383H1356.39V359.665ZM1363.6 379.924C1363.98 380.178 1364.4 380.383 1364.86 380.539C1365.32 380.686 1365.78 380.759 1366.24 380.759C1366.82 380.759 1367.3 380.603 1367.66 380.29C1368.03 379.978 1368.22 379.558 1368.22 379.03C1368.22 378.757 1368.16 378.508 1368.05 378.283C1367.95 378.049 1367.81 377.824 1367.63 377.609C1367.45 377.395 1367.25 377.189 1367.01 376.994C1366.79 376.799 1366.56 376.604 1366.31 376.408L1365.31 375.617C1364.48 374.973 1363.87 374.294 1363.47 373.581C1363.07 372.858 1362.87 372.082 1362.87 371.252C1362.87 370.705 1362.98 370.188 1363.19 369.699C1363.41 369.201 1363.71 368.767 1364.1 368.396C1364.49 368.015 1364.95 367.717 1365.49 367.502C1366.04 367.277 1366.64 367.165 1367.29 367.165C1367.86 367.165 1368.41 367.229 1368.93 367.355C1369.46 367.473 1370 367.673 1370.56 367.956L1369.47 370.388C1369.11 370.124 1368.74 369.934 1368.36 369.816C1367.99 369.699 1367.61 369.641 1367.23 369.641C1366.96 369.641 1366.72 369.685 1366.5 369.772C1366.29 369.851 1366.11 369.963 1365.96 370.109C1365.81 370.246 1365.7 370.407 1365.62 370.593C1365.54 370.769 1365.51 370.959 1365.51 371.164C1365.51 371.496 1365.61 371.823 1365.83 372.146C1366.04 372.468 1366.42 372.849 1366.96 373.288L1368.1 374.226C1368.61 374.646 1369.04 375.051 1369.39 375.441C1369.75 375.822 1370.04 376.203 1370.25 376.584C1370.48 376.965 1370.64 377.355 1370.73 377.756C1370.84 378.156 1370.9 378.576 1370.9 379.016C1370.9 379.621 1370.77 380.183 1370.53 380.7C1370.3 381.218 1369.97 381.667 1369.55 382.048C1369.13 382.429 1368.63 382.727 1368.05 382.941C1367.48 383.156 1366.85 383.264 1366.18 383.264C1365.45 383.264 1364.79 383.166 1364.2 382.971C1363.63 382.775 1363.09 382.526 1362.59 382.224L1363.6 379.924ZM1386.82 374.006C1386.51 374.006 1386.22 373.952 1385.97 373.845C1385.72 373.737 1385.52 373.596 1385.34 373.42C1385.16 373.244 1385.03 373.039 1384.93 372.805C1384.83 372.57 1384.78 372.321 1384.78 372.058C1384.78 371.794 1384.83 371.545 1384.93 371.311C1385.03 371.076 1385.16 370.871 1385.34 370.695C1385.52 370.51 1385.72 370.363 1385.97 370.256C1386.22 370.148 1386.51 370.095 1386.82 370.095C1387.12 370.095 1387.4 370.148 1387.65 370.256C1387.91 370.363 1388.12 370.51 1388.3 370.695C1388.47 370.871 1388.61 371.076 1388.71 371.311C1388.81 371.545 1388.85 371.794 1388.85 372.058C1388.85 372.321 1388.81 372.57 1388.71 372.805C1388.61 373.039 1388.47 373.244 1388.3 373.42C1388.12 373.596 1387.91 373.737 1387.65 373.845C1387.4 373.952 1387.12 374.006 1386.82 374.006ZM1384.78 381.315C1384.78 381.052 1384.83 380.803 1384.93 380.568C1385.03 380.334 1385.16 380.129 1385.34 379.953C1385.52 379.768 1385.72 379.621 1385.97 379.514C1386.22 379.406 1386.51 379.353 1386.82 379.353C1387.12 379.353 1387.4 379.406 1387.65 379.514C1387.91 379.621 1388.12 379.768 1388.3 379.953C1388.47 380.129 1388.61 380.334 1388.71 380.568C1388.81 380.803 1388.85 381.052 1388.85 381.315C1388.85 381.579 1388.81 381.828 1388.71 382.062C1388.61 382.297 1388.47 382.502 1388.3 382.678C1388.12 382.854 1387.91 382.995 1387.65 383.103C1387.4 383.21 1387.12 383.264 1386.82 383.264C1386.51 383.264 1386.22 383.21 1385.97 383.103C1385.72 382.995 1385.52 382.854 1385.34 382.678C1385.16 382.502 1385.03 382.297 1384.93 382.062C1384.83 381.828 1384.78 381.579 1384.78 381.315ZM1393.67 382.062C1395.22 380.686 1396.4 379.108 1397.22 377.331C1398.04 375.544 1398.45 373.547 1398.45 371.34C1398.45 369.133 1398.04 367.141 1397.22 365.363C1396.4 363.576 1395.22 361.994 1393.67 360.617V357.57C1394.73 358.312 1395.7 359.162 1396.57 360.119C1397.46 361.066 1398.23 362.121 1398.87 363.283C1399.52 364.436 1400.02 365.686 1400.37 367.033C1400.73 368.381 1400.91 369.816 1400.91 371.34C1400.91 372.863 1400.73 374.299 1400.37 375.646C1400.02 376.994 1399.52 378.249 1398.87 379.411C1398.23 380.563 1397.46 381.618 1396.57 382.575C1395.7 383.522 1394.73 384.367 1393.67 385.109V382.062Z" fill="#EDF5E0"/>
<g clip-path="url(#clip1)">
<path d="M429.955 408.005C427.226 403.279 422.981 399.772 417.887 397.979C425.576 392.695 429.506 382.949 426.957 373.436C423.724 361.369 411.275 354.183 399.211 357.416L395.278 358.47C397.713 352.353 399.218 345.923 399.76 339.263C399.936 337.113 398.335 335.228 396.185 335.052C394.033 334.875 392.15 336.478 391.975 338.628C391.329 346.545 389.149 354.094 385.49 361.092L366.369 366.216C366.65 364.454 366.8 362.667 366.8 360.859C366.8 354.586 365.12 350.911 363.496 347.358C361.642 343.301 359.726 339.106 359.726 329.368C359.726 327.811 358.8 326.402 357.371 325.783C355.943 325.165 354.282 325.454 353.146 326.521C349.396 330.042 346.982 333.855 345.441 337.482C344.291 335.883 342.895 334.331 341.202 332.925C337.218 329.618 336.559 326.203 338.853 320.743C339.476 319.258 339.124 317.542 337.967 316.422C336.809 315.303 335.083 315.009 333.619 315.682C325.729 319.312 321.371 324.488 319.02 329.603C319.084 329.193 319.16 328.779 319.25 328.36C319.635 326.56 318.712 324.736 317.033 323.98C315.355 323.224 313.377 323.744 312.286 325.226C302.87 338.007 299.202 347.997 299.202 360.858C299.202 362.666 299.352 364.454 299.632 366.215L280.516 361.093C276.139 352.701 273.829 343.284 273.829 333.749C273.829 323.158 276.55 317.204 279.701 310.309C283.3 302.433 287.306 293.667 288.441 277.041C296.045 286.911 298.789 297.262 299.685 304.832C299.891 306.573 301.233 307.963 302.965 308.232C304.698 308.502 306.397 307.583 307.121 305.987C311.12 297.175 316.616 289.83 323.455 284.153C330.075 278.658 333.898 272.605 335.142 265.646C335.794 261.999 335.714 258.148 334.89 254.018C346.853 261.897 353.752 273.047 355.439 287.268C357.003 300.452 353.334 311.52 353.299 311.624C352.705 313.365 353.406 315.284 354.982 316.233C356.557 317.181 358.581 316.902 359.841 315.562C360.539 314.821 374.139 300.064 375.163 277.713C381.419 287.556 385.588 296.368 388.265 305.255C388.888 307.32 391.066 308.491 393.133 307.868C395.198 307.246 396.368 305.067 395.745 303.002C391.762 289.783 384.816 276.87 373.223 261.132C372.131 259.649 370.153 259.13 368.475 259.886C366.797 260.642 365.873 262.466 366.258 264.266C368.418 274.357 367.538 284.441 363.643 294.285C363.652 291.862 363.533 289.302 363.233 286.654C361.65 272.72 354.58 253.724 329.885 242.361C328.421 241.688 326.695 241.982 325.537 243.102C324.379 244.221 324.027 245.937 324.651 247.423C330.237 260.721 328.387 269.908 318.466 278.143C313.376 282.368 308.952 287.386 305.243 293.134C302.594 284.103 297.422 273.746 287.524 264.453C286.389 263.387 284.728 263.097 283.299 263.716C281.87 264.334 280.945 265.743 280.945 267.301C280.945 288.793 276.7 298.081 272.596 307.063C269.213 314.466 266.018 321.458 266.018 333.75C266.018 342.238 267.637 350.646 270.739 358.474L266.791 357.417C254.725 354.182 242.278 361.37 239.045 373.436C236.496 382.949 240.426 392.695 248.115 397.98C243.021 399.773 238.776 403.28 236.047 408.006C233.021 413.247 232.217 419.352 233.783 425.197C235.35 431.043 239.098 435.929 244.339 438.954C247.83 440.97 251.704 441.999 255.63 441.999C257.597 441.999 259.579 441.74 261.53 441.217L333.002 422.066L404.474 441.217C406.425 441.74 408.406 441.999 410.374 441.999C414.299 441.999 418.174 440.969 421.664 438.954C426.905 435.929 430.654 431.043 432.22 425.197C433.785 419.352 432.981 413.246 429.955 408.005V408.005ZM401.233 364.962C409.137 362.846 417.293 367.552 419.411 375.457C420.438 379.287 419.911 383.287 417.929 386.721C415.946 390.154 412.745 392.61 408.916 393.637L276.032 429.243C278.429 424.335 278.976 418.795 277.548 413.47C276.121 408.143 272.877 403.619 268.349 400.568L401.233 364.962ZM307.013 360.859C307.013 353.391 308.417 347.157 311.873 340.42C313.891 348.348 318.496 353.342 318.784 353.648C320.04 354.984 322.055 355.259 323.629 354.319C325.204 353.379 325.91 351.463 325.33 349.723C325.118 349.087 321.085 336.505 329.814 327.62C330.193 331.927 332.328 335.713 336.212 338.937C341.174 343.055 342.528 349.289 342.889 351.939C342.948 352.971 343.045 353.606 343.064 353.725C343.393 355.754 345.234 357.186 347.285 356.989C349.331 356.797 350.879 355.052 350.824 352.998C350.822 352.885 350.799 352.2 350.661 351.12C350.57 349.006 350.725 344.735 352.827 340.083C353.731 344.784 355.155 347.899 356.391 350.604C357.898 353.903 358.987 356.286 358.987 360.859C358.987 363.475 358.597 366.037 357.84 368.501L333 375.157L308.161 368.501C307.403 366.037 307.013 363.475 307.013 360.859V360.859ZM246.589 375.457C248.707 367.552 256.863 362.844 264.768 364.962L317.908 379.201L296.779 384.862L268.477 377.279C266.393 376.72 264.251 377.957 263.693 380.041C263.135 382.124 264.371 384.266 266.455 384.824L281.688 388.906L260.56 394.567L257.085 393.636C249.179 391.518 244.471 383.363 246.589 375.457V375.457ZM248.244 432.188C244.81 430.205 242.354 427.004 241.328 423.175C240.302 419.345 240.828 415.345 242.811 411.912C244.793 408.478 247.994 406.022 251.823 404.996C253.102 404.654 254.4 404.484 255.689 404.484C258.261 404.484 260.8 405.159 263.087 406.479C266.52 408.461 268.977 411.662 270.003 415.491C271.029 419.321 270.502 423.321 268.52 426.755C266.538 430.188 263.337 432.644 259.507 433.67C255.677 434.696 251.677 434.17 248.244 432.188V432.188ZM391.783 406.315C390.282 408.457 389.15 410.867 388.452 413.47C387.025 418.795 387.572 424.335 389.969 429.243L348.092 418.022L391.783 406.315ZM424.672 423.175C423.646 427.004 421.19 430.205 417.757 432.188C414.323 434.17 410.323 434.697 406.493 433.67C402.664 432.644 399.463 430.188 397.481 426.755C395.499 423.321 394.972 419.321 395.998 415.491C397.024 411.662 399.48 408.461 402.913 406.479C405.2 405.159 407.739 404.484 410.311 404.484C411.601 404.484 412.898 404.654 414.177 404.996C418.007 406.022 421.207 408.478 423.19 411.912C425.172 415.345 425.699 419.345 424.672 423.175V423.175Z" fill="#05396B"/>
<path d="M328.226 395.846L293.515 405.147C291.431 405.705 290.195 407.847 290.753 409.931C291.221 411.676 292.799 412.827 294.524 412.827C294.858 412.827 295.199 412.784 295.537 412.693L330.249 403.391C332.332 402.833 333.569 400.691 333.011 398.608C332.452 396.524 330.31 395.287 328.226 395.846V395.846Z" fill="#05396B"/>
<path d="M351.242 389.679C349.158 390.238 347.921 392.379 348.48 394.463C348.947 396.208 350.525 397.359 352.25 397.359C352.585 397.359 352.925 397.316 353.263 397.225L399.545 384.824C401.629 384.265 402.865 382.124 402.307 380.04C401.748 377.957 399.606 376.72 397.523 377.278L351.242 389.679Z" fill="#05396B"/>
<path d="M392.692 318.604C391.962 319.33 391.547 320.338 391.547 321.369C391.547 322.397 391.962 323.401 392.692 324.131C393.418 324.858 394.423 325.275 395.453 325.275C396.481 325.275 397.485 324.858 398.215 324.131C398.941 323.401 399.36 322.396 399.36 321.369C399.36 320.338 398.942 319.334 398.215 318.604C397.489 317.878 396.48 317.463 395.453 317.463C394.423 317.463 393.415 317.878 392.692 318.604Z" fill="#05396B"/>
</g>
<g clip-path="url(#clip2)">
<path d="M657.703 424.546H650.917V431.299H657.703V424.546Z" fill="#05396B"/>
<path d="M633.553 372.307L627.578 375.509L651.33 419.407L657.306 416.205L633.553 372.307Z" fill="#05396B"/>
<path d="M546.722 325.634L551.52 320.859L532.155 301.589V290.878L546.722 305.374L551.52 300.6L531.161 280.34L531.137 280.363C529.881 279.045 527.789 278.989 526.464 280.239C526.428 280.273 526.394 280.308 526.359 280.343L506 300.603L510.798 305.377L525.368 290.878V301.589L506.003 320.859L510.801 325.634L525.368 311.138V321.849L506.003 341.119L510.801 345.894L525.368 331.398V342.109L506.003 361.379L510.801 366.154L525.368 351.658V431.299H532.155V351.658L546.722 366.154L551.52 361.379L532.155 342.109V331.398L546.722 345.894L551.52 341.119L532.155 321.849V311.138L546.722 325.634Z" fill="#05396B"/>
<path d="M706.202 339.141L711 334.366L691.635 315.095V304.385L706.202 318.881L711 314.106L690.641 293.846L690.617 293.87C689.361 292.552 687.269 292.496 685.945 293.746C685.909 293.78 685.874 293.814 685.839 293.85L665.48 314.11L670.278 318.884L684.849 304.385V315.095L665.484 334.366L670.282 339.141L684.849 324.645V335.355L665.484 354.626L670.282 359.4L684.849 344.904V377.273L677.723 362.325C677.165 361.148 675.977 360.395 674.669 360.39H630.557V334.775L645.124 349.271L649.922 344.496L630.557 325.225V314.515L645.124 329.011L649.922 324.236L630.557 304.966V294.255L645.124 308.751L649.922 303.976L630.557 284.706V273.995L645.124 288.491L649.922 283.716L629.563 263.456L629.54 263.48C628.284 262.162 626.192 262.106 624.867 263.356C624.831 263.39 624.796 263.424 624.762 263.46L604.403 283.72L609.201 288.494L623.771 273.995V284.706L604.406 303.976L609.204 308.751L623.771 294.255V304.966L604.406 324.236L609.204 329.011L623.771 314.515V325.225L604.406 344.496L609.204 349.271L623.771 334.775V360.39H576.266C575.309 360.395 574.4 360.808 573.769 361.524C573.568 361.724 573.398 361.951 573.263 362.2L539.331 426.356C538.462 428.008 539.103 430.049 540.763 430.914C541.248 431.167 541.787 431.299 542.334 431.299H644.13V424.546H612.234L581.885 367.143H672.521L699.847 424.546H664.489V431.299H705.208C707.082 431.292 708.595 429.775 708.588 427.91C708.587 427.415 708.475 426.925 708.262 426.477L691.635 391.526V344.904L706.202 359.4L711 354.626L691.635 335.355V324.645L706.202 339.141ZM572.873 424.546H547.953L572.873 377.432V424.546V424.546ZM604.579 424.546H579.66V377.432L604.579 424.546Z" fill="#05396B"/>
<path d="M571.177 228.701C569.303 228.701 567.784 230.213 567.784 232.078C567.784 232.973 568.142 233.831 568.778 234.465C572.282 237.599 574.546 241.875 575.164 246.523C575.807 252.223 571.684 257.363 565.956 258.003C565.182 258.09 564.4 258.09 563.627 258.003L563.637 257.993C558.966 257.379 554.669 255.125 551.52 251.638C550.194 250.32 548.046 250.32 546.721 251.639C546.085 252.272 545.728 253.131 545.728 254.025C545.728 268.012 557.121 279.35 571.177 279.35C585.232 279.35 596.626 268.012 596.626 254.025C596.626 240.039 585.232 228.701 571.177 228.701ZM587.983 262.12C583.49 271.351 572.328 275.211 563.052 270.74C559.275 268.92 556.225 265.887 554.394 262.129C557.096 263.578 560.07 264.457 563.128 264.713C568.245 265.176 573.307 263.375 576.969 259.789C582.7 253.656 583.659 244.488 579.321 237.311C588.597 241.782 592.475 252.889 587.983 262.12Z" fill="#05396B"/>
</g>
<path d="M977.531 381.5H977.266C978.035 376.958 977.121 372.291 974.696 368.374C972.271 364.456 968.501 361.558 964.092 360.221C962.913 356.333 960.515 352.927 957.251 350.507C953.987 348.086 950.032 346.78 945.969 346.781C945.323 346.782 944.678 346.815 944.036 346.88L941.287 340.469H942.812C943.335 340.469 943.849 340.339 944.309 340.092C944.769 339.844 945.16 339.486 945.448 339.05C945.735 338.614 945.91 338.114 945.957 337.593C946.003 337.073 945.92 336.549 945.714 336.069L938.131 318.375H939.656C940.204 318.375 940.742 318.233 941.218 317.962C941.694 317.691 942.091 317.301 942.37 316.83C942.65 316.359 942.802 315.824 942.812 315.276C942.822 314.729 942.689 314.188 942.427 313.707L923.49 278.989C923.218 278.491 922.817 278.075 922.33 277.786C921.842 277.497 921.286 277.344 920.719 277.344C920.152 277.344 919.595 277.497 919.108 277.786C918.62 278.075 918.219 278.491 917.948 278.989L908.984 295.422L888.74 259.997C888.464 259.514 888.065 259.112 887.584 258.833C887.103 258.553 886.556 258.406 886 258.406C885.444 258.406 884.897 258.553 884.416 258.833C883.935 259.112 883.536 259.514 883.26 259.997L863.016 295.422L854.052 278.989C853.781 278.491 853.38 278.075 852.892 277.786C852.405 277.497 851.848 277.344 851.281 277.344C850.714 277.344 850.158 277.497 849.67 277.786C849.183 278.075 848.782 278.491 848.51 278.989L829.573 313.707C829.311 314.188 829.178 314.729 829.188 315.276C829.198 315.824 829.35 316.359 829.63 316.83C829.909 317.301 830.306 317.691 830.782 317.962C831.258 318.233 831.796 318.375 832.344 318.375H833.869L826.286 336.069C826.08 336.549 825.997 337.073 826.043 337.593C826.09 338.114 826.265 338.614 826.552 339.05C826.84 339.486 827.231 339.844 827.691 340.092C828.151 340.339 828.665 340.469 829.188 340.469H830.713L827.964 346.88C827.322 346.815 826.677 346.782 826.031 346.781C821.968 346.781 818.013 348.087 814.749 350.507C811.486 352.927 809.087 356.333 807.908 360.221C803.499 361.558 799.729 364.456 797.304 368.374C794.879 372.291 793.965 376.958 794.734 381.5H794.469C793.632 381.5 792.829 381.833 792.237 382.424C791.645 383.016 791.312 383.819 791.312 384.656V422.531C791.312 423.368 791.645 424.171 792.237 424.763C792.829 425.355 793.632 425.688 794.469 425.688H977.531C978.368 425.688 979.171 425.355 979.763 424.763C980.355 424.171 980.688 423.368 980.688 422.531V384.656C980.688 383.819 980.355 383.016 979.763 382.424C979.171 381.833 978.368 381.5 977.531 381.5ZM945.969 362.563C946.491 362.563 947.005 362.433 947.465 362.185C947.925 361.938 948.316 361.58 948.604 361.144C948.891 360.708 949.066 360.207 949.113 359.687C949.159 359.167 949.076 358.643 948.87 358.163L946.708 353.118C949.523 353.281 952.203 354.383 954.318 356.248C956.434 358.113 957.863 360.633 958.378 363.405C958.495 364.033 958.799 364.611 959.25 365.063C959.702 365.514 960.28 365.818 960.908 365.935C962.608 366.253 964.225 366.917 965.659 367.886C967.092 368.855 968.311 370.108 969.241 371.567C970.17 373.026 970.79 374.661 971.062 376.369C971.334 378.078 971.252 379.824 970.821 381.5H964.906V378.344C964.906 377.507 964.574 376.704 963.982 376.112C963.39 375.52 962.587 375.188 961.75 375.188C960.913 375.188 960.11 375.52 959.518 376.112C958.926 376.704 958.594 377.507 958.594 378.344V381.5H942.812V375.188C942.812 374.35 942.48 373.548 941.888 372.956C941.296 372.364 940.493 372.031 939.656 372.031C938.819 372.031 938.016 372.364 937.424 372.956C936.833 373.548 936.5 374.35 936.5 375.188V381.5H930.188V362.563H945.969ZM911.25 308.906C911.803 308.906 912.346 308.761 912.825 308.485C913.304 308.209 913.702 307.812 913.98 307.334C914.257 306.856 914.404 306.313 914.406 305.761C914.408 305.208 914.265 304.664 913.99 304.184L912.663 301.861L920.719 287.091L934.339 312.063H933.344C932.821 312.062 932.307 312.192 931.847 312.44C931.387 312.687 930.996 313.045 930.709 313.481C930.421 313.917 930.246 314.418 930.2 314.938C930.153 315.458 930.237 315.982 930.442 316.462L938.026 334.156H936.5C935.978 334.156 935.464 334.286 935.004 334.533C934.544 334.781 934.152 335.139 933.865 335.575C933.577 336.011 933.402 336.511 933.356 337.032C933.31 337.552 933.393 338.076 933.599 338.556L941.182 356.25H922.669L913.201 337.313H917.562C918.112 337.313 918.652 337.169 919.129 336.896C919.606 336.623 920.004 336.231 920.283 335.757C920.561 335.283 920.712 334.745 920.718 334.195C920.725 333.646 920.588 333.104 920.321 332.624L907.147 308.906H911.25ZM923.875 362.563V381.5H917.562V362.563H923.875ZM886 267.924L905.811 302.594H901.781C901.232 302.594 900.692 302.737 900.214 303.01C899.737 303.283 899.34 303.676 899.061 304.149C898.782 304.623 898.632 305.161 898.625 305.711C898.619 306.261 898.755 306.802 899.022 307.283L912.197 331H908.094C907.556 331 907.027 331.138 906.557 331.4C906.087 331.662 905.692 332.039 905.409 332.497C905.126 332.955 904.965 333.477 904.941 334.015C904.917 334.552 905.03 335.087 905.271 335.568L915.612 356.25H856.388L866.729 335.568C866.97 335.087 867.083 334.552 867.059 334.015C867.035 333.477 866.874 332.955 866.591 332.497C866.308 332.039 865.913 331.662 865.443 331.4C864.973 331.138 864.444 331 863.906 331H859.803L872.98 307.283C873.247 306.802 873.384 306.26 873.377 305.71C873.37 305.16 873.22 304.622 872.941 304.148C872.662 303.674 872.264 303.282 871.786 303.009C871.309 302.737 870.769 302.593 870.219 302.594H866.189L886 267.924ZM911.25 362.563V381.5H895.469V362.563H911.25ZM889.156 362.563V381.5H882.844V362.563H889.156ZM876.531 362.563V381.5H860.75V362.563H876.531ZM838.401 338.556C838.607 338.076 838.69 337.552 838.644 337.032C838.598 336.511 838.423 336.011 838.135 335.575C837.848 335.139 837.456 334.781 836.996 334.533C836.536 334.286 836.022 334.156 835.5 334.156H833.974L841.558 316.462C841.763 315.982 841.847 315.458 841.8 314.938C841.754 314.418 841.579 313.917 841.291 313.481C841.004 313.045 840.613 312.687 840.153 312.44C839.693 312.192 839.179 312.062 838.656 312.063H837.661L851.281 287.091L859.337 301.861L858.01 304.184C857.735 304.664 857.592 305.208 857.594 305.761C857.596 306.313 857.743 306.856 858.02 307.334C858.298 307.812 858.696 308.209 859.175 308.485C859.654 308.761 860.197 308.906 860.75 308.906H864.853L851.676 332.624C851.409 333.104 851.272 333.646 851.279 334.196C851.286 334.746 851.436 335.284 851.715 335.758C851.994 336.232 852.392 336.624 852.87 336.897C853.347 337.17 853.888 337.313 854.438 337.313H858.799L849.331 356.25H830.818L838.401 338.556ZM854.438 362.563V381.5H848.125V362.563H854.438ZM811.092 365.935C811.72 365.818 812.298 365.514 812.75 365.063C813.201 364.611 813.505 364.033 813.622 363.405C814.137 360.633 815.566 358.113 817.682 356.248C819.797 354.383 822.477 353.281 825.292 353.118L823.13 358.163C822.924 358.643 822.841 359.167 822.887 359.687C822.934 360.207 823.109 360.708 823.396 361.144C823.684 361.58 824.075 361.938 824.535 362.185C824.995 362.433 825.509 362.563 826.031 362.563H841.812V381.5H835.5V375.188C835.5 374.35 835.167 373.548 834.576 372.956C833.984 372.364 833.181 372.031 832.344 372.031C831.507 372.031 830.704 372.364 830.112 372.956C829.52 373.548 829.188 374.35 829.188 375.188V381.5H813.406V378.344C813.406 377.507 813.074 376.704 812.482 376.112C811.89 375.52 811.087 375.188 810.25 375.188C809.413 375.188 808.61 375.52 808.018 376.112C807.426 376.704 807.094 377.507 807.094 378.344V381.5H801.179C800.748 379.824 800.666 378.078 800.938 376.369C801.21 374.661 801.83 373.026 802.759 371.567C803.689 370.108 804.908 368.855 806.341 367.886C807.775 366.917 809.392 366.253 811.092 365.935V365.935ZM797.625 419.375V387.813H832.956C831.562 389.748 830.67 391.999 830.359 394.364C830.049 396.729 830.33 399.133 831.178 401.363C832.026 403.592 833.413 405.577 835.216 407.138C837.019 408.699 839.182 409.789 841.509 410.309V411.258C841.506 414.155 842.38 416.985 844.016 419.375H797.625ZM924.178 407.5V411.257C924.175 413.409 923.32 415.472 921.798 416.994C920.276 418.516 918.213 419.372 916.061 419.375H855.939C853.787 419.372 851.724 418.516 850.203 416.995C848.681 415.473 847.825 413.41 847.822 411.258V407.5C847.822 406.663 847.489 405.86 846.898 405.268C846.306 404.676 845.503 404.343 844.666 404.343C842.513 404.343 840.449 403.488 838.926 401.966C837.404 400.444 836.549 398.379 836.549 396.227C836.549 394.074 837.404 392.009 838.926 390.487C840.449 388.965 842.513 388.11 844.666 388.11H927.334C929.487 388.11 931.551 388.965 933.074 390.487C934.596 392.009 935.451 394.074 935.451 396.227C935.451 398.379 934.596 400.444 933.074 401.966C931.551 403.488 929.487 404.343 927.334 404.343C926.497 404.343 925.694 404.676 925.102 405.268C924.511 405.86 924.178 406.663 924.178 407.5ZM974.375 419.375H927.984C929.62 416.985 930.494 414.155 930.491 411.258V410.309C932.818 409.789 934.981 408.699 936.784 407.138C938.587 405.577 939.974 403.592 940.822 401.363C941.67 399.133 941.951 396.729 941.641 394.364C941.33 391.999 940.438 389.748 939.044 387.813H974.375V419.375Z" fill="#05396B"/>
<path d="M819.719 375.188C820.556 375.188 821.359 374.855 821.951 374.263C822.542 373.671 822.875 372.868 822.875 372.031V368.875C822.875 368.038 822.542 367.235 821.951 366.643C821.359 366.051 820.556 365.719 819.719 365.719C818.882 365.719 818.079 366.051 817.487 366.643C816.895 367.235 816.562 368.038 816.562 368.875V372.031C816.562 372.868 816.895 373.671 817.487 374.263C818.079 374.855 818.882 375.188 819.719 375.188Z" fill="#05396B"/>
<path d="M952.281 375.188C953.118 375.188 953.921 374.855 954.513 374.263C955.105 373.671 955.438 372.868 955.438 372.031V368.875C955.438 368.038 955.105 367.235 954.513 366.643C953.921 366.051 953.118 365.719 952.281 365.719C951.444 365.719 950.641 366.051 950.049 366.643C949.458 367.235 949.125 368.038 949.125 368.875V372.031C949.125 372.868 949.458 373.671 950.049 374.263C950.641 374.855 951.444 375.188 952.281 375.188Z" fill="#05396B"/>
<path d="M873.375 397.281C873.375 396.444 873.042 395.641 872.451 395.049C871.859 394.458 871.056 394.125 870.219 394.125H854.437C853.6 394.125 852.798 394.458 852.206 395.049C851.614 395.641 851.281 396.444 851.281 397.281C851.281 398.118 851.614 398.921 852.206 399.513C852.798 400.105 853.6 400.438 854.437 400.438H870.219C871.056 400.438 871.859 400.105 872.451 399.513C873.042 398.921 873.375 398.118 873.375 397.281Z" fill="#05396B"/>
<path d="M882.844 400.438H889.156C889.993 400.438 890.796 400.105 891.388 399.513C891.98 398.921 892.312 398.118 892.312 397.281C892.312 396.444 891.98 395.641 891.388 395.049C890.796 394.458 889.993 394.125 889.156 394.125H882.844C882.007 394.125 881.204 394.458 880.612 395.049C880.02 395.641 879.688 396.444 879.688 397.281C879.688 398.118 880.02 398.921 880.612 399.513C881.204 400.105 882.007 400.438 882.844 400.438Z" fill="#05396B"/>
<path d="M895.469 406.75H863.906C863.069 406.75 862.266 407.083 861.674 407.674C861.083 408.266 860.75 409.069 860.75 409.906C860.75 410.743 861.083 411.546 861.674 412.138C862.266 412.73 863.069 413.063 863.906 413.063H895.469C896.306 413.063 897.109 412.73 897.701 412.138C898.292 411.546 898.625 410.743 898.625 409.906C898.625 409.069 898.292 408.266 897.701 407.674C897.109 407.083 896.306 406.75 895.469 406.75Z" fill="#05396B"/>
<path d="M914.406 406.75H908.094C907.257 406.75 906.454 407.083 905.862 407.674C905.27 408.266 904.938 409.069 904.938 409.906C904.938 410.743 905.27 411.546 905.862 412.138C906.454 412.73 907.257 413.063 908.094 413.063H914.406C915.243 413.063 916.046 412.73 916.638 412.138C917.23 411.546 917.562 410.743 917.562 409.906C917.562 409.069 917.23 408.266 916.638 407.674C916.046 407.083 915.243 406.75 914.406 406.75Z" fill="#05396B"/>
<path d="M920.719 394.125H898.625C897.788 394.125 896.985 394.458 896.393 395.049C895.801 395.641 895.469 396.444 895.469 397.281C895.469 398.118 895.801 398.921 896.393 399.513C896.985 400.105 897.788 400.438 898.625 400.438H920.719C921.556 400.438 922.359 400.105 922.951 399.513C923.542 398.921 923.875 398.118 923.875 397.281C923.875 396.444 923.542 395.641 922.951 395.049C922.359 394.458 921.556 394.125 920.719 394.125Z" fill="#05396B"/>
<path d="M941.234 283.656H963.328C965.854 283.656 968.304 282.791 970.269 281.204C972.235 279.617 973.597 277.404 974.128 274.935C974.66 272.465 974.329 269.888 973.191 267.633C972.053 265.377 970.177 263.58 967.874 262.541C967.317 259.336 965.542 256.47 962.921 254.543C960.3 252.616 957.035 251.777 953.81 252.201C952.683 250.204 951.032 248.551 949.036 247.42C948.717 244.778 947.57 242.304 945.761 240.352C943.951 238.4 941.571 237.07 938.96 236.552C936.35 236.033 933.642 236.354 931.224 237.466C928.806 238.579 926.802 240.428 925.497 242.748C924.256 242.949 923.067 243.397 922.002 244.066C920.937 244.734 920.017 245.61 919.296 246.641C916.553 247.709 914.269 249.702 912.839 252.276C911.409 254.849 910.924 257.842 911.467 260.736C912.01 263.629 913.548 266.242 915.814 268.122C918.079 270.002 920.931 271.031 923.875 271.031H930.306C930.229 271.554 930.19 272.081 930.187 272.609C930.191 275.538 931.356 278.346 933.427 280.417C935.498 282.488 938.306 283.653 941.234 283.656ZM949.48 262.632C949.972 261.227 950.946 260.04 952.228 259.283C953.511 258.526 955.02 258.247 956.488 258.495C957.957 258.743 959.29 259.502 960.253 260.638C961.216 261.774 961.746 263.214 961.75 264.703L961.747 264.831C961.736 265.567 961.983 266.284 962.445 266.857C962.907 267.43 963.555 267.824 964.277 267.97C965.427 268.204 966.449 268.857 967.145 269.803C967.841 270.748 968.161 271.918 968.043 273.086C967.925 274.254 967.377 275.336 966.506 276.123C965.634 276.91 964.502 277.345 963.328 277.344H941.234C940.365 277.343 939.513 277.103 938.771 276.65C938.028 276.197 937.425 275.549 937.027 274.776C936.628 274.004 936.45 273.136 936.512 272.269C936.574 271.402 936.873 270.569 937.376 269.86C937.428 269.796 937.476 269.731 937.523 269.663C937.918 269.163 938.411 268.749 938.971 268.446C939.531 268.142 940.147 267.956 940.781 267.898C941.286 267.85 941.771 267.682 942.197 267.408C942.623 267.133 942.976 266.76 943.228 266.32C943.503 265.835 943.902 265.432 944.383 265.151C944.864 264.87 945.411 264.721 945.969 264.719C946.06 264.719 946.15 264.727 946.239 264.735C946.936 264.793 947.632 264.618 948.219 264.237C948.806 263.857 949.249 263.292 949.48 262.632ZM923.875 264.719C922.346 264.719 920.868 264.164 919.717 263.156C918.566 262.149 917.82 260.758 917.618 259.242C917.415 257.726 917.77 256.188 918.616 254.914C919.462 253.64 920.742 252.717 922.218 252.315C922.646 252.199 923.045 251.994 923.389 251.713C923.733 251.432 924.013 251.082 924.212 250.685C924.472 250.16 924.874 249.718 925.372 249.409C925.871 249.1 926.445 248.937 927.031 248.938C927.121 248.938 927.209 248.946 927.298 248.953C927.995 249.012 928.692 248.838 929.279 248.457C929.866 248.077 930.311 247.512 930.542 246.851C931.034 245.444 932.009 244.256 933.293 243.499C934.577 242.742 936.088 242.463 937.558 242.713C939.028 242.963 940.362 243.725 941.324 244.864C942.285 246.004 942.813 247.447 942.812 248.938C942.812 249.056 942.808 249.177 942.801 249.295C942.763 249.978 942.947 250.655 943.327 251.225C943.706 251.794 944.26 252.224 944.906 252.451C946.086 252.867 947.116 253.625 947.865 254.627C946.461 255.677 945.292 257.007 944.43 258.533C942.167 258.911 940.116 260.095 938.657 261.866C936.707 262.327 934.921 263.314 933.492 264.719H923.875Z" fill="#05396B"/>
<path d="M797.813 275.166C795.511 276.205 793.634 278.002 792.496 280.258C791.358 282.513 791.027 285.09 791.559 287.56C792.091 290.029 793.453 292.242 795.418 293.829C797.383 295.416 799.833 296.281 802.359 296.281H824.453C827.159 296.283 829.772 295.291 831.796 293.494C833.819 291.697 835.113 289.219 835.43 286.531C835.748 283.844 835.068 281.133 833.52 278.913C831.971 276.694 829.662 275.12 827.029 274.491C825.571 272.719 823.521 271.536 821.257 271.158C819.982 268.886 818.034 267.065 815.683 265.944C813.331 264.823 810.69 264.457 808.122 264.896C805.554 265.335 803.185 266.557 801.339 268.396C799.493 270.235 798.262 272.6 797.813 275.166ZM803.941 277.454L803.937 277.344C803.938 275.853 804.465 274.411 805.427 273.272C806.389 272.133 807.722 271.371 809.192 271.122C810.661 270.872 812.172 271.15 813.456 271.907C814.74 272.664 815.715 273.851 816.207 275.257C816.44 275.917 816.884 276.482 817.471 276.862C818.058 277.242 818.755 277.417 819.452 277.36C819.54 277.352 819.628 277.344 819.718 277.344C820.275 277.346 820.823 277.495 821.304 277.776C821.786 278.057 822.184 278.46 822.46 278.945C822.711 279.385 823.064 279.758 823.49 280.033C823.916 280.307 824.402 280.476 824.906 280.523C826.114 280.642 827.231 281.221 828.025 282.14C828.818 283.059 829.228 284.248 829.17 285.461C829.112 286.674 828.59 287.818 827.712 288.657C826.834 289.496 825.667 289.966 824.453 289.969H802.359C801.186 289.969 800.053 289.534 799.183 288.747C798.312 287.96 797.764 286.878 797.646 285.71C797.528 284.542 797.848 283.372 798.544 282.427C799.24 281.482 800.262 280.829 801.412 280.595C802.134 280.449 802.781 280.055 803.243 279.482C803.705 278.908 803.952 278.192 803.941 277.456V277.454Z" fill="#05396B"/>
<path d="M840.888 266.951C841.009 266.829 841.154 266.733 841.312 266.667C841.471 266.601 841.641 266.568 841.812 266.568C841.984 266.568 842.154 266.601 842.313 266.667C842.471 266.733 842.615 266.829 842.737 266.951L845.893 270.107C846.186 270.4 846.534 270.632 846.917 270.791C847.3 270.95 847.71 271.031 848.125 271.031C848.539 271.031 848.95 270.95 849.333 270.791C849.716 270.632 850.064 270.4 850.357 270.107L853.513 266.951C853.634 266.829 853.779 266.733 853.937 266.667C854.096 266.601 854.266 266.568 854.437 266.568C854.609 266.568 854.779 266.601 854.938 266.667C855.096 266.733 855.24 266.829 855.362 266.951C855.954 267.543 856.757 267.875 857.594 267.875C858.431 267.875 859.234 267.543 859.826 266.951C860.417 266.359 860.75 265.556 860.75 264.719C860.75 263.882 860.417 263.079 859.826 262.487C858.397 261.058 856.458 260.255 854.437 260.255C852.417 260.255 850.478 261.058 849.049 262.487L848.125 263.412L847.201 262.487C845.772 261.058 843.833 260.255 841.812 260.255C839.792 260.255 837.853 261.058 836.424 262.487C836.131 262.78 835.899 263.128 835.74 263.511C835.582 263.894 835.5 264.304 835.5 264.719C835.5 265.133 835.582 265.544 835.74 265.927C835.899 266.31 836.131 266.658 836.424 266.951C837.016 267.543 837.819 267.875 838.656 267.875C839.071 267.875 839.481 267.793 839.864 267.635C840.247 267.476 840.595 267.244 840.888 266.951Z" fill="#05396B"/>
<path d="M840.888 254.326C841.181 254.033 841.413 253.685 841.572 253.302C841.731 252.919 841.812 252.508 841.812 252.094C841.812 251.679 841.731 251.269 841.572 250.886C841.413 250.503 841.181 250.155 840.888 249.862C839.459 248.433 837.521 247.63 835.5 247.63C833.479 247.63 831.541 248.433 830.111 249.862L829.187 250.787L828.263 249.862C826.834 248.433 824.896 247.63 822.875 247.63C820.854 247.63 818.916 248.433 817.487 249.862C816.895 250.454 816.562 251.257 816.562 252.094C816.562 252.931 816.895 253.734 817.487 254.326C818.079 254.918 818.882 255.25 819.719 255.25C820.556 255.25 821.359 254.918 821.951 254.326C822.072 254.204 822.216 254.108 822.375 254.042C822.533 253.976 822.703 253.943 822.875 253.943C823.047 253.943 823.217 253.976 823.375 254.042C823.534 254.108 823.678 254.204 823.799 254.326L826.956 257.482C827.249 257.775 827.597 258.007 827.98 258.166C828.363 258.325 828.773 258.406 829.187 258.406C829.602 258.406 830.012 258.325 830.395 258.166C830.778 258.007 831.126 257.775 831.419 257.482L834.576 254.326C834.697 254.204 834.841 254.108 835 254.042C835.158 253.976 835.328 253.943 835.5 253.943C835.672 253.943 835.842 253.976 836 254.042C836.159 254.108 836.303 254.204 836.424 254.326C837.016 254.917 837.819 255.25 838.656 255.25C839.493 255.25 840.296 254.917 840.888 254.326V254.326Z" fill="#05396B"/>
<line y1="-3" x2="1440" y2="-3" transform="matrix(1 0.000561762 -0.000565683 1 0 125)" stroke="#05396B" stroke-width="6"/>
<path d="M1069.8 194.328L1076.64 199.203C1077.33 198.547 1078.09 197.938 1078.94 197.375C1079.78 196.781 1080.67 196.281 1081.61 195.875C1082.55 195.438 1083.5 195.094 1084.47 194.844C1085.47 194.594 1086.45 194.469 1087.42 194.469C1090.3 194.469 1092.75 195 1094.78 196.062C1096.84 197.094 1098.5 198.625 1099.75 200.656C1100.41 199.812 1101.19 199.016 1102.09 198.266C1103.03 197.516 1104.03 196.859 1105.09 196.297C1106.16 195.734 1107.27 195.297 1108.42 194.984C1109.58 194.641 1110.72 194.469 1111.84 194.469C1116.84 194.469 1120.61 196.047 1123.14 199.203C1125.67 202.328 1126.94 206.844 1126.94 212.75V245H1118.59V212.844C1118.59 209.625 1117.94 207.172 1116.62 205.484C1115.34 203.797 1113.44 202.953 1110.91 202.953C1109.5 202.953 1108.05 203.281 1106.55 203.938C1105.08 204.594 1103.73 205.625 1102.52 207.031V245H1094.17V212.844C1094.17 209.625 1093.52 207.172 1092.2 205.484C1090.92 203.797 1089.02 202.953 1086.48 202.953C1085.08 202.953 1083.64 203.281 1082.17 203.938C1080.7 204.594 1079.36 205.609 1078.14 206.984V245H1069.8V194.328ZM1138.56 229.438C1138.56 224.375 1140.34 220.391 1143.91 217.484C1147.5 214.578 1152.78 212.953 1159.75 212.609V211.625C1159.75 208.688 1159.05 206.391 1157.64 204.734C1156.27 203.078 1154.38 202.25 1151.97 202.25C1150.72 202.25 1149.42 202.484 1148.08 202.953C1146.77 203.391 1145.45 203.984 1144.14 204.734L1140.95 197.234C1142.92 196.234 1144.98 195.5 1147.14 195.031C1149.3 194.562 1151.25 194.328 1153 194.328C1155.25 194.328 1157.3 194.719 1159.14 195.5C1160.98 196.281 1162.56 197.406 1163.88 198.875C1165.19 200.312 1166.2 202.078 1166.92 204.172C1167.64 206.266 1168 208.641 1168 211.297V245.891L1161.86 242.891C1160.67 243.828 1159.34 244.562 1157.88 245.094C1156.44 245.625 1154.88 245.891 1153.19 245.891C1151.06 245.891 1149.09 245.469 1147.28 244.625C1145.5 243.75 1143.95 242.578 1142.64 241.109C1141.36 239.641 1140.36 237.906 1139.64 235.906C1138.92 233.906 1138.56 231.75 1138.56 229.438ZM1147.05 229.578C1147.05 230.734 1147.22 231.812 1147.56 232.812C1147.91 233.781 1148.39 234.641 1149.02 235.391C1149.64 236.109 1150.39 236.672 1151.27 237.078C1152.14 237.484 1153.11 237.688 1154.17 237.688C1155.27 237.688 1156.31 237.484 1157.31 237.078C1158.31 236.672 1159.12 236.156 1159.75 235.531V220.109C1157.75 220.078 1155.97 220.281 1154.41 220.719C1152.84 221.125 1151.52 221.75 1150.42 222.594C1149.33 223.406 1148.48 224.406 1147.89 225.594C1147.33 226.75 1147.05 228.078 1147.05 229.578ZM1190.08 255.312C1192.14 254.469 1193.92 253.578 1195.42 252.641C1196.95 251.734 1198.25 250.766 1199.31 249.734C1200.38 248.703 1201.22 247.609 1201.84 246.453C1202.5 245.297 1202.98 244.062 1203.3 242.75C1201.52 243.625 1199.47 244.062 1197.16 244.062C1194.84 244.062 1192.62 243.578 1190.5 242.609C1188.41 241.641 1186.55 240.141 1184.92 238.109C1183.33 236.078 1182.05 233.5 1181.08 230.375C1180.11 227.219 1179.62 223.469 1179.62 219.125C1179.62 214.781 1180.11 211.047 1181.08 207.922C1182.05 204.766 1183.33 202.172 1184.92 200.141C1186.55 198.109 1188.41 196.609 1190.5 195.641C1192.62 194.672 1194.84 194.188 1197.16 194.188C1200.62 194.188 1203.58 195.219 1206.02 197.281L1212.2 194.281V237.359C1212.2 240.172 1211.86 242.781 1211.17 245.188C1210.52 247.625 1209.45 249.875 1207.98 251.938C1206.55 254 1204.69 255.875 1202.41 257.562C1200.12 259.25 1197.38 260.75 1194.16 262.062L1190.08 255.312ZM1198.05 236.188C1199.14 236.188 1200.17 236.016 1201.14 235.672C1202.14 235.297 1203.05 234.781 1203.86 234.125V204.172C1202.17 202.766 1200.23 202.062 1198.05 202.062C1196.77 202.062 1195.53 202.328 1194.34 202.859C1193.16 203.391 1192.09 204.312 1191.16 205.625C1190.25 206.938 1189.52 208.688 1188.95 210.875C1188.39 213.062 1188.11 215.812 1188.11 219.125C1188.11 222.438 1188.39 225.188 1188.95 227.375C1189.52 229.562 1190.25 231.312 1191.16 232.625C1192.09 233.938 1193.16 234.859 1194.34 235.391C1195.53 235.922 1196.77 236.188 1198.05 236.188ZM1223.88 229.438C1223.88 224.375 1225.66 220.391 1229.22 217.484C1232.81 214.578 1238.09 212.953 1245.06 212.609V211.625C1245.06 208.688 1244.36 206.391 1242.95 204.734C1241.58 203.078 1239.69 202.25 1237.28 202.25C1236.03 202.25 1234.73 202.484 1233.39 202.953C1232.08 203.391 1230.77 203.984 1229.45 204.734L1226.27 197.234C1228.23 196.234 1230.3 195.5 1232.45 195.031C1234.61 194.562 1236.56 194.328 1238.31 194.328C1240.56 194.328 1242.61 194.719 1244.45 195.5C1246.3 196.281 1247.88 197.406 1249.19 198.875C1250.5 200.312 1251.52 202.078 1252.23 204.172C1252.95 206.266 1253.31 208.641 1253.31 211.297V245.891L1247.17 242.891C1245.98 243.828 1244.66 244.562 1243.19 245.094C1241.75 245.625 1240.19 245.891 1238.5 245.891C1236.38 245.891 1234.41 245.469 1232.59 244.625C1230.81 243.75 1229.27 242.578 1227.95 241.109C1226.67 239.641 1225.67 237.906 1224.95 235.906C1224.23 233.906 1223.88 231.75 1223.88 229.438ZM1232.36 229.578C1232.36 230.734 1232.53 231.812 1232.88 232.812C1233.22 233.781 1233.7 234.641 1234.33 235.391C1234.95 236.109 1235.7 236.672 1236.58 237.078C1237.45 237.484 1238.42 237.688 1239.48 237.688C1240.58 237.688 1241.62 237.484 1242.62 237.078C1243.62 236.672 1244.44 236.156 1245.06 235.531V220.109C1243.06 220.078 1241.28 220.281 1239.72 220.719C1238.16 221.125 1236.83 221.75 1235.73 222.594C1234.64 223.406 1233.8 224.406 1233.2 225.594C1232.64 226.75 1232.36 228.078 1232.36 229.578ZM1267.05 170.328H1275.39V245H1267.05V170.328ZM1294.66 186.688C1293.75 186.688 1292.92 186.531 1292.17 186.219C1291.42 185.906 1290.78 185.484 1290.25 184.953C1289.72 184.422 1289.31 183.812 1289.03 183.125C1288.75 182.406 1288.61 181.656 1288.61 180.875C1288.61 180.094 1288.75 179.359 1289.03 178.672C1289.31 177.953 1289.72 177.328 1290.25 176.797C1290.78 176.266 1291.42 175.844 1292.17 175.531C1292.92 175.219 1293.75 175.062 1294.66 175.062C1295.56 175.062 1296.39 175.219 1297.14 175.531C1297.89 175.844 1298.53 176.266 1299.06 176.797C1299.59 177.328 1300 177.953 1300.28 178.672C1300.56 179.359 1300.7 180.094 1300.7 180.875C1300.7 181.656 1300.56 182.406 1300.28 183.125C1300 183.812 1299.59 184.422 1299.06 184.953C1298.53 185.484 1297.89 185.906 1297.14 186.219C1296.39 186.531 1295.56 186.688 1294.66 186.688ZM1290.2 195.219H1298.55V245H1290.2V195.219ZM1311.91 229.438C1311.91 224.375 1313.69 220.391 1317.25 217.484C1320.84 214.578 1326.12 212.953 1333.09 212.609V211.625C1333.09 208.688 1332.39 206.391 1330.98 204.734C1329.61 203.078 1327.72 202.25 1325.31 202.25C1324.06 202.25 1322.77 202.484 1321.42 202.953C1320.11 203.391 1318.8 203.984 1317.48 204.734L1314.3 197.234C1316.27 196.234 1318.33 195.5 1320.48 195.031C1322.64 194.562 1324.59 194.328 1326.34 194.328C1328.59 194.328 1330.64 194.719 1332.48 195.5C1334.33 196.281 1335.91 197.406 1337.22 198.875C1338.53 200.312 1339.55 202.078 1340.27 204.172C1340.98 206.266 1341.34 208.641 1341.34 211.297V245.891L1335.2 242.891C1334.02 243.828 1332.69 244.562 1331.22 245.094C1329.78 245.625 1328.22 245.891 1326.53 245.891C1324.41 245.891 1322.44 245.469 1320.62 244.625C1318.84 243.75 1317.3 242.578 1315.98 241.109C1314.7 239.641 1313.7 237.906 1312.98 235.906C1312.27 233.906 1311.91 231.75 1311.91 229.438ZM1320.39 229.578C1320.39 230.734 1320.56 231.812 1320.91 232.812C1321.25 233.781 1321.73 234.641 1322.36 235.391C1322.98 236.109 1323.73 236.672 1324.61 237.078C1325.48 237.484 1326.45 237.688 1327.52 237.688C1328.61 237.688 1329.66 237.484 1330.66 237.078C1331.66 236.672 1332.47 236.156 1333.09 235.531V220.109C1331.09 220.078 1329.31 220.281 1327.75 220.719C1326.19 221.125 1324.86 221.75 1323.77 222.594C1322.67 223.406 1321.83 224.406 1321.23 225.594C1320.67 226.75 1320.39 228.078 1320.39 229.578ZM1360.66 186.688C1359.75 186.688 1358.92 186.531 1358.17 186.219C1357.42 185.906 1356.78 185.484 1356.25 184.953C1355.72 184.422 1355.31 183.812 1355.03 183.125C1354.75 182.406 1354.61 181.656 1354.61 180.875C1354.61 180.094 1354.75 179.359 1355.03 178.672C1355.31 177.953 1355.72 177.328 1356.25 176.797C1356.78 176.266 1357.42 175.844 1358.17 175.531C1358.92 175.219 1359.75 175.062 1360.66 175.062C1361.56 175.062 1362.39 175.219 1363.14 175.531C1363.89 175.844 1364.53 176.266 1365.06 176.797C1365.59 177.328 1366 177.953 1366.28 178.672C1366.56 179.359 1366.7 180.094 1366.7 180.875C1366.7 181.656 1366.56 182.406 1366.28 183.125C1366 183.812 1365.59 184.422 1365.06 184.953C1364.53 185.484 1363.89 185.906 1363.14 186.219C1362.39 186.531 1361.56 186.688 1360.66 186.688ZM1356.2 195.219H1364.55V245H1356.2V195.219ZM1380.86 235.156C1382.08 235.969 1383.42 236.625 1384.89 237.125C1386.36 237.594 1387.83 237.828 1389.3 237.828C1391.17 237.828 1392.69 237.328 1393.84 236.328C1395.03 235.328 1395.62 233.984 1395.62 232.297C1395.62 231.422 1395.45 230.625 1395.11 229.906C1394.77 229.156 1394.31 228.438 1393.75 227.75C1393.19 227.062 1392.53 226.406 1391.78 225.781C1391.06 225.156 1390.31 224.531 1389.53 223.906L1386.34 221.375C1383.69 219.312 1381.72 217.141 1380.44 214.859C1379.16 212.547 1378.52 210.062 1378.52 207.406C1378.52 205.656 1378.86 204 1379.55 202.438C1380.23 200.844 1381.2 199.453 1382.45 198.266C1383.7 197.047 1385.19 196.094 1386.91 195.406C1388.66 194.688 1390.58 194.328 1392.67 194.328C1394.48 194.328 1396.23 194.531 1397.92 194.938C1399.61 195.312 1401.34 195.953 1403.12 196.859L1399.66 204.641C1398.5 203.797 1397.31 203.188 1396.09 202.812C1394.91 202.438 1393.7 202.25 1392.48 202.25C1391.61 202.25 1390.83 202.391 1390.14 202.672C1389.45 202.922 1388.88 203.281 1388.41 203.75C1387.94 204.188 1387.58 204.703 1387.33 205.297C1387.08 205.859 1386.95 206.469 1386.95 207.125C1386.95 208.188 1387.3 209.234 1387.98 210.266C1388.67 211.297 1389.88 212.516 1391.59 213.922L1395.25 216.922C1396.88 218.266 1398.25 219.562 1399.38 220.812C1400.53 222.031 1401.45 223.25 1402.14 224.469C1402.86 225.688 1403.38 226.938 1403.69 228.219C1404.03 229.5 1404.2 230.844 1404.2 232.25C1404.2 234.188 1403.81 235.984 1403.03 237.641C1402.28 239.297 1401.23 240.734 1399.89 241.953C1398.55 243.172 1396.95 244.125 1395.11 244.812C1393.27 245.5 1391.27 245.844 1389.11 245.844C1386.77 245.844 1384.66 245.531 1382.78 244.906C1380.94 244.281 1379.22 243.484 1377.62 242.516L1380.86 235.156Z" fill="#EDF5E0"/>
<line x1="150.5" x2="150.5" y2="480" stroke="#05396B" stroke-width="3"/>
</g>
<defs>
<clipPath id="clip0">
<rect width="1440" height="480" fill="white"/>
</clipPath>
<clipPath id="clip1">
<rect width="200" height="200" fill="white" transform="translate(233 242)"/>
</clipPath>
<clipPath id="clip2">
<rect width="205" height="204" fill="white" transform="translate(506 228)"/>
</clipPath>
</defs>
</svg>
