<svg width="1012" height="595" viewBox="0 0 1012 595" fill="none" xmlns="http://www.w3.org/2000/svg">
<path d="M538.876 50.632C538.71 50.6519 536.946 50.6519 534.419 50.7513C534.125 50.4928 533.831 50.2243 533.537 49.9657C535.683 50.2044 537.544 50.443 538.876 50.632Z" fill="#723310"/>
<path d="M1011.49 463.167V509.976L942.817 538.745H942.807L658.509 560.444C665.258 559.837 667.208 558.594 667.6 557.57C670.068 559.181 673.399 559.599 677.19 558.465L734.675 541.37L935.744 481.565C941.073 479.973 946.353 474.454 949.214 468.03L1011.49 463.167Z" fill="#C6A414"/>
<path d="M1011.49 440.504V463.167L949.224 468.03C950.115 466.051 950.771 463.973 951.124 461.904L955.435 436.536H955.444L1011.49 440.504Z" fill="#FBCE13"/>
<path d="M836.41 382.329L900.957 281.403V281.393L971.736 267.401C978.838 265.999 983.325 272.502 981.747 281.801L955.444 436.536H955.435L951.124 461.904C950.772 463.973 950.115 466.051 949.224 468.03C946.363 474.454 941.083 479.973 935.754 481.564L734.685 541.37L813.888 417.532L836.41 382.329ZM864.486 432.071V402.108L856.6 412.63V394.511L828.768 430.888L845.677 427.228L837.35 438.346L864.486 432.071Z" fill="#888888"/>
<path d="M942.807 538.755L808.549 595.001L592.805 593.957V593.539C596.185 582.351 592.805 573.073 592.805 573.073L581.049 572.715C595.44 552.846 531.147 570.846 530.119 571.134H530.109L517.834 570.746L520.087 555.591C520.322 556.963 520.097 564.093 526.611 566.848C529.58 567.554 532.626 566.858 535.614 565.148C535.624 565.138 535.644 565.128 535.653 565.128C542.266 561.309 548.594 552.478 553.199 542.514C599.212 551.603 649.633 561.08 657.098 560.553C657.598 560.523 658.058 560.474 658.509 560.444L942.807 538.755Z" fill="#FBCE13"/>
<path d="M676.475 438.167L676.622 437.004V436.994L676.916 434.647L681.06 401.243L682.715 387.898L683.95 377.953L684.988 369.65V369.64L688.387 342.193C689.69 331.642 698.311 321.489 707.441 319.679L900.957 281.393V281.403L836.41 382.329L813.878 385.591V417.542L734.675 541.38L677.19 558.475C673.399 559.609 670.078 559.191 667.6 557.58C664.955 555.869 663.28 552.787 663.054 548.769C662.986 547.725 663.035 546.611 663.172 545.448L664.896 531.545L665.454 527.05L666.444 519.025L667.698 508.892L668.472 502.647L668.873 499.405L669.706 492.722L669.853 491.479L670.744 484.259V484.25L671.195 480.57L672.018 473.937L672.028 473.897L673.027 465.813L673.311 463.525L674.349 455.232L675.241 447.962L675.329 447.246L675.427 446.5L675.956 442.254L676.093 441.101L676.475 438.167Z" fill="#929292"/>
<path d="M864.486 402.108V432.071L837.35 438.346L845.677 427.228L856.6 424.861V412.63L864.486 402.108Z" fill="#888888"/>
<path d="M856.6 412.63V424.861L845.677 427.228L856.6 412.63Z" fill="#888888"/>
<path d="M856.6 394.511V412.63L845.677 427.228L828.768 430.888L856.6 394.511Z" fill="#888888"/>
<path d="M836.409 382.329L813.878 417.542V385.591L836.409 382.329Z" fill="#929292"/>
<path d="M666.189 456.843C667.482 459.209 669.794 462.322 673.34 463.505L673.056 465.793L672.057 473.878L666.796 469.979L666.248 469.572C653.287 460.801 645.734 466.28 645.734 466.28C619.843 470.914 598.252 470.954 582.411 469.243C564.562 467.304 554.021 463.128 552.885 460.801C545.322 445.456 544.685 423.598 546.41 385.173L546.263 384.735C546.272 384.735 546.282 384.726 546.292 384.726C551.592 382.816 560.134 378.093 565.865 374.781L565.992 375C565.992 375 566.903 385.133 568.432 396.649C568.716 398.797 569.029 400.985 569.353 403.182C569.353 403.182 569.353 403.182 569.353 403.192C571.38 416.826 574.192 430.112 577.288 429.297C579.6 428.69 588.553 431.116 599.839 433.851C601.337 434.209 602.876 434.587 604.453 434.955C604.472 434.955 604.482 434.955 604.512 434.965C615.062 437.431 627.004 439.868 637.31 440.335C637.31 440.335 637.319 440.335 637.329 440.335C638.407 440.395 639.475 440.424 640.513 440.424C647.204 440.454 653.003 439.5 656.98 436.984C656.98 436.984 666.199 431.653 676.936 434.627L676.642 436.974C676.642 436.476 673.066 436.516 673.066 436.516C673.066 436.516 674.663 437.143 676.485 438.147L676.132 441.071C675.368 439.937 672.684 440.424 672.155 440.534C672.537 440.494 673.987 440.454 675.985 442.224L675.456 446.471C674.379 444.173 668.893 446.471 668.893 446.471C668.893 446.471 672.4 446.023 675.358 447.216L675.27 447.932L674.379 455.202C669.236 452.875 666.189 456.843 666.189 456.843ZM584.782 448.937C583.763 446.888 578.718 446.888 578.718 446.888C578.718 446.888 576.7 449.971 577.719 448.937C578.708 447.913 584.782 448.937 584.782 448.937Z" fill="#723310"/>
<path d="M676.632 436.994V437.004L676.485 438.167C674.663 437.163 673.066 436.536 673.066 436.536C673.066 436.536 676.632 436.506 676.632 436.994Z" fill="#58220C"/>
<path d="M676.123 441.101L675.985 442.254C673.987 440.494 672.527 440.524 672.155 440.564C672.674 440.454 675.358 439.967 676.123 441.101Z" fill="#58220C"/>
<path d="M675.456 446.49L675.358 447.236C672.4 446.043 668.893 446.49 668.893 446.49C668.893 446.49 674.369 444.183 675.456 446.49Z" fill="#58220C"/>
<path d="M672.047 473.887L672.037 473.927C671.959 474.295 671.254 476.781 666.453 472.068C666.228 471.849 665.993 471.64 665.738 471.441L666.786 469.979L672.047 473.887Z" fill="#58220C"/>
<path d="M672.037 473.937L671.214 480.57L670.019 480.421C670.019 480.232 669.912 480.063 669.686 480.033L639.102 477.328C639.073 477.328 639.024 477.328 638.994 477.338L638.26 474.196L660.076 468.935C662.182 469.452 664.191 470.238 665.748 471.451C665.993 471.65 666.238 471.859 666.463 472.077C671.254 476.781 671.969 474.305 672.037 473.937Z" fill="#888888"/>
<path d="M586.859 508.673L562.133 515.873L560.271 515.833C560.507 508.643 558.694 503.045 554.041 501.155C535.967 493.826 526.592 511.806 526.592 511.806L528.247 500.678L538.631 498.182L560.908 492.812L638.25 474.176L638.985 477.318L576.141 492.533C575.73 492.633 575.779 493.249 576.2 493.279L616.708 496.024C616.747 496.034 616.796 496.024 616.835 496.014L669.755 480.759C669.941 480.699 670.009 480.56 670.009 480.411L671.205 480.56L670.754 484.24V484.25L653.14 489.381L636.153 494.323L613.034 501.056L586.859 508.673Z" fill="#888888"/>
<path d="M670.764 484.26L669.872 491.479L669.755 491.469L669.51 491.449L669.549 491.151L653.189 489.52L653.16 489.391L670.764 484.26Z" fill="#494949"/>
<path d="M670.019 480.411C670.019 480.56 669.941 480.709 669.765 480.759L616.845 496.014C616.806 496.024 616.757 496.034 616.718 496.024L576.21 493.279C575.789 493.249 575.75 492.633 576.151 492.533L638.995 477.318C639.024 477.308 639.073 477.308 639.102 477.308L669.686 480.013C669.912 480.053 670.019 480.222 670.019 480.411Z" fill="#7A7A7A"/>
<path d="M669.51 491.449L669.755 491.469L669.873 491.479L669.716 492.722L669.236 492.653L654.708 497.078L653.836 496.959L636.203 494.453L636.173 494.333L653.16 489.391L653.189 489.52L669.549 491.151L669.51 491.449Z" fill="#494949"/>
<path d="M654.708 497.078L669.236 492.653L669.716 492.722L668.883 499.405L654.042 497.287L654.708 497.078Z" fill="#494949"/>
<path d="M654.424 506.784L632.646 503.82L654.042 497.287L668.883 499.405L668.491 502.647L668.138 502.607L655.266 506.903L654.424 506.784Z" fill="#494949"/>
<path d="M655.266 506.903L668.138 502.607L668.491 502.647L667.707 508.892L654.61 507.112L655.266 506.903Z" fill="#494949"/>
<path d="M660.576 517.991L659.714 517.882L632.588 514.451L654.61 507.112L667.707 508.892L666.453 519.035L659.89 518.2L660.576 517.991Z" fill="#494949"/>
<path d="M660.076 468.925C654.669 467.603 648.683 468.11 648.683 468.11C628.072 473.917 602.259 473.072 582.215 470.914L582.401 469.243C598.242 470.954 619.833 470.924 645.725 466.28C645.725 466.28 653.287 460.801 666.238 469.572L666.787 469.979L665.739 471.441C664.191 470.228 662.183 469.442 660.076 468.925Z" fill="#58220C"/>
<path d="M666.453 519.035L665.464 527.06L664.857 526.981L658.156 529.914L658.068 530.511L634.243 526.871L634.322 526.275L659.89 518.2L666.453 519.035Z" fill="#494949"/>
<path d="M665.464 527.06L664.906 531.555L658.068 530.511L658.156 529.914L664.857 526.981L665.464 527.06Z" fill="#494949"/>
<path d="M667.6 557.58C667.208 558.604 665.258 559.847 658.509 560.454C658.058 560.484 657.588 560.533 657.098 560.563C649.633 561.09 599.212 551.613 553.198 542.524C555.099 538.427 556.696 534.131 557.891 529.924L663.054 548.779C663.279 552.797 664.955 555.869 667.6 557.58Z" fill="#6F6872"/>
<path d="M664.906 531.555L663.182 545.458C663.045 546.621 662.996 547.735 663.064 548.779L557.901 529.924C559.312 524.972 560.164 520.119 560.291 515.843L562.152 515.883L583.802 519.184L608.949 523.023L634.253 526.881L658.078 530.521L664.906 531.555Z" fill="#888888"/>
<path d="M660.576 517.991L659.89 518.2L659.018 518.09L659.714 517.882L660.576 517.991Z" fill="#494949"/>
<path d="M659.018 518.09L659.89 518.2L634.322 526.275L634.243 526.871L608.93 523.013L609.037 522.297L631.931 514.67L659.018 518.09Z" fill="#494949"/>
<path d="M659.714 517.882L659.018 518.091L631.931 514.67L632.588 514.451L659.714 517.882Z" fill="#494949"/>
<path d="M655.266 506.903L654.61 507.112L653.767 507.002L654.424 506.784L655.266 506.903Z" fill="#494949"/>
<path d="M654.708 497.078L654.042 497.287L653.17 497.167L653.836 496.958L654.708 497.078Z" fill="#494949"/>
<path d="M654.61 507.112L632.588 514.451L631.726 514.341L653.767 507.002L654.61 507.112Z" fill="#494949"/>
<path d="M654.424 506.784L653.767 507.002L631.961 504.029L632.647 503.82L654.424 506.784Z" fill="#494949"/>
<path d="M654.041 497.287L632.646 503.82L631.755 503.701L653.17 497.167L654.041 497.287Z" fill="#494949"/>
<path d="M653.17 497.167L631.755 503.701L613.093 501.155L613.054 501.056L636.173 494.333L636.203 494.452L653.836 496.959L653.17 497.167Z" fill="#494949"/>
<path d="M653.767 507.002L631.726 514.341L607.979 511.348L631.961 504.029L653.767 507.002Z" fill="#494949"/>
<path d="M642.707 438.853C641.698 439.569 640.503 440.454 640.503 440.454C639.465 440.454 638.397 440.424 637.319 440.365C637.613 440.295 640.817 439.609 642.707 438.853Z" fill="#723310"/>
<path d="M632.647 503.82L631.961 504.029L631.079 503.91L631.755 503.701L632.647 503.82Z" fill="#494949"/>
<path d="M632.588 514.451L631.931 514.67L631.069 514.56L631.726 514.341L632.588 514.451Z" fill="#494949"/>
<path d="M631.961 504.029L607.979 511.348L607.078 511.229L631.079 503.91L631.961 504.029Z" fill="#494949"/>
<path d="M631.069 514.56L631.932 514.67L609.038 522.297L608.93 523.013L583.783 519.174L583.861 518.707L607.284 511.557L631.069 514.56Z" fill="#494949"/>
<path d="M631.079 503.91L607.078 511.229L586.859 508.673L613.054 501.056L613.093 501.155L631.755 503.701L631.079 503.91Z" fill="#494949"/>
<path d="M631.726 514.341L631.069 514.56L607.284 511.557L607.979 511.348L631.726 514.341Z" fill="#494949"/>
<path d="M610.566 433.026C613.074 432.509 607 435.343 604.502 434.985C604.482 434.975 604.472 434.975 604.443 434.975C602.866 434.607 601.338 434.229 599.829 433.871C599.829 433.871 609.155 433.314 610.566 433.026Z" fill="#723310"/>
<path d="M607.979 511.348L607.284 511.557L606.373 511.448L607.078 511.229L607.979 511.348Z" fill="#494949"/>
<path d="M606.373 511.448L607.284 511.557L583.861 518.707L583.783 519.174L562.133 515.883L586.859 508.673L607.078 511.229L606.373 511.448Z" fill="#494949"/>
<path d="M577.827 572.616L581.04 572.715L592.795 573.073C592.795 573.073 596.175 582.341 592.795 593.539V593.957L505.001 593.539L471.507 582.451C481.313 585.036 498.947 587.632 516.463 579.855L517.814 570.756L530.089 571.144H530.099L537.691 571.373L577.827 572.616Z" fill="#C6A414"/>
<path d="M566.012 468.766C556.324 467.245 550.162 465.832 550.162 465.832C545.587 450.767 541.502 430.45 542.53 407.727C542.873 400.08 542.707 392.631 542.188 385.541C543.001 385.72 544.431 385.402 546.243 384.745L546.39 385.183C544.676 423.608 545.313 445.466 552.866 460.81C554.012 463.137 564.552 467.314 582.392 469.253L582.205 470.924C580.011 470.695 577.895 470.447 575.857 470.178C572.292 469.731 568.99 469.243 566.022 468.786C566.022 468.766 566.012 468.766 566.012 468.766Z" fill="#58220C"/>
<path d="M578.708 446.878C578.708 446.878 583.763 446.878 584.772 448.927C584.772 448.927 578.708 447.913 577.699 448.927C576.69 449.961 578.708 446.878 578.708 446.878Z" fill="#58220C"/>
<path d="M530.109 571.144C531.137 570.846 595.43 552.856 581.04 572.725L577.826 572.626C587.681 559.39 537.701 571.373 537.701 571.373L530.109 571.144Z" fill="#C6A414"/>
<path d="M577.895 153.994L578.189 154.233L580.707 156.312C584.282 160.359 580.52 163.481 580.52 163.481C580.52 163.481 580.246 164.506 578.708 165.719C578.15 166.157 577.435 166.624 576.504 167.081H576.494C576.249 167.201 575.995 167.31 575.72 167.429C574.104 168.116 571.919 168.752 568.98 169.209C568.422 169.299 567.824 169.379 567.197 169.438C559.204 170.343 556.921 182.913 551.308 193.573C555.834 178.159 557.901 162.04 558.508 146.685C561.643 147.61 564.699 148.555 567.687 149.51C568.079 149.629 568.451 149.758 568.824 149.877C572.585 151.15 575.338 152.423 577.327 153.627C577.513 153.746 577.709 153.875 577.895 153.994Z" fill="#D3AD18"/>
<path d="M575.867 470.178C575.867 470.178 583.263 475.111 580.227 474.086C577.307 473.102 566.874 469.104 566.032 468.786C569 469.243 572.311 469.721 575.867 470.178Z" fill="#58220C"/>
<path d="M537.701 571.373C537.701 571.373 587.681 559.38 577.826 572.626L537.701 571.373Z" fill="#FBCE13"/>
<path d="M576.974 125.205C577.836 133.101 577.787 134.752 577.474 149.49C577.474 149.49 577.474 149.49 577.474 149.5C577.454 150.872 577.395 152.254 577.327 153.617C575.328 152.413 572.576 151.14 568.824 149.868C567.423 140.122 564.092 132.495 558.547 126.697C557.411 94.2781 551.082 69.1186 550.867 68.2634C562.319 80.5945 568.941 92.6472 574.662 114.803C574.672 114.833 574.672 114.873 574.682 114.903C574.711 115.012 574.75 115.132 574.77 115.251C575.201 117.28 576.974 125.205 576.974 125.205Z" fill="#58220C"/>
<path d="M578.698 165.719C578.581 175.823 577.013 190.123 571.312 207.148C566.051 222.83 557.421 231.303 546.086 233.759C548.124 231.641 550.083 229.403 551.964 227.066H551.974C560.752 216.127 565.669 201.39 570.44 187.587C572.282 182.247 573.8 176.837 574.946 171.427C575.084 170.781 575.221 170.134 575.338 169.498C575.475 168.812 575.612 168.116 575.72 167.429C576.004 167.31 576.249 167.201 576.494 167.081H576.504C577.425 166.624 578.14 166.157 578.698 165.719Z" fill="#251433"/>
<path d="M575.71 167.429C575.603 168.116 575.475 168.812 575.328 169.498C575.211 170.134 575.084 170.781 574.937 171.427C573.79 176.827 572.282 182.247 570.43 187.587C565.659 201.39 560.742 216.127 551.964 227.066H551.954C550.074 229.413 548.124 231.651 546.077 233.759C544.558 235.34 543.05 236.881 541.57 238.393H541.561C538.181 241.844 535.477 246.259 531.735 249.948C527.336 254.264 522.507 258.749 517.491 262.757C512.544 266.715 507.43 270.205 502.375 272.642C496.576 275.436 496.125 274.849 489.16 276.391C486.623 276.958 483.978 277.435 481.225 277.813C478.492 278.201 475.641 278.489 472.673 278.688C471.409 278.777 470.116 278.837 468.794 278.897C457.244 279.344 437.132 276.072 422.878 273.199C453.952 275.028 478.169 270.364 496.958 261.325C522.213 249.183 537.662 229.184 546.782 206.541C547.487 206.123 548.163 205.696 548.829 205.238L551.22 203.488C560.448 196.129 566.541 184.584 568.706 170.801C568.794 170.264 568.873 169.727 568.941 169.19C571.91 168.752 574.094 168.116 575.71 167.429Z" fill="#58220C"/>
<path d="M568.422 396.659L572.135 407.359L569.343 403.202C569.343 403.192 569.343 403.192 569.343 403.192C569.019 401.005 568.706 398.807 568.422 396.659Z" fill="#723310"/>
<path d="M538.876 50.632C537.534 50.4331 535.683 50.2044 533.528 49.9657C530.814 47.5293 527.836 45.2322 523.996 42.7461C531.186 41.9306 539.249 41.6522 544.402 41.5527C574.447 69.6358 574.457 113.332 574.643 114.823C568.922 92.6771 562.299 80.6145 550.848 68.2834C550.848 68.2735 550.848 68.2735 550.838 68.2635C545.43 62.446 541.678 58.0903 538.063 54.3512C536.858 53.0883 535.653 51.9049 534.409 50.7513C536.947 50.6618 538.72 50.6619 538.876 50.632Z" fill="#251433"/>
<path d="M345.027 340.572C344.557 338.663 344.263 337.678 344.204 337.489C344.263 337.688 344.547 338.782 345.027 340.572ZM345.213 341.238C346.262 345.495 348.064 353.47 350.258 366.01C353.775 386.168 365.786 409.01 365.786 409.01C364.59 410.502 363.013 411.884 361.132 413.177C344.763 424.374 305.117 428.083 284.31 429.277C276.287 429.744 271.075 429.834 271.075 429.834C271.075 429.834 271.075 423.111 265.667 409.01C251.6 386.506 255.734 325.705 261.798 301.709C264.443 291.258 284.016 280.1 305.274 270.822C305.274 270.822 305.274 270.822 305.284 270.822C344.812 264.636 374.955 256.472 376.855 257.765C376.855 257.765 398.476 293.068 418.264 297.344C418.264 297.344 451.033 311.206 472.712 289.517C519.94 288.195 524.838 269.788 524.838 269.788L544.646 288.762C544.646 288.762 560.291 314.916 568.804 357.349C568.971 367.084 571.831 371.261 571.831 371.261C571.831 371.261 569.372 372.762 565.846 374.801C560.115 378.112 551.572 382.836 546.273 384.745C540.845 334.685 528.825 324.482 528.443 324.194C528.825 325.099 539.65 351.143 542.178 385.561C542.697 392.651 542.873 400.09 542.521 407.747C541.492 430.47 545.577 450.777 550.152 465.852C550.779 467.951 551.425 469.93 552.062 471.799L550.083 472.296C549.202 469.979 547.428 468.13 547.428 468.13C546.596 467.235 545.763 466.369 544.95 465.534C545.41 465.027 545.861 464.361 546.086 463.525C547.086 459.985 544.401 453.452 524.535 443.865C499.054 431.564 468.813 451.91 468.813 451.91C448.545 461.069 419.126 466.409 396.154 469.393C397.957 468.647 400.053 465.186 400.239 464.888C397.477 468.577 390.286 470.039 388.954 470.278C388.875 470.288 388.817 470.298 388.738 470.307C384.399 470.815 380.392 471.212 376.855 471.561C376.659 454.277 367.157 425.677 366.089 418.089C365.012 410.412 368.244 408.224 368.244 408.224C358.409 388.236 348.378 352.824 345.213 341.238ZM492.422 396.4L492.53 372.255L486.162 380.887L486.231 366.915L463.278 396.659L476.592 393.865L471.204 401.174L492.422 396.4Z" fill="#D8D8D8"/>
<path d="M568.971 169.2C568.892 169.737 568.824 170.274 568.735 170.811C566.561 184.584 560.477 196.139 551.249 203.498L548.859 205.248C548.193 205.706 547.507 206.133 546.811 206.551C548.526 202.305 550.015 197.969 551.298 193.563C556.911 182.903 559.204 170.343 567.188 169.428C567.815 169.369 568.412 169.289 568.971 169.2Z" fill="#D69274"/>
<path d="M568.814 149.877C568.451 149.758 568.069 149.629 567.677 149.51C564.69 148.555 561.633 147.6 558.498 146.685C558.782 139.834 558.753 133.141 558.528 126.717C564.082 132.505 567.403 140.142 568.814 149.877Z" fill="#D69274"/>
<path d="M560.918 492.822L538.641 498.192L528.257 500.688L529.482 492.464V492.454C529.482 492.454 529.393 492.255 529.149 491.917C532.959 495.477 535.663 495.069 535.663 495.069C535.683 495.059 535.693 495.059 535.722 495.049C542.403 492.255 539.993 487.153 539.827 486.805C541.022 488.784 543.559 489.172 545.626 488.436C547.076 487.929 548.281 486.875 548.643 485.463C549.143 483.514 549.74 482.241 547.468 479.248C548.134 478.899 548.673 478.502 549.113 478.094C550.985 476.334 550.838 474.136 550.132 472.267L552.111 471.769C556.49 484.737 560.781 492.573 560.918 492.822Z" fill="#D8D8D8"/>
<path d="M554.051 501.155C558.704 503.044 560.516 508.643 560.281 515.833C560.164 520.109 559.312 524.962 557.891 529.914C561.506 508.146 550.397 507.132 550.397 507.132C536.408 501.453 525.916 521.81 524.838 523.997L524.78 523.988L526.592 511.816C526.602 511.816 535.977 493.826 554.051 501.155Z" fill="#3B1B4D"/>
<path d="M558.528 126.707C558.753 133.131 558.773 139.824 558.498 146.675C554.786 145.572 550.965 144.508 546.997 143.523C532.303 139.864 515.708 137.149 495.773 137.009C493.99 137 492.226 136.93 490.453 136.781C489.65 136.711 488.866 136.642 488.063 136.542C497.928 117.131 521.39 111.204 535.183 114.545C545.361 117.001 553.042 120.959 558.528 126.707Z" fill="#F1A57F"/>
<path d="M550.397 507.132C550.397 507.132 561.506 508.156 557.891 529.914C556.696 534.121 555.099 538.417 553.199 542.514C548.594 552.478 542.266 561.309 535.653 565.128C535.644 565.128 535.624 565.138 535.614 565.148C528.463 568.837 524.75 554.895 524.554 554.119C525.671 556.098 526.817 557.809 527.709 558.445C532.714 563.378 541.306 553.662 547.448 541.37C549.447 537.373 551.19 533.087 552.483 528.94C555.638 518.747 555.971 509.399 550.397 507.132Z" fill="#261333"/>
<path d="M551.866 157.893C553.561 161.035 554.55 165.162 553.963 170.522C553.933 170.781 553.894 171.059 553.874 171.338C553.816 171.666 553.776 171.994 553.727 172.332C553.669 172.64 553.62 172.949 553.551 173.267C553.492 173.585 553.434 173.903 553.355 174.231C548.986 196.099 535.203 201.599 524.309 203.279C524.299 203.279 524.29 203.279 524.29 203.289C524.162 203.299 524.045 203.319 523.908 203.349C523.898 203.339 523.888 203.349 523.868 203.349C523.692 203.369 523.525 203.408 523.349 203.418C523.153 203.448 522.957 203.478 522.781 203.508C522.771 203.508 522.771 203.508 522.771 203.508C522.761 203.498 522.752 203.508 522.742 203.518C522.614 203.528 522.497 203.538 522.36 203.548C522.223 203.558 522.105 203.577 521.968 203.587C521.723 203.617 521.478 203.647 521.233 203.677C520.998 203.697 520.773 203.717 520.528 203.747C520.459 203.756 520.4 203.756 520.342 203.766C520.224 203.766 520.116 203.786 520.009 203.786C519.822 203.806 519.656 203.816 519.48 203.826C507.998 204.751 498.006 192.977 496.762 173.754C496.664 172.213 496.595 170.721 496.576 169.289C496.556 167.857 496.566 166.495 496.615 165.182C496.635 164.854 496.644 164.526 496.674 164.207C496.674 164.197 496.674 164.197 496.674 164.188C496.713 163.551 496.772 162.935 496.821 162.328C496.85 162.02 496.889 161.711 496.929 161.403C496.929 161.363 496.938 161.324 496.948 161.294C496.968 161.075 497.007 160.866 497.036 160.667C497.036 160.598 497.046 160.548 497.056 160.488C497.075 160.339 497.095 160.18 497.124 160.021C497.144 159.961 497.144 159.921 497.154 159.872C497.164 159.812 497.173 159.752 497.173 159.703L497.193 159.613C497.213 159.504 497.232 159.394 497.262 159.285C497.271 159.245 497.281 159.185 497.281 159.136C497.301 159.046 497.311 158.967 497.34 158.887C497.369 158.738 497.399 158.589 497.438 158.45C497.526 158.002 497.634 157.574 497.742 157.157C497.81 156.918 497.879 156.679 497.947 156.441L497.957 156.411C498.026 156.162 498.094 155.934 498.182 155.695C498.192 155.675 498.202 155.635 498.202 155.605C498.222 155.566 498.241 155.516 498.261 155.466C498.329 155.247 498.408 155.049 498.486 154.84C498.672 154.333 498.888 153.855 499.123 153.398C499.191 153.229 499.26 153.09 499.348 152.94C499.417 152.801 499.485 152.662 499.564 152.523C499.632 152.423 499.681 152.324 499.74 152.224C499.867 151.996 500.014 151.787 500.152 151.578C500.318 151.319 500.485 151.061 500.671 150.822C500.965 150.434 501.278 150.066 501.601 149.718C504.883 149.291 540.277 145.223 551.866 157.893ZM529.305 174.629C530.98 166.753 526.033 158.987 518.275 157.286C510.516 155.596 502.865 160.608 501.19 168.484C499.515 176.36 504.462 184.136 512.221 185.827C519.989 187.527 527.63 182.515 529.305 174.629Z" fill="#F2CAB0"/>
<path d="M550.397 507.132C555.971 509.399 555.638 518.747 552.474 528.95L545.087 527.627L524.838 523.998C525.926 521.81 536.408 501.454 550.397 507.132Z" fill="#888888"/>
<path d="M545.087 527.627L552.474 528.95C551.19 533.097 549.437 537.383 547.438 541.38C538.945 539.7 530.657 538.049 522.918 536.488L524.75 524.176C524.75 524.176 524.779 524.107 524.838 523.988L545.087 527.627Z" fill="#6F6872"/>
<path d="M551.69 157.555C551.759 157.664 551.817 157.773 551.876 157.893C540.277 145.223 504.883 149.291 501.611 149.699C502.258 149.012 502.983 148.386 503.786 147.849C506.451 146.029 509.928 145.084 514.425 145.035H515.189C515.473 145.044 515.738 145.045 516.022 145.054C516.365 145.064 516.727 145.084 517.08 145.114C517.383 145.124 517.687 145.144 517.991 145.174C518.265 145.194 518.549 145.204 518.823 145.214C529.178 145.86 535.027 147.014 537.916 147.759C537.956 147.769 538.005 147.779 538.044 147.789L538.142 147.809C538.22 147.819 538.289 147.839 538.357 147.869C538.445 147.899 538.543 147.928 538.641 147.948C538.759 147.978 538.857 148.018 538.955 148.038C538.984 148.058 539.023 148.058 539.053 148.068H539.063C539.141 148.088 539.209 148.107 539.278 148.137C539.356 148.157 539.415 148.177 539.474 148.207C539.641 148.266 539.758 148.296 539.856 148.336C539.915 148.346 539.954 148.366 540.003 148.376C540.062 148.396 540.101 148.416 540.14 148.436C540.16 148.446 540.199 148.455 540.209 148.455C540.219 148.465 540.238 148.465 540.238 148.465C540.238 148.465 540.268 148.475 540.346 148.495C540.375 148.515 540.414 148.515 540.454 148.525C541.59 148.863 546.762 150.603 550.387 155.566C550.446 155.635 550.495 155.715 550.563 155.794C550.945 156.322 551.328 156.918 551.69 157.555Z" fill="#EAB096"/>
<path d="M365.688 111.442C369.263 111.333 373.642 111.512 379.011 112.069C380.529 112.218 382.057 112.387 383.576 112.546C391.785 113.441 399.984 114.465 408.233 115.748C428.217 118.871 448.378 123.565 469.215 131.799C471.331 132.644 473.476 133.38 475.631 134.016C478.815 134.961 482.038 135.687 485.271 136.174C486.202 136.313 487.142 136.453 488.063 136.542C488.866 136.642 489.65 136.721 490.453 136.781C492.236 136.93 494 136.999 495.773 137.009C515.708 137.139 532.303 139.864 546.997 143.523C550.955 144.508 554.786 145.572 558.498 146.675C557.891 162.03 555.824 178.15 551.298 193.564C548.173 199.49 544.019 204.84 537.28 207.257C529.384 210.181 522.605 211.414 516.835 211.245C512.27 211.105 508.341 210.081 505.011 208.331C495.596 203.389 490.923 192.629 489.581 179.542C488.778 171.755 487.289 166.256 485.653 162.378C484.252 159.076 481.411 157.028 478.227 156.441C478.169 156.431 478.11 156.421 478.041 156.411C474.867 155.884 471.36 156.819 468.608 159.424C465.306 162.567 461.388 167.4 457.087 174.828C447.075 192.141 431.862 203.806 410.564 198.904C404.745 197.571 398.417 195.005 391.56 190.948C390.56 190.351 389.542 189.735 388.513 189.079C379.706 183.559 377.326 175.027 376.63 166.296C375.709 155.039 377.58 143.453 372.065 137.527C371.066 136.453 369.822 135.568 368.274 134.891C367.637 134.613 367.03 134.344 366.452 134.076C366.452 134.046 366.452 134.016 366.452 133.986L366.442 134.076C361.71 131.888 358.507 129.849 356.342 128.05C355.362 127.234 354.608 126.468 354.01 125.782C354.01 125.772 354.01 125.772 354.01 125.772C353.256 124.887 352.766 124.121 352.423 123.505C351.581 122.043 350.905 121.098 350.905 121.098C350.905 121.098 348.456 116.961 353.148 114.107C354.912 113.033 357.694 112.138 361.994 111.701C363.101 111.562 364.336 111.492 365.688 111.442ZM501.611 149.699C501.288 150.047 500.974 150.425 500.681 150.802C500.494 151.041 500.328 151.3 500.161 151.558C500.024 151.767 499.877 151.976 499.75 152.205C499.691 152.304 499.642 152.403 499.574 152.503C499.495 152.642 499.427 152.781 499.358 152.921C499.27 153.07 499.192 153.219 499.133 153.378C498.898 153.835 498.682 154.323 498.496 154.82C498.418 155.029 498.329 155.228 498.271 155.446C498.261 155.506 498.241 155.546 498.212 155.586C498.212 155.616 498.202 155.655 498.192 155.675C498.104 155.904 498.026 156.133 497.967 156.391L497.957 156.421C497.889 156.65 497.82 156.888 497.752 157.137C497.644 157.555 497.536 157.982 497.448 158.43C497.409 158.569 497.379 158.718 497.35 158.867C497.33 158.957 497.32 159.036 497.291 159.116C497.291 159.176 497.281 159.225 497.272 159.265C497.252 159.374 497.232 159.484 497.203 159.593L497.183 159.683C497.183 159.723 497.174 159.792 497.164 159.852C497.154 159.911 497.154 159.951 497.134 160.001C497.115 160.17 497.095 160.319 497.066 160.468C497.056 160.528 497.046 160.578 497.046 160.647C497.017 160.846 496.978 161.055 496.958 161.274C496.948 161.304 496.938 161.343 496.938 161.383C496.899 161.692 496.86 162 496.831 162.308C496.772 162.925 496.723 163.531 496.684 164.168C496.684 164.178 496.684 164.178 496.684 164.188C496.664 164.506 496.654 164.834 496.625 165.162C496.566 166.475 496.556 167.847 496.586 169.269C496.615 170.691 496.674 172.183 496.772 173.734C498.016 192.957 508.008 204.731 519.49 203.806C519.666 203.796 519.832 203.786 520.018 203.766C520.126 203.766 520.234 203.747 520.352 203.747C520.41 203.737 520.469 203.737 520.538 203.727C520.773 203.707 520.998 203.687 521.243 203.657C521.488 203.627 521.733 203.597 521.978 203.568C522.105 203.558 522.232 203.538 522.37 203.528C522.507 203.518 522.614 203.508 522.752 203.498C522.761 203.488 522.771 203.478 522.781 203.488C522.781 203.488 522.781 203.488 522.791 203.488C522.977 203.458 523.173 203.428 523.359 203.399C523.535 203.389 523.702 203.359 523.878 203.329C523.898 203.329 523.908 203.319 523.917 203.329C524.045 203.309 524.162 203.289 524.299 203.269C524.299 203.259 524.309 203.259 524.319 203.259C535.213 201.579 548.986 196.079 553.365 174.212C553.443 173.883 553.502 173.565 553.561 173.247C553.63 172.929 553.679 172.62 553.737 172.312C553.796 171.974 553.835 171.646 553.884 171.318C553.904 171.039 553.943 170.771 553.972 170.502C554.57 165.142 553.571 161.025 551.876 157.873C551.817 157.754 551.758 157.644 551.69 157.535C551.337 156.898 550.945 156.312 550.544 155.755C550.475 155.675 550.426 155.586 550.367 155.526C546.743 150.574 541.57 148.833 540.434 148.485C540.395 148.475 540.356 148.475 540.326 148.455C540.248 148.436 540.218 148.426 540.218 148.426C540.218 148.426 540.199 148.426 540.189 148.416C540.179 148.416 540.15 148.406 540.12 148.396C540.081 148.386 540.032 148.366 539.983 148.336C539.925 148.326 539.885 148.306 539.836 148.296C539.738 148.257 539.621 148.217 539.454 148.167C539.396 148.147 539.337 148.127 539.258 148.098C539.19 148.078 539.121 148.058 539.043 148.028H539.033C539.004 148.018 538.965 148.018 538.935 147.998C538.837 147.978 538.739 147.938 538.622 147.909C538.524 147.889 538.426 147.869 538.338 147.829C538.269 147.809 538.2 147.789 538.122 147.769L538.024 147.749C537.985 147.74 537.936 147.73 537.897 147.72C535.017 146.974 529.158 145.82 518.804 145.174C518.529 145.164 518.245 145.154 517.971 145.134C517.667 145.114 517.364 145.094 517.06 145.074C516.707 145.055 516.345 145.035 516.002 145.015C515.718 145.005 515.453 145.005 515.169 144.995H514.405C509.919 145.055 506.441 145.989 503.766 147.809C502.983 148.376 502.258 149.002 501.611 149.699ZM458.86 147.988V147.242C458.85 146.805 458.831 146.367 458.782 145.94C458.38 141.803 456.323 138.382 452.267 135.458C451.954 135.239 451.631 135.021 451.288 134.792C450.661 134.374 449.995 133.966 449.27 133.579C448.907 133.38 448.535 133.181 448.153 132.982C447.771 132.793 447.389 132.614 446.977 132.415C446.919 132.395 446.879 132.375 446.84 132.346C446.301 132.087 445.743 131.828 445.145 131.6C445.136 131.6 445.126 131.6 445.126 131.59C444.93 131.5 444.734 131.421 444.538 131.351C444.332 131.262 444.127 131.182 443.921 131.102C443.627 130.983 443.353 130.874 443.069 130.764C424.642 123.485 417.197 123.624 416.031 123.704C415.992 123.704 415.952 123.704 415.933 123.714C415.874 123.714 415.864 123.714 415.864 123.714C415.864 123.714 415.835 123.714 415.786 123.714C415.766 123.724 415.727 123.714 415.698 123.714H415.374C413.268 123.674 404.442 123.843 396.644 128.825C396.634 128.835 396.615 128.845 396.605 128.845C396.056 129.183 395.517 129.531 394.979 129.929C394.969 129.929 394.949 129.939 394.939 129.949C394.528 130.237 394.126 130.546 393.734 130.874C393.588 130.993 393.431 131.122 393.274 131.242C392.814 131.639 392.353 132.057 391.912 132.485C391.765 132.634 391.599 132.803 391.442 132.962C391.109 133.31 390.766 133.698 390.423 134.076C389.894 134.712 389.375 135.388 388.905 136.114C388.738 136.333 388.591 136.572 388.454 136.821C388.307 137.049 388.151 137.298 388.013 137.556C387.876 137.795 387.729 138.064 387.602 138.312C387.494 138.521 387.396 138.73 387.288 138.949C387.269 138.988 387.23 139.038 387.22 139.088C387.083 139.346 386.946 139.625 386.838 139.903C386.818 139.963 386.799 140.003 386.769 140.052C386.681 140.251 386.593 140.47 386.515 140.679C386.505 140.699 386.495 140.739 386.475 140.768C386.456 140.858 386.407 140.947 386.377 141.027C386.299 141.236 386.231 141.445 386.162 141.654C385.643 143.135 385.241 144.736 384.986 146.447C379.745 172.402 394.028 183.162 406.626 188.392C407.126 188.601 407.606 188.8 408.086 188.989C408.37 189.088 408.635 189.198 408.909 189.297C409.134 189.387 409.34 189.466 409.555 189.546C409.986 189.695 410.418 189.854 410.839 190.003C411.476 190.222 412.112 190.431 412.739 190.63C413.053 190.739 413.376 190.829 413.689 190.918C426.542 194.359 442.54 185.15 452.336 166.922C452.522 166.584 452.698 166.236 452.875 165.908C453.198 165.291 453.502 164.695 453.796 164.098C453.874 163.959 453.942 163.8 454.021 163.661C454.158 163.372 454.295 163.094 454.432 162.815C454.56 162.527 454.707 162.258 454.834 161.97C454.932 161.771 455.03 161.562 455.118 161.363C455.177 161.244 455.226 161.145 455.265 161.035V161.025C455.402 160.717 455.539 160.419 455.676 160.12C455.765 159.921 455.853 159.723 455.921 159.524C456.01 159.315 456.098 159.106 456.176 158.897C456.382 158.42 456.578 157.923 456.744 157.455C456.93 156.958 457.107 156.481 457.263 155.993C457.332 155.844 457.381 155.675 457.44 155.516C457.499 155.337 457.548 155.168 457.606 154.989C457.743 154.571 457.861 154.154 457.969 153.746C458.253 152.702 458.468 151.707 458.615 150.743C458.655 150.494 458.684 150.245 458.713 150.007C458.743 149.788 458.772 149.569 458.801 149.35C458.801 149.211 458.821 149.052 458.831 148.913C458.831 148.823 458.841 148.724 458.841 148.625C458.85 148.475 458.86 148.316 458.86 148.167C458.85 148.107 458.86 148.038 458.86 147.988Z" fill="#FDCE12"/>
<path d="M544.411 41.5527C539.258 41.6521 531.196 41.9405 524.006 42.746C515.796 43.6709 508.723 45.2918 508.41 48.1061C508.469 48.832 509.262 49.2497 509.899 48.9315C511.848 47.947 524.966 49.021 533.537 49.9756C533.841 50.2342 534.135 50.5027 534.419 50.7613C526.004 51.0894 509.252 52.4518 516.09 58.7864C516.09 58.7864 518.833 51.7159 538.073 54.3611C541.688 58.1003 545.44 62.446 550.847 68.2734C550.857 68.2834 550.857 68.2834 550.857 68.2933C551.073 69.1485 557.401 94.298 558.538 126.727C553.052 120.969 545.361 117.011 535.193 114.565C521.41 111.223 497.947 117.15 488.073 136.562C487.142 136.462 486.202 136.333 485.281 136.194C483.831 111.9 460.996 88.0828 433.605 86.2232C417.118 85.1094 396.125 97.0129 383.586 112.576C382.067 112.407 380.539 112.248 379.02 112.099C373.652 111.542 369.273 111.363 365.697 111.472C364.649 104.571 362.857 98.0869 360.407 92.2793C360.398 92.2694 360.398 92.2495 360.388 92.2395C357.41 85.169 353.472 79.0731 348.75 74.3296C348.75 74.3296 348.858 74.2102 349.063 73.9915C349.191 73.8522 349.377 73.6534 349.602 73.4147C349.71 73.3053 349.837 73.176 349.965 73.0269C359.536 63.0725 423.838 0.253433 497.938 29.1321C497.996 29.1222 498.045 29.1122 498.104 29.1023C505.853 27.4316 514.395 26.1587 523.496 25.6416C532.479 25.1245 542.001 25.3632 551.856 26.7156C551.474 26.8548 541.727 27.9686 530.324 29.8282C523.29 30.9817 515.64 32.4237 509.164 34.1143C501.484 36.1131 495.449 38.45 494.009 41.0654C493.441 42.1096 494.666 43.1736 495.567 42.4179C497.507 40.777 504.687 38.3406 516.56 37.9727C523.673 37.7639 532.489 38.281 542.854 40.1505C545.087 40.5582 547.399 41.0157 549.77 41.5527C549.584 41.503 547.517 41.493 544.411 41.5527Z" fill="#723310"/>
<path d="M319.939 536.418C318.038 534.777 316.177 532.57 314.404 529.914C313.346 528.343 312.308 526.633 311.299 524.773C311.22 524.644 311.161 524.515 311.083 524.365C311.044 524.286 311.014 524.246 311.014 524.246C301.865 507.221 294.606 479.486 289.962 458.364C289.962 458.354 289.962 458.354 289.962 458.354C289.57 456.604 289.208 454.894 288.865 453.233C288.845 453.064 288.806 452.915 288.767 452.755C288.767 452.746 288.757 452.726 288.757 452.716C287.611 447.266 286.671 442.443 285.975 438.614C284.898 432.817 284.32 429.287 284.32 429.287V429.267C305.127 428.073 344.773 424.364 361.142 413.167C361.142 413.167 371.301 452.895 370.909 472.068C372.702 471.928 374.69 471.749 376.855 471.541C380.402 471.202 384.399 470.795 388.738 470.288C388.817 470.278 388.875 470.268 388.954 470.258C390.982 470.029 393.078 469.78 395.233 469.492C395.233 469.492 395.233 469.492 395.243 469.492C395.527 469.562 395.841 469.512 396.154 469.373C419.126 466.389 448.554 461.049 468.813 451.89C468.813 451.89 499.054 431.544 524.535 443.845C544.401 453.432 547.086 459.965 546.086 463.505C522.046 441.001 507.518 447.654 507.518 447.654L507.597 448.052C510.516 447.495 525.455 445.884 544.95 465.514C545.773 466.35 546.606 467.215 547.428 468.11C547.428 468.11 549.202 469.959 550.083 472.276C550.798 474.146 550.936 476.344 549.064 478.104C523.163 449.981 506.833 459.199 506.157 459.607C506.852 459.418 520.929 455.828 535.634 468.11C542.197 473.589 545.675 476.94 547.428 479.257C549.711 482.251 549.104 483.524 548.604 485.473C548.251 486.885 547.037 487.939 545.587 488.446V488.436C522.546 459.597 505.608 469.83 505.011 470.198C505.775 469.949 523.006 464.39 539.778 486.795C539.778 486.795 539.778 486.805 539.787 486.815C539.964 487.163 542.364 492.265 535.683 495.059L535.575 494.801C512.897 469.591 504.139 483.006 504.139 483.006C500.21 482.609 495.684 482.38 490.463 482.38C488.367 482.38 486.388 482.41 484.517 482.479C454.609 483.514 451.542 492.464 451.542 492.464L451.895 495.049L451.542 495.109C385.868 537.065 320.037 536.508 320.037 536.508V536.518C320.037 536.518 320.037 536.518 320.027 536.518C320.007 536.468 319.968 536.448 319.939 536.418ZM335.025 499.226H328.961C328.961 499.226 330.989 510.513 328.961 511.547C328.952 511.547 333.007 510.523 335.025 499.226Z" fill="#723310"/>
<path d="M549.084 478.114C548.653 478.522 548.114 478.91 547.438 479.268C545.685 476.95 542.217 473.599 535.644 468.12C520.939 455.828 506.862 459.428 506.167 459.617C506.852 459.2 523.183 449.981 549.084 478.114Z" fill="#58220C"/>
<path d="M495.43 229.672C471.439 233.073 450.582 222.979 441.991 217.967C441.932 218.464 440.855 230.437 449.191 239.01C449.191 239.01 462.279 260.062 483.841 244.409V244.399C490.914 240.203 493.706 232.854 495.43 229.672ZM551.298 193.573C550.015 197.979 548.526 202.325 546.811 206.561C541.658 209.604 535.742 211.503 529.149 211.991C529.374 215.59 529.129 219.21 528.365 222.82C525.22 237.657 513.788 252.206 496.576 260.49C481.931 267.53 463.131 270.026 441.658 264.338C406.587 255.04 384.81 221.985 390.619 194.528C390.874 193.315 391.187 192.122 391.56 190.948C398.417 195.005 404.745 197.571 410.564 198.904C431.871 203.806 447.075 192.141 457.087 174.828C461.388 167.41 465.306 162.577 468.608 159.424C468.608 159.424 484.909 155.387 485.281 174.46C485.643 193.534 493.941 207.277 505.02 208.341C508.341 210.091 512.279 211.115 516.845 211.255C522.624 211.424 529.403 210.191 537.289 207.267C544.019 204.85 548.173 199.5 551.298 193.573ZM484.448 204.94C486.682 202.275 487.691 199.421 486.691 198.566C485.712 197.71 483.086 199.182 480.853 201.847C478.619 204.512 477.61 207.356 478.61 208.222C479.609 209.067 482.215 207.595 484.448 204.94ZM467.128 206.193C468.48 205.696 468.539 202.344 467.265 198.705C465.982 195.065 463.856 192.499 462.495 192.997C461.133 193.494 461.074 196.845 462.358 200.485C463.621 204.134 465.767 206.69 467.128 206.193Z" fill="#F1A57F"/>
<path d="M546.273 384.735C546.263 384.735 546.253 384.745 546.243 384.745C544.431 385.402 542.991 385.72 542.187 385.541C539.66 351.123 528.835 325.089 528.453 324.174C528.825 324.482 540.845 334.685 546.273 384.735Z" fill="#B7B6B6"/>
<path d="M545.607 488.436V488.446C543.539 489.182 541.002 488.794 539.807 486.815C539.797 486.805 539.797 486.795 539.797 486.795C523.026 464.39 505.794 469.949 505.03 470.198C505.628 469.82 522.566 459.597 545.607 488.436Z" fill="#58220C"/>
<path d="M546.096 463.505C545.871 464.341 545.43 465.007 544.96 465.514C525.465 445.884 510.516 447.495 507.607 448.052L507.528 447.654C507.528 447.664 522.046 441.011 546.096 463.505Z" fill="#58220C"/>
<path d="M529.139 211.981C535.732 211.503 541.649 209.604 546.802 206.551C537.681 229.194 522.232 249.183 496.978 261.335L496.566 260.48C513.778 252.196 525.211 237.647 528.355 222.81C529.119 219.21 529.364 215.58 529.139 211.981Z" fill="#723310"/>
<path d="M534.419 50.7612C535.663 51.9148 536.858 53.0982 538.073 54.3611C518.833 51.7159 516.09 58.7864 516.09 58.7864C509.253 52.4418 526.014 51.0894 534.419 50.7612Z" fill="#58220C"/>
<path d="M530.314 29.7885C534.644 32.8812 539.209 36.8291 542.824 40.1009C532.46 38.2313 523.653 37.7142 516.531 37.923C515.444 37.1573 509.145 34.0745 509.145 34.0745C515.639 32.384 523.29 30.942 530.314 29.7885Z" fill="#251433"/>
<path d="M535.595 494.791L535.702 495.049C535.683 495.059 535.673 495.059 535.644 495.069C535.644 495.069 532.94 495.477 529.129 491.917C528.845 491.509 528.326 490.912 527.473 490.196C526.758 489.59 525.798 488.913 524.525 488.227C524.525 488.217 524.525 488.217 524.515 488.217C524.133 487.81 516.874 480.132 507.989 483.454C506.784 483.285 505.491 483.136 504.148 483.006C504.158 482.996 512.926 469.581 535.595 494.791Z" fill="#58220C"/>
<path d="M524.554 554.129C524.75 554.905 528.463 568.847 535.614 565.158C532.626 566.868 529.58 567.554 526.611 566.858C520.097 564.103 520.332 556.973 520.087 555.601V555.591L521.4 546.78C521.821 548.52 523.124 551.524 524.544 554.099C524.554 554.109 524.554 554.119 524.554 554.129Z" fill="#3B1B4D"/>
<path d="M547.438 541.38C541.296 553.682 532.715 563.387 527.699 558.455C526.817 557.819 525.661 556.108 524.545 554.129C524.545 554.119 524.545 554.109 524.535 554.099C523.124 551.524 521.811 548.52 521.39 546.78L522.909 536.498C530.667 538.049 538.945 539.71 547.438 541.38Z" fill="#FBCE13"/>
<path d="M529.472 492.454V492.464C529.472 492.464 521.674 496.103 509.086 498.291C502.091 499.504 493.617 500.27 484.174 499.713C481.382 499.544 478.492 499.266 475.543 498.848C459.242 486.875 520.459 486.785 521.478 486.785H521.488C522.654 487.253 523.663 487.74 524.525 488.207C524.534 488.207 524.534 488.207 524.534 488.217C525.808 488.904 526.768 489.59 527.483 490.186C528.051 490.843 528.61 491.41 529.139 491.907C529.393 492.255 529.472 492.454 529.472 492.454Z" fill="#261333"/>
<path d="M529.472 492.464L528.247 500.688L526.592 511.816L524.78 523.988L524.75 524.186L522.918 536.498L521.4 546.78L520.087 555.591V555.601L517.834 570.756L516.482 579.855C498.957 587.642 481.323 585.037 471.527 582.451C471.517 582.441 471.507 582.441 471.498 582.441L463.709 579.865C463.69 579.855 463.68 579.855 463.68 579.855L461.917 567.127C480.696 571.293 492.119 564.332 499.035 553.433H505.902V539.6L504.824 540.694C511.094 521.104 509.096 498.291 509.096 498.291C521.684 496.103 529.472 492.464 529.472 492.464Z" fill="#261333"/>
<path d="M518.265 157.286C526.024 158.987 530.971 166.743 529.296 174.629C527.62 182.505 519.979 187.527 512.211 185.827C504.452 184.136 499.505 176.37 501.18 168.484C502.865 160.608 510.506 155.606 518.265 157.286ZM514.875 172.382C515.522 169.309 513.602 166.276 510.565 165.62C507.528 164.953 504.55 166.912 503.894 169.995C503.247 173.068 505.177 176.101 508.204 176.757C511.241 177.414 514.219 175.465 514.875 172.382Z" fill="#0D0D0C"/>
<path d="M524.006 42.7461C527.846 45.2322 530.834 47.5393 533.537 49.9658C524.966 49.0111 511.858 47.9371 509.899 48.9216C509.262 49.2398 508.459 48.8222 508.41 48.0962C508.723 45.2919 515.796 43.661 524.006 42.7461Z" fill="#58220C"/>
<path d="M517.511 262.757L524.838 269.778C524.838 269.778 519.94 288.185 472.712 289.508C475.837 286.395 478.717 282.546 481.245 277.813C483.997 277.425 486.643 276.958 489.18 276.391C496.145 274.849 496.596 275.436 502.395 272.642C507.45 270.215 512.563 266.715 517.511 262.757Z" fill="#B7B6B6"/>
<path d="M524.535 488.218C523.673 487.75 522.664 487.263 521.498 486.795H521.488C518.334 485.513 513.984 484.299 507.999 483.454C516.884 480.123 524.153 487.81 524.535 488.218Z" fill="#C6C5C4"/>
<path d="M510.575 165.62C513.612 166.276 515.532 169.309 514.885 172.382C514.229 175.465 511.251 177.414 508.214 176.757C505.187 176.101 503.257 173.068 503.904 169.995C504.56 166.912 507.538 164.953 510.575 165.62Z" fill="#F2F2F2"/>
<path d="M509.154 34.0745C509.154 34.0745 515.453 37.1572 516.541 37.923C504.677 38.2909 497.497 40.7273 495.547 42.3682C494.656 43.1239 493.421 42.0599 493.99 41.0157C495.44 38.4202 501.484 36.0733 509.154 34.0745Z" fill="#58220C"/>
<path d="M509.096 498.301C509.096 498.301 511.094 521.124 504.824 540.704L501.846 543.747V535.483L488.288 549.316H496.39L492.354 553.433H499.045C492.128 564.332 480.696 571.283 461.926 567.127L457.293 533.763L456.411 527.349L452.982 502.597L451.934 495.039L451.582 492.454C459.908 495.775 467.981 497.774 475.582 498.858C478.531 499.276 481.411 499.564 484.213 499.723C493.617 500.28 502.091 499.514 509.096 498.301Z" fill="#3B1B4D"/>
<path d="M486.182 8.52722C500.779 13.2608 513.092 19.118 523.486 25.6018C514.386 26.1189 505.843 27.4018 498.094 29.0625C496.674 28.4957 495.253 27.9686 493.843 27.4714C487.387 9.94926 466.256 3.42572 466.256 3.42572C472.693 4.63894 479.344 6.30961 486.182 8.52722Z" fill="#251433"/>
<path d="M507.999 483.444C513.984 484.289 518.334 485.503 521.488 486.785C520.469 486.785 459.252 486.885 475.553 498.848C467.951 497.764 459.879 495.765 451.552 492.444C451.552 492.444 454.618 483.494 484.527 482.46C486.407 482.39 488.377 482.36 490.473 482.36C495.694 482.36 500.22 482.589 504.149 482.987C505.51 483.126 506.794 483.285 507.999 483.444Z" fill="#331944"/>
<path d="M505.892 539.61V553.443H499.025C499.867 552.13 500.641 550.748 501.356 549.326H501.827V548.351C502.983 545.905 503.972 543.339 504.805 540.714L505.892 539.61Z" fill="#261333"/>
<path d="M505.011 593.539L434.34 593.201L322.006 592.664L274.905 592.435L291.304 587.165L308.193 581.725L439.904 539.352L457.264 533.763L461.897 567.127L463.66 579.855C463.66 579.855 463.67 579.855 463.69 579.865C464.033 580.015 466.893 581.228 471.478 582.441C471.488 582.441 471.498 582.441 471.507 582.451L505.011 593.539Z" fill="#FBCE13"/>
<path d="M501.836 543.747L504.815 540.704C503.982 543.339 502.992 545.895 501.836 548.341V543.747Z" fill="#3B1B4D"/>
<path d="M501.836 543.747V548.342C501.689 548.67 501.523 548.988 501.366 549.316H496.38L501.836 543.747Z" fill="#3B1B4D"/>
<path d="M501.837 535.483V543.747L496.37 549.316H488.279L501.837 535.483Z" fill="#3B1B4D"/>
<path d="M496.37 549.316H501.357C500.641 550.738 499.868 552.12 499.025 553.433H492.334L496.37 549.316Z" fill="#3B1B4D"/>
<path d="M489.581 179.542C490.923 192.629 495.596 203.389 505.011 208.331C493.931 207.267 485.643 193.524 485.271 174.45C484.909 155.377 468.598 159.414 468.598 159.414C471.35 156.809 474.858 155.874 478.032 156.401C478.1 156.411 478.159 156.421 478.218 156.431C481.401 157.028 484.242 159.076 485.643 162.368C487.289 166.256 488.778 171.755 489.581 179.542Z" fill="#D69274"/>
<path d="M496.566 260.48L496.978 261.335C478.188 270.364 453.972 275.038 422.898 273.209C422.888 273.209 422.888 273.209 422.888 273.209C420.557 272.741 418.402 272.284 416.442 271.856C412.788 271.07 409.213 270.156 405.686 269.141C405.676 269.141 405.676 269.141 405.676 269.131C403.854 268.604 402.052 268.047 400.259 267.461C396.664 266.297 393.147 265.004 389.689 263.602C388.797 263.254 387.906 262.876 387.024 262.508L387.014 262.498C383.556 261.027 380.167 259.455 376.865 257.765C372.143 255.368 367.598 252.753 363.229 249.948C344.028 237.647 328.227 221.637 316.932 203.448C339.963 201.261 360.976 174.898 365.776 140.182C365.913 139.148 366.05 138.133 366.158 137.109C366.275 136.085 366.364 135.07 366.452 134.066C367.04 134.324 367.637 134.603 368.274 134.881C369.822 135.548 371.056 136.443 372.065 137.517C370.899 148.058 372.408 157.933 376.63 166.286C377.335 175.017 379.706 183.549 388.513 189.069C389.542 189.725 390.551 190.351 391.56 190.938C391.197 192.112 390.884 193.305 390.619 194.518C384.81 221.975 406.587 255.03 441.658 264.328C463.122 270.016 481.931 267.52 496.566 260.48Z" fill="#723310"/>
<path d="M492.53 372.255L492.422 396.4L471.194 401.184L476.582 393.865L486.104 391.876L486.163 380.887L492.53 372.255Z" fill="#D8D8D8"/>
<path d="M442.001 217.967C450.582 222.979 471.448 233.073 495.44 229.672C493.715 232.854 490.914 240.203 483.851 244.4C479.227 247.164 472.781 248.566 463.621 246.557C457.028 245.116 452.414 242.311 449.211 239.01C440.864 230.438 441.942 218.464 442.001 217.967Z" fill="#330F0F"/>
<path d="M486.701 198.556C487.691 199.411 486.691 202.275 484.458 204.93C482.224 207.595 479.609 209.067 478.619 208.212C477.63 207.346 478.629 204.492 480.863 201.837C483.096 199.172 485.712 197.7 486.701 198.556Z" fill="#724F41"/>
<path d="M486.221 366.915L486.162 380.887L476.582 393.865L463.269 396.659L486.221 366.915Z" fill="#D8D8D8"/>
<path d="M476.582 393.864L486.163 380.887L486.104 391.876L476.582 393.864Z" fill="#D8D8D8"/>
<path d="M483.851 244.399V244.409C462.289 260.062 449.201 239.01 449.201 239.01C452.405 242.321 457.019 245.115 463.612 246.557C472.781 248.566 479.227 247.164 483.851 244.399Z" fill="#D69274"/>
<path d="M466.247 3.4257C466.247 3.4257 487.377 9.94924 493.833 27.4714C421.291 2.01358 359.3 63.162 349.955 72.9871C349.827 73.1263 349.7 73.2655 349.592 73.3749C349.367 73.6136 349.181 73.8125 349.054 73.9517C348.848 74.1705 348.74 74.2898 348.74 74.2898C343.039 68.5717 336.201 64.8227 328.569 63.7387C328.569 63.7387 347.653 31.5187 380.598 15.1999C380.617 15.19 380.637 15.18 380.666 15.18C402.806 4.21132 431.656 -3.02824 466.247 3.4257Z" fill="#3B1B4D"/>
<path d="M485.271 136.174C482.029 135.677 478.815 134.961 475.632 134.016C473.486 133.38 471.331 132.644 469.215 131.799C448.378 123.565 428.217 118.881 408.233 115.748C399.984 114.465 391.775 113.451 383.576 112.546C396.125 96.983 417.108 85.0795 433.596 86.1933C460.996 88.0529 483.831 111.87 485.271 136.174Z" fill="#F1A57F"/>
<path d="M481.245 277.823C478.717 282.556 475.837 286.405 472.712 289.517C468.627 289.627 464.758 289.577 461.074 289.368C465.012 286.852 468.911 283.441 472.712 278.956L472.693 278.708C475.661 278.499 478.512 278.201 481.245 277.823Z" fill="#D3AD18"/>
<path d="M472.693 278.698L472.712 278.947C468.911 283.431 465.012 286.842 461.074 289.358C422.859 287.28 406.225 269.718 405.686 269.141C409.203 270.166 412.788 271.07 416.442 271.856C418.392 272.284 420.557 272.731 422.888 273.209C422.888 273.209 422.888 273.209 422.898 273.209C437.161 276.082 457.263 279.354 468.813 278.907C470.136 278.847 471.429 278.787 472.693 278.698Z" fill="#441809"/>
<path d="M461.074 289.358C464.758 289.567 468.637 289.617 472.712 289.507C451.033 311.196 418.264 297.334 418.264 297.334C398.476 293.058 376.855 257.755 376.855 257.755C380.157 259.445 383.546 261.017 387.004 262.488L387.014 262.498C387.896 262.866 388.787 263.244 389.679 263.592V263.602C389.679 263.602 399.23 282.487 414.953 289.428C428.423 295.395 445.057 299.661 461.074 289.358Z" fill="#FBCE13"/>
<path d="M467.265 198.705C468.539 202.344 468.47 205.696 467.128 206.193C465.767 206.69 463.631 204.134 462.358 200.485C461.074 196.845 461.133 193.494 462.495 192.997C463.856 192.509 465.982 195.075 467.265 198.705Z" fill="#724F41"/>
<path d="M458.86 147.242V147.988C458.86 148.048 458.85 148.107 458.85 148.167C458.85 148.316 458.841 148.475 458.831 148.625C458.831 148.724 458.821 148.823 458.821 148.913C458.811 149.052 458.792 149.211 458.792 149.351C458.762 149.569 458.733 149.788 458.704 150.007C458.674 150.246 458.645 150.484 458.606 150.743C458.459 151.707 458.243 152.702 457.959 153.746C457.851 154.154 457.734 154.571 457.597 154.989C457.538 155.168 457.489 155.337 457.43 155.516C457.371 155.685 457.322 155.844 457.254 155.993C457.107 156.471 456.921 156.958 456.734 157.455C456.558 157.923 456.372 158.42 456.166 158.897C456.078 159.106 455.99 159.315 455.912 159.524C455.833 159.723 455.745 159.921 455.667 160.12C455.53 160.429 455.392 160.727 455.255 161.025V161.035C455.216 161.145 455.157 161.244 455.108 161.363C455.02 161.562 454.922 161.771 454.824 161.97C454.697 162.258 454.55 162.527 454.423 162.815C454.285 163.094 454.148 163.372 454.011 163.661C453.933 163.8 453.864 163.959 453.786 164.098C453.492 164.695 453.188 165.291 452.865 165.908C452.689 166.236 452.512 166.584 452.326 166.922C442.53 185.151 426.533 194.359 413.68 190.918C413.366 190.829 413.043 190.739 412.73 190.63C412.103 190.431 411.466 190.222 410.829 190.003C410.408 189.854 409.977 189.695 409.546 189.546C409.33 189.456 409.125 189.377 408.899 189.297C408.625 189.198 408.36 189.089 408.076 188.989C407.606 188.8 407.116 188.601 406.617 188.392C394.019 183.162 379.745 172.402 384.977 146.447C385.231 144.736 385.633 143.135 386.152 141.654C386.221 141.445 386.289 141.236 386.368 141.027C386.397 140.938 386.446 140.848 386.466 140.768C386.485 140.739 386.495 140.699 386.505 140.679C386.593 140.47 386.681 140.251 386.76 140.052C386.779 139.993 386.799 139.953 386.828 139.903C386.936 139.625 387.063 139.356 387.21 139.088C387.22 139.028 387.249 138.988 387.279 138.949C387.387 138.73 387.484 138.521 387.592 138.312C387.72 138.064 387.867 137.795 388.004 137.556C388.141 137.308 388.298 137.049 388.445 136.821C388.582 136.582 388.738 136.343 388.895 136.114C389.365 135.389 389.885 134.712 390.414 134.076C390.747 133.688 391.09 133.31 391.432 132.962C391.599 132.793 391.756 132.634 391.903 132.485C392.343 132.057 392.794 131.639 393.264 131.242C393.431 131.122 393.578 130.993 393.725 130.874C394.126 130.546 394.528 130.237 394.93 129.949C394.939 129.939 394.959 129.929 394.969 129.929L395.165 130.227C433.596 118.94 458.772 145.94 458.772 145.94C458.831 146.367 458.85 146.805 458.86 147.242ZM445.038 162.378C446.801 154.044 441.58 145.84 433.38 144.05C425.161 142.25 417.089 147.561 415.316 155.884C413.552 164.217 418.774 172.422 426.973 174.212C435.183 176.012 443.265 170.701 445.038 162.378Z" fill="#F2CAB0"/>
<path d="M452.277 135.458C456.323 138.372 458.39 141.803 458.792 145.94C458.792 145.94 433.615 118.93 395.184 130.227L394.988 129.929C395.527 129.531 396.066 129.183 396.615 128.845C396.624 128.845 396.644 128.835 396.654 128.825C404.452 123.853 413.278 123.674 415.384 123.714H415.708C415.737 123.714 415.776 123.724 415.796 123.714C415.835 123.714 415.874 123.714 415.874 123.714C415.874 123.714 415.884 123.714 415.943 123.714C415.962 123.704 416.001 123.704 416.041 123.704C417.206 123.624 424.642 123.485 443.078 130.764C443.363 130.874 443.637 130.983 443.931 131.102C444.136 131.192 444.342 131.272 444.548 131.351C444.744 131.431 444.94 131.5 445.136 131.59C445.136 131.6 445.145 131.6 445.155 131.6C445.753 131.828 446.311 132.077 446.85 132.346C446.889 132.365 446.938 132.385 446.987 132.415C447.399 132.614 447.79 132.803 448.163 132.982C448.545 133.181 448.907 133.38 449.279 133.579C450.004 133.976 450.671 134.374 451.298 134.792C451.64 135.021 451.964 135.239 452.277 135.458Z" fill="#EAB096"/>
<path d="M456.391 527.349L457.273 533.763L439.914 539.352L308.203 581.725L291.314 587.165C285.789 581.884 273.465 573.411 273.005 573.083C273.916 568.23 274.896 564.372 274.896 564.372C274.896 564.372 281.057 555.104 284.31 545.02C286.739 561.269 291.588 555.084 291.588 555.084C286.191 551.792 287.631 527.369 287.631 527.369C290.658 500.35 289.972 459.199 289.962 458.384C294.606 479.506 301.875 507.241 311.014 524.266C311.034 524.306 311.054 524.355 311.083 524.385C311.161 524.525 311.22 524.664 311.299 524.793C312.592 527.279 317.96 537.9 316.824 541.331C316.442 542.494 318.665 538.656 319.782 536.726C330.685 545.308 362.984 555.81 456.391 527.349Z" fill="#D8D8D8"/>
<path d="M452.963 502.607L456.392 527.359C362.984 555.81 330.686 545.308 319.772 536.716C319.831 536.607 319.88 536.508 319.939 536.418C319.968 536.448 320.008 536.478 320.037 536.508C320.047 536.508 320.047 536.508 320.047 536.508C321.164 537.462 322.29 538.218 323.446 538.755C339.679 546.382 372.712 537.721 399.485 527.359C399.485 527.359 413.376 525.41 414.395 526.434C414.395 526.434 410.731 523.202 408.88 523.55C416.736 520.209 423.701 516.887 429.05 514.013C443.274 507.45 452.963 502.607 452.963 502.607Z" fill="#B7B6B6"/>
<path d="M451.915 495.039L452.963 502.597C452.963 502.597 443.274 507.44 429.06 514.003C423.711 516.877 416.756 520.199 408.889 523.54H408.88C408.713 523.57 408.576 523.63 408.439 523.729C405.568 524.932 402.581 526.156 399.495 527.349C372.721 537.721 339.678 546.373 323.456 538.745C322.3 538.208 321.163 537.452 320.057 536.498V536.488C320.057 536.488 385.888 537.045 451.562 495.089L451.915 495.039Z" fill="#58220C"/>
<path d="M433.37 144.05C441.58 145.84 446.791 154.044 445.028 162.378C443.255 170.711 435.183 176.012 426.964 174.212C418.754 172.422 413.543 164.217 415.306 155.884C417.079 147.561 425.151 142.25 433.37 144.05ZM431.587 160.647C432.332 157.137 430.128 153.676 426.66 152.921C423.192 152.165 419.783 154.402 419.038 157.923C418.294 161.433 420.498 164.894 423.966 165.649C427.434 166.395 430.843 164.168 431.587 160.647Z" fill="#0D0D0C"/>
<path d="M461.074 289.358C445.048 299.661 428.423 295.385 414.963 289.438C399.24 282.497 389.689 263.612 389.689 263.612V263.602C393.147 265.004 396.664 266.297 400.259 267.461C402.052 268.037 403.854 268.604 405.676 269.131C405.676 269.141 405.676 269.141 405.686 269.141C406.225 269.718 422.869 287.28 461.074 289.358Z" fill="#723310"/>
<path d="M426.67 152.921C430.137 153.676 432.342 157.137 431.597 160.647C430.853 164.168 427.443 166.405 423.976 165.649C420.508 164.894 418.304 161.433 419.048 157.923C419.793 154.392 423.202 152.165 426.67 152.921Z" fill="#F2F2F2"/>
<path d="M414.405 526.434C413.386 525.4 399.495 527.359 399.495 527.359C402.571 526.165 405.559 524.952 408.439 523.739C408.586 523.669 408.733 523.61 408.879 523.55H408.889C410.741 523.202 414.405 526.434 414.405 526.434Z" fill="#58220C"/>
<path d="M408.87 523.55C408.723 523.61 408.576 523.669 408.429 523.739C408.576 523.64 408.713 523.58 408.87 523.55Z" fill="#58220C"/>
<path d="M400.239 464.868C400.053 465.166 397.957 468.627 396.154 469.373C395.85 469.412 395.547 469.462 395.243 469.492C395.233 469.492 395.233 469.492 395.233 469.492C393.078 469.78 390.982 470.029 388.954 470.258C390.286 470.019 397.477 468.567 400.239 464.868Z" fill="#723310"/>
<path d="M396.154 469.373C395.841 469.512 395.527 469.562 395.243 469.492C395.547 469.462 395.85 469.422 396.154 469.373Z" fill="#723310"/>
<path d="M376.865 257.765C374.965 256.472 344.821 264.636 305.293 270.822C332.85 258.799 363.229 249.958 363.229 249.958C367.598 252.753 372.143 255.368 376.865 257.765Z" fill="#B7B6B6"/>
<path d="M372.055 137.507C377.571 143.433 375.709 155.019 376.62 166.276C372.398 157.923 370.89 148.048 372.055 137.507Z" fill="#441809"/>
<path d="M366.089 418.069C367.157 425.667 376.659 454.257 376.855 471.54C374.681 471.749 372.702 471.928 370.909 472.068C371.301 452.895 361.142 413.167 361.142 413.167C363.023 411.874 364.6 410.492 365.795 409C365.795 409 353.785 386.158 350.268 366C348.074 353.46 346.271 345.485 345.223 341.229C348.387 352.814 358.419 388.226 368.254 408.194C368.244 408.204 365.002 410.392 366.089 418.069Z" fill="#B7B6B6"/>
<path d="M366.432 134.066C366.354 135.07 366.256 136.095 366.148 137.109C366.04 138.123 365.913 139.147 365.766 140.182C360.966 174.898 339.953 201.251 316.922 203.448C314.394 203.697 311.837 203.647 309.271 203.279C296.075 201.39 285.27 191.565 278.559 177.284C278.559 177.284 281.087 179.104 285.172 181.143C290.462 187.388 297.094 191.485 304.637 192.559C306.743 192.857 308.84 192.907 310.916 192.738C321.281 191.863 331.185 185.27 338.865 174.938C339.267 174.411 339.649 173.864 340.031 173.317C346.516 164.009 351.258 151.936 353.139 138.382C353.217 137.865 353.276 137.348 353.344 136.84C353.413 136.333 353.462 135.826 353.521 135.319C353.873 132.077 354.04 129.084 353.991 125.772C354.588 126.458 355.343 127.234 356.322 128.04C358.497 129.839 361.7 131.878 366.432 134.066Z" fill="#251433"/>
<path d="M365.688 111.442C364.336 111.482 363.111 111.562 361.985 111.671C357.684 112.109 354.902 113.004 353.139 114.078C352.492 109.642 351.473 105.406 350.141 101.478C347.378 93.2937 343.225 86.3326 337.994 81.2907C333.585 77.0445 328.423 74.1407 322.711 73.017C317.274 67.7763 312.925 65.31 312.925 65.31C316.354 64.1366 319.88 63.4902 323.436 63.4206C325.131 63.3907 326.845 63.5001 328.55 63.7388C336.181 64.8228 343.019 68.5718 348.72 74.2899C353.442 79.0334 357.38 85.1293 360.358 92.1998C360.368 92.2097 360.368 92.2296 360.378 92.2396C362.847 98.0571 364.639 104.541 365.688 111.442Z" fill="#251433"/>
<path d="M354.001 125.762C354.001 125.762 354.001 125.762 354.001 125.772C354.02 128.994 353.873 132.087 353.53 135.319C353.472 135.826 353.423 136.323 353.354 136.84C353.285 137.358 353.227 137.875 353.148 138.382C351.267 151.926 346.526 164.009 340.041 173.317C339.659 173.864 339.277 174.411 338.875 174.938C331.185 185.27 321.291 191.863 310.926 192.738C308.84 192.917 306.743 192.857 304.647 192.559C297.104 191.485 290.472 187.388 285.182 181.143C297.868 187.478 325.562 195.881 338.405 157.654C353.736 112.009 335.3 85.1094 322.731 73.017C328.442 74.1506 333.605 77.0544 338.013 81.2907C343.234 86.3326 347.398 93.2937 350.16 101.478C351.503 105.416 352.512 109.642 353.158 114.078C348.466 116.942 350.915 121.068 350.915 121.068C350.915 121.068 351.591 122.023 352.433 123.475C352.766 124.102 353.246 124.867 354.001 125.762Z" fill="#757773"/>
<path d="M323.446 63.4305C337.788 45.5106 358.213 23.9311 380.598 15.2098C347.643 31.5287 328.57 63.7487 328.57 63.7487C326.855 63.5001 325.141 63.3907 323.446 63.4305Z" fill="#723310"/>
<path d="M322.711 73.0169C335.28 85.1093 353.717 111.999 338.385 157.654C325.552 195.881 297.858 187.477 285.162 181.143C274.886 169.011 269.664 148.774 272.691 126.926C276.963 96.0184 296.193 72.818 316.843 72.4998C318.293 72.4699 319.743 72.5594 321.203 72.7583C321.722 72.8279 322.222 72.9075 322.711 73.0169ZM326.777 134.623C327.345 130.476 327.394 126.448 326.963 122.65C326.228 115.897 324.014 109.921 320.723 105.545C317.647 101.448 313.63 98.7233 308.987 98.0669C305.176 97.52 301.395 98.4249 297.917 100.473C297.907 100.473 297.907 100.483 297.907 100.483C290.07 105.088 283.732 115.48 281.969 128.238C280.284 140.45 283.213 151.757 288.983 158.509V158.519C291.922 161.95 295.595 164.198 299.759 164.784C304.794 165.5 309.77 163.7 314.091 160.061C319.018 155.914 323.064 149.4 325.307 141.514C325.954 139.326 326.444 137.009 326.777 134.623Z" fill="#959193"/>
<path d="M328.952 499.226H335.015C332.997 510.513 328.952 511.547 328.952 511.547C330.989 510.523 328.952 499.226 328.952 499.226Z" fill="#58220C"/>
<path d="M326.953 122.66C327.384 126.448 327.345 130.486 326.767 134.633C326.434 137.019 325.944 139.336 325.298 141.534C323.054 149.41 318.999 155.934 314.081 160.081C309.761 163.72 304.784 165.52 299.749 164.804C295.585 164.208 291.912 161.97 288.973 158.539V158.529C283.193 151.777 280.274 140.47 281.959 128.258C283.722 115.5 290.06 105.108 297.897 100.503C297.897 100.503 297.897 100.493 297.907 100.493C301.385 98.4449 305.166 97.53 308.977 98.0869C313.62 98.7432 317.637 101.458 320.713 105.565C324.014 109.931 326.218 115.907 326.953 122.66ZM313.846 132.783C314.727 126.419 313.679 120.432 311.308 116.037C309.202 112.128 306.038 109.483 302.237 108.936C301.218 108.797 300.209 108.807 299.23 108.966C295.517 109.543 292 112.138 289.306 116.027C289.306 116.037 289.296 116.047 289.296 116.057C286.984 119.418 285.289 123.763 284.614 128.616C284.065 132.594 284.271 136.433 285.074 139.814V139.824C286.72 146.666 290.824 151.697 296.232 152.463C299.906 152.99 303.54 151.449 306.577 148.465C310.192 144.915 312.944 139.327 313.846 132.783Z" fill="#3B1B4D"/>
<path d="M322.711 73.0169C322.212 72.9075 321.722 72.8279 321.212 72.7583C319.753 72.5495 318.293 72.46 316.853 72.4997C296.212 72.818 276.982 96.0184 272.701 126.926C269.674 148.784 274.896 169.011 285.172 181.143C281.087 179.104 278.559 177.284 278.559 177.284C272.113 163.561 269.449 145.711 272.064 126.836C276.306 96.1775 293.185 72.0324 312.935 65.3199C312.935 65.3099 317.274 67.7762 322.711 73.0169Z" fill="#3B1B4D"/>
<path d="M319.939 536.418C319.88 536.508 319.831 536.607 319.772 536.716C315.247 533.156 314.394 529.924 314.394 529.924C316.177 532.57 318.039 534.777 319.939 536.418Z" fill="#723310"/>
<path d="M316.814 541.321C317.95 537.89 312.582 527.269 311.289 524.783C312.308 526.643 313.336 528.353 314.394 529.924C314.394 529.924 315.247 533.156 319.772 536.716C318.665 538.646 316.442 542.474 316.814 541.321Z" fill="#723310"/>
<path d="M311.308 116.037C313.679 120.432 314.727 126.419 313.846 132.783C312.935 139.326 310.182 144.915 306.567 148.465C303.53 151.449 299.896 152.99 296.222 152.463C290.824 151.697 286.71 146.665 285.064 139.824C285.064 139.824 298.103 149.042 299.22 141.296C300.346 133.559 300.64 130.546 304.363 127.96C308.076 125.384 299.22 108.966 299.22 108.966C300.199 108.797 301.218 108.787 302.227 108.936C306.048 109.483 309.202 112.119 311.308 116.037Z" fill="#767676"/>
<path d="M311.073 524.375C311.054 524.346 311.034 524.296 311.005 524.256C311.015 524.256 311.034 524.296 311.073 524.375Z" fill="#723310"/>
<path d="M299.23 108.966C299.23 108.966 308.085 125.384 304.373 127.96C300.66 130.546 300.356 133.559 299.23 141.296C298.113 149.042 285.074 139.824 285.074 139.824V139.814C284.261 136.423 284.055 132.594 284.613 128.616C285.289 123.763 286.984 119.418 289.296 116.056C289.296 116.047 289.306 116.037 289.306 116.027C292 112.138 295.517 109.543 299.23 108.966Z" fill="#959193"/>
<path d="M291.314 587.165L274.915 592.435H274.896C274.2 592.654 273.632 592.624 273.171 592.356C270.291 590.755 271.575 580.681 272.995 573.073H273.005C273.465 573.411 285.789 581.884 291.314 587.165Z" fill="#58220C"/>
<path d="M291.588 555.074C291.588 555.074 286.739 561.269 284.31 545.01C284.594 544.145 284.849 543.28 285.074 542.405C286.122 538.427 286.965 533.216 287.621 527.359C287.621 527.349 286.191 551.782 291.588 555.074Z" fill="#B7B6B6"/>
<path d="M288.855 453.243C289.6 457.867 284.525 462.153 285.985 458.692C287.425 455.291 285.956 438.615 285.956 438.615H285.965C286.671 442.453 287.611 447.276 288.748 452.716C288.748 452.726 288.757 452.745 288.757 452.755C288.787 452.915 288.826 453.074 288.855 453.243Z" fill="#723310"/>
<path d="M288.855 453.243C288.826 453.074 288.787 452.915 288.757 452.765C288.797 452.924 288.836 453.074 288.855 453.243Z" fill="#723310"/>
<path d="M273.162 592.356L261.71 592.395C263.013 585.345 249.268 581.456 236.915 579.398C220.81 576.703 205.783 569.106 194.527 557.103C157.085 517.215 198.925 492.931 191.363 401.233C185.308 327.744 101.873 284.625 101.873 284.625C99.8063 279.275 98.5034 277.843 98.5034 277.843C116.117 281.124 185.446 325.516 195.301 375.676C200.571 402.486 200.395 429.635 199.082 449.136C198.249 461.586 194.625 473.51 191.882 485.682C187.513 505.014 173.847 584.291 272.985 573.083C271.565 580.691 270.281 590.755 273.162 592.356Z" fill="#58220C"/>
<path d="M236.925 579.408C249.278 581.466 263.022 585.355 261.72 592.405L220.409 592.584C192.999 585.216 178.862 570.309 171.897 554.616C170.918 562.373 179.676 576.087 179.823 576.405C163.874 562.343 165.236 535.851 165.236 535.851C165.344 524.883 166.705 517.534 166.392 511.398C162.385 523.908 162.15 538.268 162.15 538.268C157.017 513.407 169.83 486.775 171.388 481.226C196.408 366.159 144.644 328.798 103.108 310.321C87.4337 303.35 68.5562 307.646 53.4601 318.764C53.4405 318.774 53.4013 318.794 53.3817 318.804C50.6486 320.474 -11.411 358.95 44.1046 399.085C55.1353 408.632 70.0158 412.749 83.6033 406.206C110.21 393.397 99.0227 371.569 71.4461 378.232C61.4735 380.638 55.1451 369.898 62.2278 362.311C62.2278 362.311 120.173 354.932 114.138 408.99C105.743 416.399 93.7131 420.337 93.7131 420.337C105.439 420.108 115.461 413.982 115.461 413.982C115.461 413.982 111.856 422.395 84.1421 428.73C7.58405 441.966 6.23216 370.346 6.23216 370.346C1.85322 377.287 2.81325 387.619 2.9602 389.002C-11.5579 318.525 43.4581 292.62 43.4581 292.62C37.737 289.11 29.6159 295.066 29.2143 295.365C48.1407 275.068 74.6985 282.099 74.6985 282.099C69.7318 277.017 63.9128 275.516 63.9128 275.516C88.3055 272.602 101.883 284.635 101.883 284.635C101.883 284.635 185.308 327.754 191.372 401.243C198.935 492.941 157.095 517.225 194.537 557.113C205.792 569.115 220.81 576.703 236.925 579.408Z" fill="#723310"/>
<path d="M78.9305 355.608C107.389 352.595 123.112 378.819 122.073 395.117C121.73 400.597 118.4 405.241 114.138 409C120.173 354.952 62.2278 362.321 62.2278 362.321C65.1961 359.138 70.5155 356.493 78.9305 355.608Z" fill="#58220C"/>
<path d="M53.3817 318.814C42.3217 326.978 33.3189 338.792 29.0967 352.506C23.7479 369.888 31.3792 388.097 44.1046 399.095C-11.411 358.959 50.6486 320.474 53.3817 318.814Z" fill="#58220C"/>
<path d="M669.03 492.324L583.655 518.379" stroke="#232323" stroke-linecap="round" stroke-linejoin="round"/>
<path d="M608.842 521.979L667.943 502.279" stroke="#232323" stroke-linecap="round" stroke-linejoin="round"/>
<path d="M634.126 525.957L666.258 515.813" stroke="#232323" stroke-linecap="round" stroke-linejoin="round"/>
<path d="M657.95 529.596L664.661 526.653" stroke="#232323" stroke-linecap="round" stroke-linejoin="round"/>
<path d="M586.839 508.683L666.258 518.707" stroke="#232323" stroke-linecap="round" stroke-linejoin="round"/>
<path d="M613.093 501.165L667.511 508.564" stroke="#232323" stroke-linecap="round" stroke-linejoin="round"/>
<path d="M636.212 494.452L668.687 499.077" stroke="#232323" stroke-linecap="round" stroke-linejoin="round"/>
<path d="M838.32 371.867L803.474 376.064L803.7 411.466" stroke="#FDCE12" stroke-width="3" stroke-miterlimit="10"/>
<path d="M813.947 419.71L813.966 385.253L844.335 381.106" stroke="#251133" stroke-width="3" stroke-miterlimit="10"/>
<path d="M856.815 394.928L828.083 432.17L856.678 426.184L856.815 394.928Z" stroke="#251133" stroke-width="3" stroke-miterlimit="10"/>
<path d="M803.622 446.331L865.015 368.218" stroke="#FDCE12" stroke-width="3" stroke-miterlimit="10"/>
<path d="M864.721 401.621L838.006 437.839L864.574 431.842L864.721 401.621Z" stroke="#FDCE12" stroke-width="3" stroke-miterlimit="10"/>
<path d="M471.458 348.219L443.646 351.571L443.823 379.833" stroke="#FDCE12" stroke-width="3" stroke-miterlimit="10"/>
<path d="M452.012 386.406V358.91L476.258 355.598" stroke="#251133" stroke-width="3" stroke-miterlimit="10"/>
<path d="M486.221 366.627L463.288 396.351L486.104 391.567L486.221 366.627Z" stroke="#251133" stroke-width="3" stroke-miterlimit="10"/>
<path d="M443.765 407.657L492.766 345.306" stroke="#FDCE12" stroke-width="3" stroke-miterlimit="10"/>
<path d="M492.53 371.967L471.203 400.875L492.412 396.092L492.53 371.967Z" stroke="#FDCE12" stroke-width="3" stroke-miterlimit="10"/>
</svg>
